<?xml version="1.0" encoding="utf-8"?>
<!-- Generator: Adobe Illustrator 25.0.0, SVG Export Plug-In . SVG Version: 6.00 Build 0)  -->
<svg version="1.1" id="Layer_1" xmlns="http://www.w3.org/2000/svg" xmlns:xlink="http://www.w3.org/1999/xlink" x="0px" y="0px"
	 viewBox="0 0 100 100" style="enable-background:new 0 0 100 100;" xml:space="preserve">
<g>
	<path d="M70.1,8.49C70.73,8.65,71.37,8.8,72,8.96c5.34,1.4,9.44,6.21,9.68,11.69c0.19,4.33,0.11,8.67,0.13,13
		c0.01,2.71,0.02,5.41,0,8.12c-0.02,2.1-1.33,3.6-3.16,3.66c-2.06,0.08-3.52-1.38-3.55-3.6c-0.03-2.37-0.01-4.75-0.01-7.13
		c0-4.25,0.02-8.51-0.01-12.76c-0.02-3.28-1.82-5.68-4.9-6.55c-0.71-0.2-1.47-0.28-2.2-0.28c-13.23-0.02-26.46-0.01-39.69-0.01
		c-3.6,0-6.22,1.98-6.98,5.26c-0.1,0.43-0.14,0.87-0.14,1.31c-0.01,19.47-0.02,38.94,0,58.42c0,3.12,1.93,5.53,4.95,6.34
		c0.71,0.19,1.47,0.25,2.21,0.26c3.51,0.03,7.02,0,10.52,0.02c1.77,0.01,3.1,1.27,3.29,3.08c0.16,1.55-0.98,3.11-2.58,3.48
		c-0.29,0.07-0.6,0.07-0.9,0.07c-3.67,0-7.35,0.02-11.02,0c-6.9-0.03-12.64-5.41-13.1-12.29c-0.06-0.85-0.09-1.71-0.09-2.56
		c0-18.7-0.01-37.4,0-56.1c0-5.27,2.11-9.44,6.71-12.1c1.37-0.79,3.02-1.11,4.55-1.64c0.15-0.05,0.3-0.11,0.46-0.16
		C40.82,8.49,55.46,8.49,70.1,8.49z"/>
	<path d="M90.62,64.04c-0.22,2.7-1.35,4.92-3.24,6.81c-5.83,5.8-11.63,11.64-17.49,17.42c-0.62,0.61-1.46,1.13-2.29,1.38
		c-4.14,1.22-8.31,2.34-12.48,3.49c-2.12,0.58-3.9-0.17-4.43-2c-0.21-0.72-0.2-1.6,0.01-2.32c1.19-4.15,2.44-8.28,3.75-12.4
		c0.23-0.73,0.68-1.47,1.22-2.01c5.93-5.98,11.88-11.93,17.87-17.85c2.8-2.77,6.21-3.65,9.97-2.52c3.77,1.14,6.05,3.8,6.88,7.65
		C90.56,62.43,90.55,63.24,90.62,64.04z M72.92,66.58c-0.24,0.23-0.47,0.43-0.68,0.64c-3.01,3-5.94,6.08-9.05,8.97
		c-1.82,1.69-3.12,3.56-3.57,6.02c-0.18,0.95-0.55,1.87-0.86,2.89c0.3-0.04,0.46-0.04,0.61-0.08c1.88-0.52,3.76-1.04,5.63-1.59
		c0.32-0.09,0.63-0.32,0.87-0.56c3.74-3.71,7.47-7.44,11.19-11.17c0.17-0.17,0.32-0.35,0.45-0.49
		C75.98,69.66,74.48,68.16,72.92,66.58z M82.38,66.36c1.17-0.91,1.76-2.1,1.42-3.59c-0.31-1.34-1.2-2.2-2.58-2.47
		c-1.5-0.3-2.58,0.39-3.47,1.45C79.3,63.29,80.82,64.8,82.38,66.36z"/>
	<path d="M48.09,35.01c-5.66,0-11.32,0.01-16.98,0c-1.81,0-3.12-1.18-3.36-3c-0.21-1.55,0.88-3.11,2.49-3.53
		c0.31-0.08,0.65-0.1,0.98-0.1c11.26,0,22.53-0.01,33.79,0c2,0,3.49,1.41,3.52,3.29c0.02,1.89-1.51,3.34-3.55,3.34
		C59.36,35.01,53.73,35.01,48.09,35.01z"/>
	<path d="M48.09,48.26c-5.66,0-11.32,0.01-16.98,0c-1.81,0-3.11-1.19-3.36-3c-0.21-1.55,0.89-3.1,2.5-3.52
		c0.31-0.08,0.65-0.09,0.98-0.09c11.26,0,22.53-0.01,33.79,0c2,0,3.49,1.42,3.51,3.29c0.02,1.89-1.51,3.33-3.56,3.33
		C59.35,48.27,53.72,48.26,48.09,48.26z"/>
	<path d="M41.34,61.52c-3.42,0-6.85,0.01-10.27,0c-1.79-0.01-3.1-1.23-3.32-3.05c-0.19-1.55,0.94-3.1,2.55-3.5
		c0.32-0.08,0.66-0.08,0.98-0.08c6.77,0,13.53-0.01,20.3,0c2.05,0,3.58,1.45,3.56,3.34c-0.02,1.88-1.52,3.28-3.52,3.29
		C48.19,61.53,44.77,61.52,41.34,61.52z"/>
</g>
</svg>
