<?xml version="1.0" encoding="utf-8"?>
<!-- Generator: Adobe Illustrator 25.0.0, SVG Export Plug-In . SVG Version: 6.00 Build 0)  -->
<svg version="1.1" id="Layer_1" xmlns="http://www.w3.org/2000/svg" xmlns:xlink="http://www.w3.org/1999/xlink" x="0px" y="0px"
	 viewBox="0 0 100 100" style="enable-background:new 0 0 100 100;" xml:space="preserve">
<style type="text/css">
	.st0{fill:none;stroke:#000000;stroke-width:3.7582;stroke-miterlimit:10;}
	.st1{fill:none;stroke:#000000;stroke-width:3.7582;stroke-linecap:round;stroke-linejoin:round;stroke-miterlimit:10;}
</style>
<g>
	<path d="M29.73,93.82c-2.37-1.02-1.72-3.19-1.85-5.33c-0.72,0.75-1.24,1.35-1.8,1.89c-1.24,1.2-2.62,1.19-3.85-0.02
		c-1.47-1.45-2.94-2.91-4.39-4.38c-1.18-1.19-1.19-2.59-0.01-3.79c0.54-0.55,1.13-1.04,1.69-1.56c-0.04-0.09-0.08-0.18-0.12-0.27
		c-0.69,0-1.39,0-2.08,0c-1.99-0.01-2.92-0.95-2.93-2.95c0-1.96-0.01-3.91,0-5.87c0.01-1.87,1-2.86,2.86-2.87c0.73,0,1.47,0,2.43,0
		c-0.73-0.72-1.31-1.29-1.88-1.87c-1.11-1.13-1.14-2.55-0.05-3.67c1.52-1.56,3.07-3.09,4.63-4.61c1.09-1.06,2.5-1.04,3.61,0.04
		c0.59,0.57,1.13,1.2,1.69,1.8c0.08-0.03,0.15-0.06,0.23-0.09c0-0.72,0-1.44,0-2.17c0.01-1.93,0.95-2.87,2.9-2.89
		c0.74-0.01,1.49-0.04,2.23,0.01c0.61,0.05,0.91-0.2,1.21-0.72c2.93-5.11,7.12-8.76,12.61-10.93c0.86-0.34,1.53-0.26,2.28,0.32
		c5.44,4.18,12.67,4.19,18.08,0.01c0.78-0.6,1.48-0.7,2.36-0.34c8.8,3.67,14.08,10.17,15.54,19.6c0.39,2.48,0.25,5.05,0.31,7.59
		c0.04,2.18,0.01,4.35,0.01,6.53c0,1.47-0.44,1.91-1.94,1.91c-9.92,0-19.85,0-29.77-0.01c-0.57,0-1,0.13-1.48,0.5
		c-0.51,0.39-1.24,0.55-1.89,0.64c-0.72,0.11-1.47,0.02-2.2,0.02c-0.05,0.08-0.1,0.15-0.14,0.23c0.53,0.49,1.08,0.97,1.59,1.49
		c1.33,1.34,1.32,2.69-0.01,4.03c-1.4,1.41-2.8,2.81-4.22,4.2c-1.31,1.29-2.67,1.29-3.98,0.01c-0.53-0.52-1.03-1.07-1.76-1.56
		c0,0.63-0.03,1.27,0.01,1.9c0.1,1.54-0.51,2.61-1.98,3.15C35.02,93.82,32.38,93.82,29.73,93.82z M72.99,76.4c3.28,0,6.46,0,9.69,0
		c0-3.44,0.13-6.83-0.02-10.21c-0.41-9.18-4.85-15.74-13.15-19.69c-0.5-0.24-0.86-0.21-1.34,0.12c-6.08,4.2-13.84,4.21-19.93,0.01
		c-0.49-0.34-0.85-0.33-1.34-0.11c-3.95,1.77-7.12,4.47-9.52,8.06c-0.12,0.17-0.19,0.37-0.3,0.57c1.94,0.48,2.53,1.24,2.53,3.23
		c0,0.62,0,1.24,0,1.86c0.07,0.04,0.15,0.08,0.22,0.11c0.54-0.57,1.07-1.16,1.63-1.71c1.2-1.18,2.59-1.18,3.79,0
		c1.47,1.45,2.93,2.92,4.38,4.39c1.21,1.23,1.21,2.62-0.01,3.85c-0.55,0.55-1.13,1.08-1.69,1.61c0.89,0.18,1.66,0.17,2.42,0.18
		c1.66,0.02,2.74,1.07,2.8,2.72c0.02,0.58,0.01,1.16,0.01,1.74c0,1.09,0,2.18,0,3.27c5.77,0,11.4,0,17.1,0c0-0.35,0-0.64,0-0.94
		c0-1.6-0.02-3.2,0.01-4.8c0.01-0.83,0.57-1.38,1.33-1.39c0.77-0.01,1.3,0.5,1.38,1.34c0.03,0.3,0.01,0.61,0.02,0.91
		C72.99,73.12,72.99,74.72,72.99,76.4z M17.2,71.42c0,2.11,0,4.13,0,6.2c0.69,0,1.32,0,1.95,0c2.41,0,2.42,0.02,3.24,2.28
		c0.29,0.8,0.19,1.44-0.46,2.01c-0.77,0.67-1.51,1.35-2.17,1.94c1.6,1.63,3.01,3.06,4.49,4.56c0.45-0.47,0.98-0.92,1.39-1.46
		c1-1.31,2.09-1.64,3.63-0.8c1.11,0.61,1.37,0.75,1.37,2.04c0,0.95,0,1.9,0,2.85c2.15,0,4.15,0,6.23,0c0-0.68,0-1.31,0-1.94
		c0-2.44,0.01-2.42,2.3-3.31c0.77-0.3,1.39-0.18,1.94,0.42c0.71,0.77,1.42,1.53,2.11,2.27c1.54-1.56,2.95-2.98,4.51-4.56
		c-0.4-0.35-0.9-0.73-1.35-1.17c-1.9-1.85-1.76-1.62-0.85-3.95c0.32-0.81,0.83-1.18,1.68-1.17c1.04,0.02,2.08,0,3.12,0
		c0-2.11,0-4.13,0-6.2c-0.72,0-1.38,0-2.04,0c-2.39,0-2.38-0.01-3.27-2.24c-0.32-0.8-0.2-1.43,0.42-2.01
		c0.76-0.71,1.48-1.45,2.16-2.11c-1.51-1.5-2.94-2.9-4.42-4.36c-0.4,0.41-0.91,0.84-1.3,1.36c-1.02,1.33-2.14,1.68-3.7,0.83
		c-1.06-0.58-1.33-0.76-1.34-1.99c0-0.98,0-1.96,0-2.91c-2.14,0-4.14,0-6.2,0c0,0.72,0,1.38,0,2.04c0,2.38-0.01,2.38-2.2,3.24
		c-0.78,0.3-1.44,0.21-2.02-0.42c-0.71-0.77-1.44-1.51-2.13-2.23c-1.52,1.53-2.94,2.98-4.41,4.46c0.41,0.4,0.84,0.92,1.37,1.31
		c1.41,1.04,1.67,2.21,0.8,3.77c-0.54,0.97-0.74,1.25-1.88,1.26C19.2,71.42,18.21,71.42,17.2,71.42z"/>
	<path d="M74.46,25.33c0.01,8.95-7.29,16.22-16.28,16.22c-8.98,0-16.27-7.28-16.25-16.24c0.02-8.93,7.28-16.17,16.23-16.18
		C67.15,9.12,74.46,16.38,74.46,25.33z M58.18,11.87c-7.47,0.01-13.55,6.07-13.53,13.49c0.01,7.42,6.13,13.49,13.57,13.47
		c7.47-0.02,13.53-6.07,13.53-13.5C71.74,17.89,65.65,11.86,58.18,11.87z"/>
	<path d="M41.86,74.55c-0.07,4.45-3.8,8.08-8.21,8c-4.44-0.08-8.1-3.83-8.02-8.21c0.08-4.47,3.81-8.05,8.32-7.98
		C38.32,66.42,41.93,70.16,41.86,74.55z M28.38,74.43c0,2.95,2.39,5.32,5.38,5.32c2.97,0,5.4-2.41,5.39-5.33
		c-0.01-2.9-2.49-5.36-5.4-5.36C30.83,69.07,28.38,71.51,28.38,74.43z"/>
</g>
</svg>
