<?xml version="1.0" encoding="utf-8"?>
<!-- Generator: Adobe Illustrator 25.0.0, SVG Export Plug-In . SVG Version: 6.00 Build 0)  -->
<svg version="1.1" id="Layer_1" xmlns="http://www.w3.org/2000/svg" xmlns:xlink="http://www.w3.org/1999/xlink" x="0px" y="0px"
	 viewBox="0 0 100 100" style="enable-background:new 0 0 100 100;" xml:space="preserve">
<g>
	<path d="M38.77,8.9c1.39,0.59,2.4,1.49,2.43,3.13c0.03,1.52-0.76,2.49-2.08,3.13c-4.36,2.14-7.8,5.29-10.33,9.43
		c-2.43,3.97-3.59,8.29-3.67,12.93c-0.02,1.44-0.81,2.55-2.1,3c-1.3,0.45-2.8,0.14-3.54-0.95c-0.42-0.62-0.73-1.46-0.74-2.21
		c-0.06-7.51,2.5-14.11,7.22-19.89c3.02-3.7,6.7-6.56,11.11-8.47c0.04-0.02,0.07-0.08,0.1-0.12C37.7,8.9,38.24,8.9,38.77,8.9z"/>
	<path d="M62.85,8.9c3,1.43,5.8,3.16,8.23,5.44c5.59,5.23,8.96,11.62,10.01,19.2c0.18,1.26,0.19,2.56,0.21,3.84
		c0.02,1.95-1.28,3.3-3.13,3.32c-1.93,0.02-3.24-1.28-3.28-3.26c-0.13-6.13-2.13-11.55-6.12-16.21c-2.2-2.57-4.83-4.6-7.88-6.07
		c-1.32-0.64-2.1-1.62-2.08-3.13c0.03-1.64,1.04-2.54,2.43-3.13C61.78,8.9,62.32,8.9,62.85,8.9z"/>
	<path d="M18.7,8.9c0.06,0.05,0.11,0.11,0.18,0.14c2.34,0.99,2.87,3.19,1.42,5.28c-1.4,2.01-2.67,4.11-3.95,6.2
		c-0.47,0.77-0.81,1.62-1.15,2.46c-0.57,1.41-1.6,2.23-3.11,2.23c-1.47,0-2.51-0.79-3.04-2.19c-0.02-0.06-0.1-0.1-0.15-0.16
		c0-0.59,0-1.18,0-1.77c0.11-0.2,0.24-0.39,0.33-0.6c1.42-3.39,3.24-6.54,5.43-9.49c0.66-0.89,1.37-1.69,2.42-2.11
		C17.63,8.9,18.17,8.9,18.7,8.9z"/>
	<path d="M82.92,8.9c1.05,0.42,1.76,1.22,2.42,2.11c2.19,2.95,4.01,6.11,5.43,9.5c0.77,1.85,0.1,3.71-1.6,4.44
		c-1.72,0.74-3.53-0.02-4.32-1.88c-1.35-3.16-3.07-6.1-5.16-8.82c-1.51-1.97-0.87-4.23,1.44-5.21c0.07-0.03,0.12-0.09,0.18-0.14
		C81.85,8.9,82.38,8.9,82.92,8.9z"/>
	<path d="M53.25,75.75c0,2.19,0,4.32,0,6.49c3.55,0.39,6.94,1.25,10.21,2.61c1.66,0.69,2.47,2.29,2.01,3.88
		c-0.54,1.89-2.41,2.79-4.32,2.16c-2.07-0.68-4.15-1.42-6.27-1.86c-5.19-1.08-10.25-0.38-15.16,1.52c-0.98,0.38-1.94,0.77-3.02,0.42
		c-1.26-0.42-2.17-1.5-2.26-2.74c-0.11-1.46,0.54-2.68,1.85-3.25c2.9-1.26,5.92-2.11,9.06-2.54c0.45-0.06,0.9-0.12,1.4-0.19
		c0-2.15,0-4.3,0-6.49c-3.16-0.61-6.02-1.87-8.47-3.95c-4.31-3.65-6.66-8.3-6.72-13.98c-0.07-6.79-0.02-13.59-0.01-20.38
		c0.01-9.31,6.91-17.11,16.15-18.28c9.89-1.24,18.99,5.57,20.56,15.43c0.15,0.94,0.19,1.92,0.2,2.87
		c0.02,6.58-0.08,13.16,0.03,19.74C68.64,65.95,62.47,74.01,53.25,75.75z M37.97,47.47c0.04,0,0.09,0,0.13,0
		c0,3.74-0.23,7.5,0.05,11.22c0.48,6.31,5.18,10.58,11.52,10.77c3.95,0.12,7.27-1.28,9.77-4.4c1.86-2.33,2.59-5.07,2.6-8
		c0.03-6.04,0.02-12.09,0-18.13c0-0.88-0.04-1.76-0.14-2.64c-1.1-10.22-11.97-13.24-18.72-8.73c-3.65,2.43-5.1,6.06-5.2,10.29
		C37.91,41.05,37.97,44.26,37.97,47.47z"/>
	<path d="M50.01,56.42c-1.34,0-2.68,0.01-4.01,0c-1.85-0.02-3.2-1.37-3.2-3.19c-0.01-1.83,1.33-3.21,3.17-3.22
		c2.7-0.02,5.4-0.02,8.11,0c1.84,0.01,3.17,1.4,3.16,3.23c-0.01,1.79-1.33,3.14-3.13,3.19c-0.05,0-0.11,0-0.16,0
		C52.63,56.42,51.32,56.42,50.01,56.42z"/>
</g>
</svg>
