<svg xmlns="http://www.w3.org/2000/svg" width="125" height="125" viewBox="0 0 125 125">
  <g id="Group_320" data-name="Group 320" transform="translate(-1487.012 -960.012)">
    <circle id="Ellipse_107" data-name="Ellipse 107" cx="62.5" cy="62.5" r="62.5" transform="translate(1487.012 960.012)" fill="#f6f6f6"/>
    <g id="Group_319" data-name="Group 319" transform="translate(1523.094 989.227)">
      <path id="Path_462" data-name="Path 462" d="M153.592,217c.9.454,1.8.892,2.686,1.368a3.472,3.472,0,0,0,2.633.286,5.057,5.057,0,0,1,5.892,2.283,3.5,3.5,0,0,0,2.785,1.657,4.971,4.971,0,0,1,4.427,3.8,4.253,4.253,0,0,0,2.329,3.128,5.043,5.043,0,0,1,2.473,5.592,3.145,3.145,0,0,0,.7,2.661c1.89,2.33,2.06,4.1.621,6.727a3.049,3.049,0,0,0-.216,2.692,5.315,5.315,0,0,1-1.824,6.409,2.915,2.915,0,0,0-1.219,2.4,5.189,5.189,0,0,1-4.031,5.356,3.83,3.83,0,0,0-.478.2c-1.065.522-1.147.742-.7,1.82q2.453,5.928,4.9,11.858a2.29,2.29,0,0,1-1.433,3.275,2.739,2.739,0,0,1-1.392-.024q-2.681-.75-5.328-1.617c-.583-.192-.884-.114-1.171.461-.8,1.6-1.682,3.171-2.51,4.763a2.377,2.377,0,0,1-4.472-.215q-2.588-6.292-5.2-12.572c-.1-.233-.209-.46-.384-.843-.167.368-.284.605-.385.849-1.731,4.17-3.469,8.336-5.182,12.513a2.389,2.389,0,0,1-4.53.2c-.815-1.574-1.679-3.123-2.475-4.707a.773.773,0,0,0-1.114-.473c-1.7.56-3.423,1.057-5.131,1.6a2.386,2.386,0,0,1-3.031-3.341c1.678-4.027,3.328-8.066,5.028-12.084a.758.758,0,0,0-.33-1.122,6.389,6.389,0,0,0-1.218-.581,5.161,5.161,0,0,1-3.814-5,3.646,3.646,0,0,0-1.533-2.985,5,5,0,0,1-1.657-5.709,3.923,3.923,0,0,0-.337-3.586,4.96,4.96,0,0,1,.545-5.862,3.881,3.881,0,0,0,1.01-3.328,5.011,5.011,0,0,1,2.881-5.565,3.373,3.373,0,0,0,1.8-2.395,5.1,5.1,0,0,1,4.759-4.319,3.488,3.488,0,0,0,2.59-1.642,5.052,5.052,0,0,1,5.892-2.281,3.623,3.623,0,0,0,3.072-.566,18.32,18.32,0,0,1,2.247-1.09Zm9.744,47.735c1.965.1,2.874-.482,3.67-2.3a5.106,5.106,0,0,1,3.261-2.948,3.208,3.208,0,0,0,2.6-3.4,5.3,5.3,0,0,1,2.107-4.132,3.143,3.143,0,0,0,1.127-3.912,5.291,5.291,0,0,1,.435-4.729,3.163,3.163,0,0,0-.41-4.105,5.117,5.117,0,0,1-1.247-4.516,3.092,3.092,0,0,0-1.508-3.444,5.823,5.823,0,0,1-3.271-4.317,3.052,3.052,0,0,0-2.816-2.39,5.2,5.2,0,0,1-4.079-2.436,3.188,3.188,0,0,0-3.89-1.513,5.25,5.25,0,0,1-4.556-.855,3.158,3.158,0,0,0-4.173.008,5.232,5.232,0,0,1-4.433.877c-1.95-.458-2.949-.066-4.082,1.6a5.088,5.088,0,0,1-3.816,2.3,3.163,3.163,0,0,0-3.076,2.665,5.428,5.428,0,0,1-2.98,3.93,3.158,3.158,0,0,0-1.719,3.582,5.109,5.109,0,0,1-1.214,4.466,3.188,3.188,0,0,0-.408,4.21,5.236,5.236,0,0,1,.413,4.613,3.161,3.161,0,0,0,1.122,3.97,5.278,5.278,0,0,1,2.1,4.136,3.189,3.189,0,0,0,2.551,3.368,5.18,5.18,0,0,1,3.362,3.1,3.153,3.153,0,0,0,3.5,2.181,5.294,5.294,0,0,1,4.334,1.653,3.209,3.209,0,0,0,4.162.784,5.18,5.18,0,0,1,4.57,0,3.212,3.212,0,0,0,4.159-.8A5.273,5.273,0,0,1,163.336,264.735Zm4.769.05c-.1.032-.121.033-.135.046-.137.137-.271.278-.409.414a5.031,5.031,0,0,1-4.125,1.5,3.413,3.413,0,0,0-3.015,1.152,4.838,4.838,0,0,1-3.278,1.649c-.595.046-1.2.008-1.8.008a1.174,1.174,0,0,0,.044.164q2.359,5.716,4.729,11.427c.074.177.265.415.411.422s.352-.216.444-.386c.883-1.634,1.744-3.28,2.619-4.919a2.389,2.389,0,0,1,3.227-1.328c1.774.54,3.545,1.089,5.323,1.616.18.053.477.056.572-.05a.688.688,0,0,0-.006-.576Q170.422,270.359,168.106,264.786ZM150.1,269.45a5.523,5.523,0,0,1-5.511-1.882,2.858,2.858,0,0,0-2.5-.824,5.16,5.16,0,0,1-4.026-1.258,9.592,9.592,0,0,1-.738-.8c-.112.239-.178.368-.234.5q-2.195,5.293-4.38,10.591a2.952,2.952,0,0,0-.1.725,2.643,2.643,0,0,0,.778.009c1.737-.515,3.467-1.053,5.2-1.6a2.162,2.162,0,0,1,1.939.062,3.906,3.906,0,0,1,1.2,1.213c.931,1.632,1.774,3.314,2.666,4.968a2.232,2.232,0,0,0,.432.442,2.574,2.574,0,0,0,.447-.494c.188-.362.321-.753.478-1.132Z" transform="translate(-126.26 -217)" fill="#fb4400"/>
      <path id="Path_463" data-name="Path 463" d="M212.323,287.473a1.926,1.926,0,0,1,1.824,1.407c.786,2.126,1.572,4.252,2.325,6.39a.831.831,0,0,0,.912.666c2.294.045,4.588.15,6.881.238a1.91,1.91,0,0,1,1.822,1.315,1.856,1.856,0,0,1-.731,2.177c-1.817,1.436-3.635,2.872-5.479,4.274a.707.707,0,0,0-.286.913c.633,2.153,1.242,4.314,1.855,6.473a1.937,1.937,0,0,1-3.09,2.217c-1.687-1.136-3.363-2.289-5.061-3.407-1.23-.81-.728-.808-1.98.016-1.771,1.166-3.511,2.379-5.285,3.539a1.876,1.876,0,0,1-2.991-1.307,2.691,2.691,0,0,1,.13-1.014c.614-2.2,1.233-4.406,1.884-6.6a.625.625,0,0,0-.271-.8c-1.8-1.388-3.584-2.8-5.374-4.2a1.92,1.92,0,0,1-.866-2.3,2.023,2.023,0,0,1,2.1-1.3c2.272-.074,4.544-.183,6.817-.237.441-.011.536-.241.652-.559q1.181-3.257,2.378-6.508A1.923,1.923,0,0,1,212.323,287.473Zm11.735,10.69c-2.537-.1-4.873-.206-7.21-.271a2.055,2.055,0,0,1-2.072-1.53c-.712-2.016-1.462-4.018-2.2-6.025-.066-.18-.145-.356-.272-.665-.131.351-.2.532-.266.714-.735,2.008-1.477,4.014-2.2,6.025a1.983,1.983,0,0,1-1.979,1.474c-.91.015-1.819.063-2.728.1l-4.5.176c.2.174.3.275.408.363q2.58,2.027,5.162,4.051a1.967,1.967,0,0,1,.812,2.5c-.559,1.974-1.127,3.945-1.686,5.918-.077.271-.126.55-.215.949,2.06-1.387,4-2.692,5.935-4a1.931,1.931,0,0,1,2.518-.016c.721.479,1.435.969,2.154,1.452,1.233.829,2.467,1.655,3.805,2.553-.066-.29-.1-.455-.142-.616q-.891-3.147-1.785-6.293a1.939,1.939,0,0,1,.773-2.4c.578-.456,1.159-.908,1.739-1.363Z" transform="translate(-185.893 -275.232)" fill="#fb4400"/>
      <path id="Path_464" data-name="Path 464" d="M186.344,258.2a17.586,17.586,0,0,0-17.257,14.66c-.042.256-.055.518-.121.767a.945.945,0,0,1-1.159.767,1,1,0,0,1-.774-1.171,19.522,19.522,0,0,1,17.19-16.851,19.42,19.42,0,0,1,21.253,15.636q.109.573.2,1.148a1.01,1.01,0,0,1-.748,1.243.977.977,0,0,1-1.205-.877c-.2-.884-.3-1.8-.571-2.655-2.23-6.971-7-11.085-14.161-12.44A25.239,25.239,0,0,0,186.344,258.2Z" transform="translate(-159.942 -249.429)" fill="#fb4400"/>
      <path id="Path_465" data-name="Path 465" d="M186.38,393.964a19.594,19.594,0,0,1-19.224-16.227c-.043-.255-.078-.513-.113-.769a1.046,1.046,0,0,1,.815-1.217.99.99,0,0,1,1.128.832,30.38,30.38,0,0,0,.8,3.4c2.409,6.589,7.065,10.62,14.01,11.739a17.368,17.368,0,0,0,19.767-14.058c.067-.361.111-.727.2-1.082a.993.993,0,0,1,1.125-.836,1.039,1.039,0,0,1,.819,1.213,19.551,19.551,0,0,1-16.734,16.8C188.113,393.889,187.242,393.9,186.38,393.964Z" transform="translate(-159.949 -348.157)" fill="#fb4400"/>
    </g>
  </g>
</svg>
