<?xml version="1.0" encoding="utf-8"?>
<!-- Generator: Adobe Illustrator 25.0.0, SVG Export Plug-In . SVG Version: 6.00 Build 0)  -->
<svg version="1.1" id="Layer_1" xmlns="http://www.w3.org/2000/svg" xmlns:xlink="http://www.w3.org/1999/xlink" x="0px" y="0px"
	 viewBox="0 0 10 10" style="enable-background:new 0 0 10 10;" xml:space="preserve">
<style type="text/css">
	.st0{fill:#595959;}
</style>
<g>
	<path d="M0.43,1.96c0.01-0.05,0.02-0.1,0.04-0.15c0.11-0.33,0.42-0.55,0.78-0.55c0.94,0,1.87,0,2.81,0c1.19,0,2.38,0,3.56,0
		c0.53,0,0.86,0.34,0.86,0.86c0,0.74,0,1.49,0,2.23c0,0.04,0,0.07,0,0.12c0.09,0,0.17,0,0.25,0c0.49,0,0.84,0.34,0.84,0.84
		c0,0.69,0,1.39,0,2.08c0,0.49-0.35,0.83-0.83,0.83c-0.08,0-0.17,0-0.26,0c0,0.23,0,0.46,0,0.68c0,0.04,0,0.08,0,0.12
		c0,0.11-0.06,0.2-0.16,0.25c-0.11,0.05-0.21,0.03-0.3-0.06c-0.1-0.09-0.19-0.19-0.29-0.28C7.53,8.73,7.31,8.52,7.1,8.3
		C7.05,8.25,7.01,8.23,6.94,8.23c-0.46,0-0.91,0-1.37,0c-0.5,0-0.84-0.34-0.85-0.85c0-0.07,0-0.14,0-0.22c-0.04,0-0.06,0-0.09,0
		c-0.36,0-0.71,0-1.07,0c-0.06,0-0.1,0.02-0.14,0.06C2.95,7.7,2.47,8.18,1.99,8.66C1.92,8.73,1.84,8.78,1.74,8.77
		C1.6,8.76,1.5,8.64,1.5,8.48c0-0.41,0-0.81,0-1.22c0-0.03,0-0.06,0-0.1c-0.08,0-0.16,0-0.23,0c-0.43,0-0.73-0.24-0.83-0.66
		c0-0.01-0.01-0.03-0.02-0.04C0.43,4.97,0.43,3.46,0.43,1.96z M4.73,6.63c0-0.44,0-0.86,0-1.28c0-0.53,0.34-0.86,0.87-0.86
		c0.75,0,1.49,0,2.24,0c0.03,0,0.07,0,0.1,0c0-0.02,0-0.03,0-0.04c0-0.79,0-1.58,0-2.37c0-0.16-0.12-0.27-0.29-0.27
		c-2.14,0-4.28,0-6.41,0c-0.17,0-0.28,0.11-0.28,0.29c0,1.42,0,2.84,0,4.25c0,0.17,0.11,0.28,0.29,0.28c0.16,0,0.32,0,0.48,0
		c0.2,0,0.3,0.11,0.3,0.3c0,0.28,0,0.55,0,0.83c0,0.02,0,0.05,0.01,0.07c0.01,0,0.01,0.01,0.02,0.01C2.08,7.82,2.1,7.79,2.12,7.77
		C2.46,7.43,2.8,7.09,3.14,6.75c0.08-0.08,0.17-0.12,0.29-0.12c0.35,0,0.71,0,1.06,0C4.57,6.63,4.64,6.63,4.73,6.63z M7.95,8.39
		c0-0.15,0-0.27,0-0.4c0-0.18,0.11-0.29,0.29-0.29c0.17,0,0.33,0,0.5,0c0.19,0,0.3-0.11,0.3-0.3c0-0.69,0-1.39,0-2.08
		c0-0.2-0.11-0.3-0.31-0.3c-1.05,0-2.11,0-3.16,0c-0.2,0-0.3,0.11-0.3,0.3c0,0.69,0,1.38,0,2.07c0,0.2,0.11,0.31,0.31,0.31
		c0.5,0,0.99,0,1.49,0c0.13,0,0.23,0.04,0.32,0.14C7.55,8,7.71,8.15,7.87,8.31C7.89,8.33,7.91,8.35,7.95,8.39z"/>
	<path d="M4.45,3.41c-0.71,0-1.42,0-2.13,0c-0.21,0-0.34-0.19-0.27-0.37C2.1,2.93,2.19,2.88,2.31,2.87c0.15,0,0.31,0,0.46,0
		c1.26,0,2.52,0,3.78,0c0.04,0,0.08,0,0.12,0.01C6.8,2.91,6.89,3.04,6.87,3.17C6.86,3.31,6.75,3.41,6.6,3.41c-0.55,0-1.1,0-1.64,0
		C4.79,3.41,4.62,3.41,4.45,3.41z"/>
	<path d="M3.38,4.48c-0.35,0-0.7,0-1.04,0c-0.18,0-0.3-0.11-0.3-0.27c0-0.16,0.12-0.27,0.3-0.27c0.7,0,1.4,0,2.1,0
		c0.18,0,0.3,0.11,0.3,0.27c0,0.16-0.12,0.27-0.3,0.27C4.08,4.48,3.73,4.48,3.38,4.48z"/>
	<path d="M3.12,5.02c0.26,0,0.52,0,0.78,0c0.17,0,0.29,0.11,0.3,0.27c0,0.16-0.12,0.27-0.29,0.27c-0.53,0-1.05,0-1.58,0
		c-0.17,0-0.29-0.11-0.29-0.27c0-0.16,0.12-0.26,0.3-0.27C2.59,5.02,2.86,5.02,3.12,5.02z"/>
	<path d="M6.87,6.52c0.18-0.19,0.36-0.36,0.53-0.53c0.03-0.03,0.06-0.06,0.1-0.09C7.61,5.8,7.77,5.8,7.87,5.9
		c0.1,0.1,0.1,0.26,0.01,0.36C7.8,6.36,7.71,6.44,7.63,6.52C7.45,6.7,7.28,6.88,7.1,7.05C6.95,7.2,6.8,7.2,6.66,7.05
		C6.54,6.94,6.42,6.82,6.3,6.7C6.18,6.58,6.18,6.41,6.29,6.3c0.11-0.11,0.27-0.1,0.4,0.02C6.74,6.38,6.8,6.45,6.87,6.52z"/>
</g>
</svg>
