<svg xmlns="http://www.w3.org/2000/svg" xmlns:xlink="http://www.w3.org/1999/xlink" width="1100" height="621.916" viewBox="0 0 1100 621.916">
  <defs>
    <clipPath id="clip-path">
      <path id="Path_18191" data-name="Path 18191" d="M2478.421,2194.967c-11.122-38.612-42.678-109.861-58.9-139.484-58.347-106.551-108.489-180.98-263.86-176.691,0,0-61.5,6.941-91.194,8.031-27,.99-150.952,3.423-194.073,104.107-9.822,22.932,6.979,57.557,1.665,77.131-15.253-.436-116.325-5.6-116.266,33.351.038,24.968,47.918,133.73,52.418,148.287h663.279C2481.528,2235.575,2484.479,2216,2478.421,2194.967Z" transform="translate(-1755.795 -1878.616)" fill="#fb4400"/>
    </clipPath>
    <clipPath id="clip-path-2">
      <rect id="Rectangle_263" data-name="Rectangle 263" width="123.936" height="89.858" fill="none"/>
    </clipPath>
    <clipPath id="clip-path-3">
      <rect id="Rectangle_262" data-name="Rectangle 262" width="112.233" height="67.945" transform="translate(0 23.409) rotate(-12.039)" fill="none"/>
    </clipPath>
  </defs>
  <g id="discuss" transform="translate(-443 -566.844)">
    <g id="Group_4105" data-name="Group 4105" transform="translate(-938.554 -1045.006)">
      <g id="Group_4046" data-name="Group 4046" transform="translate(1975.549 1815.541)">
        <path id="Path_18189" data-name="Path 18189" d="M2384.212,2097.432a4.029,4.029,0,0,1-4.029-4.029V1903.217c0-36.766-27.869-66.677-62.125-66.677H2045.585c-19.09,0-36.877,9.31-48.8,25.543a4.029,4.029,0,1,1-6.494-4.77c13.456-18.323,33.612-28.833,55.294-28.833h272.474c38.7,0,70.183,33.527,70.183,74.737V2093.4A4.029,4.029,0,0,1,2384.212,2097.432Z" transform="translate(-1989.508 -1828.48)" fill="#e5e5e5"/>
      </g>
      <g id="Group_4059" data-name="Group 4059" transform="translate(1755.795 1862.682)">
        <path id="Path_18190" data-name="Path 18190" d="M2478.421,2194.967c-11.122-38.612-42.678-109.861-58.9-139.484-58.347-106.551-108.489-180.98-263.86-176.691,0,0-61.5,6.941-91.194,8.031-27,.99-150.952,3.423-194.073,104.107-9.822,22.932,6.979,57.557,1.665,77.131-15.253-.436-116.325-5.6-116.266,33.351.038,24.968,47.918,133.73,52.418,148.287h663.279C2481.528,2235.575,2484.479,2216,2478.421,2194.967Z" transform="translate(-1755.795 -1878.616)" fill="#fb4400"/>
        <g id="Group_4058" data-name="Group 4058" clip-path="url(#clip-path)">
          <g id="Group_4057" data-name="Group 4057" transform="translate(-27.442 -12.966)" opacity="0.5" style="mix-blend-mode: soft-light;isolation: isolate">
            <g id="Group_4056" data-name="Group 4056">
              <g id="Group_4047" data-name="Group 4047" transform="translate(0 137.809)">
                <rect id="Rectangle_253" data-name="Rectangle 253" width="795.192" height="5.998" fill="#fff"/>
              </g>
              <g id="Group_4048" data-name="Group 4048" transform="translate(0 91.782)">
                <rect id="Rectangle_254" data-name="Rectangle 254" width="795.192" height="5.999" fill="#fff"/>
              </g>
              <g id="Group_4049" data-name="Group 4049" transform="translate(1.52 45.679)">
                <rect id="Rectangle_255" data-name="Rectangle 255" width="795.192" height="5.998" fill="#fff"/>
              </g>
              <g id="Group_4050" data-name="Group 4050" transform="translate(1.52)">
                <rect id="Rectangle_256" data-name="Rectangle 256" width="795.192" height="6" fill="#fff"/>
              </g>
              <g id="Group_4051" data-name="Group 4051" transform="translate(0 183.834)">
                <rect id="Rectangle_257" data-name="Rectangle 257" width="795.192" height="5.999" fill="#fff"/>
              </g>
              <g id="Group_4052" data-name="Group 4052" transform="translate(0 229.86)">
                <rect id="Rectangle_258" data-name="Rectangle 258" width="795.192" height="5.999" fill="#fff"/>
              </g>
              <g id="Group_4053" data-name="Group 4053" transform="translate(0 275.883)">
                <rect id="Rectangle_259" data-name="Rectangle 259" width="795.192" height="6" fill="#fff"/>
              </g>
              <g id="Group_4054" data-name="Group 4054" transform="translate(0 321.91)">
                <rect id="Rectangle_260" data-name="Rectangle 260" width="795.192" height="5.999" fill="#fff"/>
              </g>
              <g id="Group_4055" data-name="Group 4055" transform="translate(0 367.936)">
                <rect id="Rectangle_261" data-name="Rectangle 261" width="795.192" height="5.999" fill="#fff"/>
              </g>
            </g>
          </g>
        </g>
      </g>
      <g id="Group_4060" data-name="Group 4060" transform="translate(1780.299 1789.475)">
        <path id="Path_18192" data-name="Path 18192" d="M1800.1,1800.758l130.185,4.073a18.3,18.3,0,0,1,18.247,18.248v24.665a18.3,18.3,0,0,1-18.247,18.247l2.718,21.508-30.1-21.508-102.8,4.073a18.3,18.3,0,0,1-18.248-18.246v-32.813a18.3,18.3,0,0,1,18.248-18.247Z" transform="translate(-1781.856 -1800.758)" fill="#05d2d7"/>
      </g>
      <g id="Group_4061" data-name="Group 4061" transform="translate(1900.633 1815.709)">
        <path id="Path_18193" data-name="Path 18193" d="M1909.833,1837.078a8.42,8.42,0,1,0,8.42-8.42,8.419,8.419,0,0,0-8.42,8.42Z" transform="translate(-1909.833 -1828.658)" fill="#fff"/>
      </g>
      <g id="Group_4062" data-name="Group 4062" transform="translate(1855.22 1815.709)">
        <path id="Path_18194" data-name="Path 18194" d="M1861.536,1837.078a8.42,8.42,0,1,0,8.42-8.42,8.42,8.42,0,0,0-8.42,8.42Z" transform="translate(-1861.536 -1828.658)" fill="#fff"/>
      </g>
      <g id="Group_4063" data-name="Group 4063" transform="translate(1809.808 1815.709)">
        <path id="Path_18195" data-name="Path 18195" d="M1813.239,1837.078a8.42,8.42,0,1,0,8.419-8.42,8.419,8.419,0,0,0-8.419,8.42Z" transform="translate(-1813.239 -1828.658)" fill="#fff"/>
      </g>
      <g id="Group_4068" data-name="Group 4068" transform="translate(2230.285 1611.85)">
        <g id="Group_4064" data-name="Group 4064">
          <path id="Path_18196" data-name="Path 18196" d="M2404.984,1725.769H2278.006a17.6,17.6,0,0,1-17.581-17.583v-78.754a17.6,17.6,0,0,1,17.581-17.582h126.978a17.6,17.6,0,0,1,17.581,17.582v78.754A17.6,17.6,0,0,1,2404.984,1725.769Zm-126.978-105.861a9.535,9.535,0,0,0-9.524,9.523v78.754a9.536,9.536,0,0,0,9.524,9.525h126.978a9.534,9.534,0,0,0,9.523-9.525v-78.754a9.534,9.534,0,0,0-9.523-9.523Z" transform="translate(-2260.425 -1611.85)" fill="#d1d1d1"/>
        </g>
        <g id="Group_4065" data-name="Group 4065" transform="translate(22.332 3.93)">
          <path id="Path_18197" data-name="Path 18197" d="M2342.911,1690.175a4.015,4.015,0,0,1-2.7-1.042L2285.5,1639.61a4.029,4.029,0,0,1,5.408-5.974l52,47.075,70.3-63.639a4.029,4.029,0,1,1,5.408,5.974l-73.007,66.087A4.013,4.013,0,0,1,2342.911,1690.175Z" transform="translate(-2284.176 -1616.03)" fill="#d1d1d1"/>
        </g>
        <g id="Group_4066" data-name="Group 4066" transform="translate(4.035 71.424)">
          <path id="Path_18198" data-name="Path 18198" d="M2268.747,1726.4a4.029,4.029,0,0,1-2.706-7.016l33.726-30.53a4.029,4.029,0,1,1,5.408,5.974l-33.725,30.53A4.014,4.014,0,0,1,2268.747,1726.4Z" transform="translate(-2264.716 -1687.811)" fill="#d1d1d1"/>
        </g>
        <g id="Group_4067" data-name="Group 4067" transform="translate(95.889 52.928)">
          <path id="Path_18199" data-name="Path 18199" d="M2420.591,1725.224a4.014,4.014,0,0,1-2.7-1.043l-54.158-49.025a4.03,4.03,0,0,1,5.409-5.975l54.158,49.026a4.03,4.03,0,0,1-2.706,7.016Z" transform="translate(-2362.405 -1668.141)" fill="#d1d1d1"/>
        </g>
      </g>
      <g id="Group_4069" data-name="Group 4069" transform="translate(2009.708 1716.662)">
        <path id="Path_18200" data-name="Path 18200" d="M2171.791,1869.516l-28.351-51.26a43.748,43.748,0,0,1-5.047-15.4l-4.845-37.441-1.053,6.22s-35.915-23.463-36.009-48.32c-17.308,10.764-45.208,21.644-61,26.271-6.275,1.838-10.522,7.611-9.492,14.067,1.4,8.794,3.963,20.413,6.066,29.447,1.543,6.632,2.837,11.875,3.241,13.571,8.865,37.3,21.121,49.929,40.75,46.571l4.55,24.3c-6.177.225-17.432.529-31.632,2.065,0,0,9.534,50.842,67.413,57.142,57.755,6.288,104.042-65.276,104.24-65.583a373.542,373.542,0,0,0-48.826-1.656Z" transform="translate(-2025.836 -1723.32)" fill="#ffbebb" fill-rule="evenodd"/>
      </g>
      <g id="Group_4075" data-name="Group 4075" transform="translate(2030.697 1773.641)">
        <path id="Path_18201" data-name="Path 18201" d="M2054.705,1789.049a31.177,31.177,0,0,0-1.146-3.723c-.173-1.094-1.857-1.649-3.231-1.309a3.352,3.352,0,0,0-.6.248c-.86.291-1.577.861-1.537,1.593a5.791,5.791,0,0,0-.022.807,30.245,30.245,0,0,0,.888,3.785c.342,1.356.485,2.476,2.1,3.192a3.117,3.117,0,0,0,3.34-.829c1.046-1.378.6-2.422.214-3.766Z" transform="translate(-2048.159 -1783.918)"/>
      </g>
      <g id="Group_4076" data-name="Group 4076" transform="translate(2071.934 1763.84)">
        <path id="Path_18202" data-name="Path 18202" d="M2098.561,1778.626a31.33,31.33,0,0,0-1.144-3.722c-.175-1.1-1.858-1.65-3.233-1.309a3.417,3.417,0,0,0-.6.248c-.859.292-1.577.86-1.536,1.594a5.494,5.494,0,0,0-.023.807,30.418,30.418,0,0,0,.887,3.786c.343,1.355.485,2.474,2.1,3.192a3.113,3.113,0,0,0,3.339-.831c1.045-1.377.6-2.421.213-3.764Z" transform="translate(-2092.016 -1773.495)"/>
      </g>
      <g id="Group_4077" data-name="Group 4077" transform="translate(2017.81 1761.316)">
        <path id="Path_18203" data-name="Path 18203" d="M2036.667,1783.981a2.215,2.215,0,0,1-2.032-3.086,18.739,18.739,0,0,1,9.5-9.01c7.092-3,13.252,1.214,13.512,1.395a2.216,2.216,0,0,1-2.539,3.633,10.3,10.3,0,0,0-9.249-.945,14.481,14.481,0,0,0-7.158,6.689A2.229,2.229,0,0,1,2036.667,1783.981Z" transform="translate(-2034.453 -1770.81)"/>
      </g>
      <g id="Group_4078" data-name="Group 4078" transform="translate(2057.756 1750.532)">
        <path id="Path_18204" data-name="Path 18204" d="M2079.15,1771.337a2.214,2.214,0,0,1-1.943-3.271,18.771,18.771,0,0,1,10.3-8.087c7.35-2.324,13.084,2.444,13.324,2.647a2.216,2.216,0,0,1-2.865,3.381,10.306,10.306,0,0,0-9.122-1.8,14.5,14.5,0,0,0-7.748,5.994A2.223,2.223,0,0,1,2079.15,1771.337Z" transform="translate(-2076.937 -1759.342)"/>
      </g>
      <g id="Group_4079" data-name="Group 4079" transform="translate(2049.473 1802.563)">
        <path id="Path_18205" data-name="Path 18205" d="M2081.6,1819.914c-4.668,1.745-9.517,3.3-12.311,4.168a1.64,1.64,0,0,0-.682,2.721c2.7,2.754,8.521,7.091,16.623,4.445,8.043-2.627,10.055-10.378,10.539-14.744a1.639,1.639,0,0,0-2.367-1.647c-2.759,1.387-7.269,3.363-11.8,5.058Z" transform="translate(-2068.128 -1814.678)" fill="#fff"/>
      </g>
      <g id="Group_4080" data-name="Group 4080" transform="translate(2059.917 1836.366)">
        <path id="Path_18206" data-name="Path 18206" d="M2079.235,1860.851l37.083-10.126a2.562,2.562,0,0,1,2.648,4.107l-28.051,43.9a2.608,2.608,0,0,1-4.761-.925Z" transform="translate(-2079.235 -1850.627)" fill="#9b6757"/>
      </g>
      <g id="Group_4081" data-name="Group 4081" transform="translate(2040.888 1764.429)">
        <path id="Path_18207" data-name="Path 18207" d="M2071.468,1813c-4.208,0-9.761-1.654-11.723-7.99-1.617-5.227-.3-8.741.979-12.14,1.4-3.731,2.989-7.959,1.377-16.1a2.216,2.216,0,1,1,4.347-.861c1.859,9.383-.045,14.451-1.575,18.525-1.2,3.189-2.063,5.493-.895,9.271,1.917,6.187,9.215,4.739,9.525,4.673a2.216,2.216,0,1,1,.906,4.339A14.633,14.633,0,0,1,2071.468,1813Z" transform="translate(-2058.997 -1774.121)" fill="#9b6757"/>
      </g>
      <g id="Group_4082" data-name="Group 4082" transform="translate(1985.521 1669.345)">
        <path id="Path_18208" data-name="Path 18208" d="M2147.814,1723.21c-4.455-14.152-10.779-23.789-20.4-29.9-7.625-4.843-19.056-7.235-29.656-5.881,0,0-15.067-22.7-46.1-11.155-26.15,9.732-20.206,31.013-20.206,31.013s-26.232,3.99-30.9,33.392,29.974,49.422,29.974,49.422c-1.7-7.3-4.744-24.565-5.721-30.167a1.057,1.057,0,0,1,1.33-1.194c9.428,2.567,24.8-6.492,27.451-12.806a1.619,1.619,0,0,1,2.166-.823c3.255,1.468,10.9,3.894,22.041,1.17,9.352-2.287,13.722-7.194,15.7-11.934a.725.725,0,0,1,1.377.092c3.651,15.374,19.981,40.743,26.829,27.139l9.268,7.059,1.053-6.221,4.844,37.442a43.178,43.178,0,0,0,1.674,7.521c1.888-2.01,23.507-38.884,23.965-58.546.493-21.1-9.1-24.954-14.68-25.621Z" transform="translate(-2000.113 -1672.997)"/>
      </g>
      <g id="Group_4083" data-name="Group 4083" transform="translate(2105.389 1745.178)">
        <path id="Path_18209" data-name="Path 18209" d="M2127.6,1772.166s.933-18.882,12.421-18.513,26.461,10.77,8.206,33.351-20.627-14.838-20.627-14.838Z" transform="translate(-2127.596 -1753.647)" fill="#ffbebb"/>
      </g>
      <g id="Group_4084" data-name="Group 4084" transform="translate(2112.816 1752.223)">
        <path id="Path_18210" data-name="Path 18210" d="M2135.5,1770.245c.032-2.741.459-9.283,6.108-9.1s12.606,3.97,5.043,15.078c-8.035,11.8-11.234.88-11.151-5.976Z" transform="translate(-2135.495 -1761.139)" fill="#9b6757"/>
      </g>
      <g id="Group_4085" data-name="Group 4085" transform="translate(2237.789 1950.591)">
        <path id="Path_18211" data-name="Path 18211" d="M2280.5,1974.41l2.121,63.923-14.213-8.075,7.393-56.36a2.388,2.388,0,0,1,4.7.512Z" transform="translate(-2268.406 -1972.108)" fill="#d6d6d6"/>
      </g>
      <g id="Group_4086" data-name="Group 4086" transform="translate(2074.086 1980.304)">
        <path id="Path_18212" data-name="Path 18212" d="M2241.971,2064.975s-38.01-23.6-63.823-35.507c-61.806-28.517-77.8-32.808-83.3-15.593-3.86,12.079,13.419,16.5,31.859,21.952a65.062,65.062,0,0,1,24.761,14.07s-15.087,4.891-17.349,18.237c-2.827,16.674-10.155,49.219,4.861,57.542s29.834,1.682,29.834,1.682,20.953,17.184,45.354,13.03Z" transform="translate(-2094.304 -2003.709)" fill="#ffbebb"/>
      </g>
      <g id="Group_4088" data-name="Group 4088" transform="translate(2184.677 2006.524)">
        <g id="Group_4087" data-name="Group 4087" transform="translate(0)">
          <path id="Path_18213" data-name="Path 18213" d="M2216.865,2160.261l45.4-123.485c13.351,5.818,86.54,38.135,152.8,75.742a2.215,2.215,0,1,0,2.187-3.854c-73.093-41.488-154.571-76.543-155.385-76.892a2.213,2.213,0,0,0-2.953,1.271l-46.854,127.448a2.216,2.216,0,0,0,.984,2.69L2381,2258.832h8.957Z" transform="translate(-2211.92 -2031.594)" fill="#d6d6d6"/>
        </g>
      </g>
      <g id="Group_4089" data-name="Group 4089" transform="translate(2119.262 2021.211)">
        <path id="Path_18214" data-name="Path 18214" d="M2144.566,2060.338a2.216,2.216,0,0,1-1.5-3.846c.386-.356,9.614-8.745,20.977-9.277a2.185,2.185,0,0,1,2.316,2.11,2.216,2.216,0,0,1-2.11,2.318c-9.768.456-18.1,8.032-18.179,8.108A2.209,2.209,0,0,1,2144.566,2060.338Z" transform="translate(-2142.35 -2047.214)" fill="#9b6757"/>
      </g>
      <g id="Group_4090" data-name="Group 4090" transform="translate(2110.099 2042.625)">
        <path id="Path_18215" data-name="Path 18215" d="M2134.82,2086.675a2.217,2.217,0,0,1-1.612-3.738c11.589-12.276,32.813-12.927,33.711-12.948a2.216,2.216,0,0,1,.108,4.432c-.2,0-20.289.639-30.6,11.559A2.213,2.213,0,0,1,2134.82,2086.675Z" transform="translate(-2132.604 -2069.989)" fill="#9b6757"/>
      </g>
      <g id="Group_4091" data-name="Group 4091" transform="translate(2108.329 2067.706)">
        <path id="Path_18216" data-name="Path 18216" d="M2132.937,2115.035a2.216,2.216,0,0,1-1.611-3.737c11.525-12.21,34.2-14.532,35.16-14.625a2.216,2.216,0,0,1,.428,4.411c-.219.022-21.989,2.264-32.365,13.256A2.212,2.212,0,0,1,2132.937,2115.035Z" transform="translate(-2130.722 -2096.663)" fill="#9b6757"/>
      </g>
      <g id="Group_4092" data-name="Group 4092" transform="translate(2133.592 2090.82)">
        <path id="Path_18217" data-name="Path 18217" d="M2172.6,2136.6a2.214,2.214,0,0,1-1.974-1.208c-2.961-5.789-11.659-9.875-11.747-9.916a2.216,2.216,0,0,1,1.86-4.023c.414.191,10.171,4.76,13.831,11.92a2.216,2.216,0,0,1-1.97,3.227Z" transform="translate(-2157.59 -2121.245)" fill="#9b6757"/>
      </g>
      <g id="Group_4093" data-name="Group 4093" transform="translate(1895.052 2044.315)">
        <path id="Path_18218" data-name="Path 18218" d="M1933.526,2188.2a2.216,2.216,0,0,1-2.176-1.809c-15.352-82.133-27.167-111.254-27.284-111.538a2.216,2.216,0,0,1,4.095-1.7c.486,1.174,12.083,29.693,27.545,112.419a2.218,2.218,0,0,1-1.771,2.587A2.26,2.26,0,0,1,1933.526,2188.2Z" transform="translate(-1903.898 -2071.785)" fill="#e8e8e8"/>
      </g>
      <g id="Group_4094" data-name="Group 4094" transform="translate(1920.236 1954.384)">
        <path id="Path_18219" data-name="Path 18219" d="M1935.093,1978.056a2.216,2.216,0,0,0-4.39.6c.29,2.11,27.066,197.283,30.783,276.859h4.433C1962.209,2175.7,1935.383,1980.17,1935.093,1978.056Z" transform="translate(-1930.682 -1976.143)" fill="#e8e8e8"/>
      </g>
      <g id="Group_4095" data-name="Group 4095" transform="translate(2016.686 1661.032)">
        <path id="Path_18220" data-name="Path 18220" d="M2035.476,1702.769a2.234,2.234,0,0,1-2.216-2.3c.012-.336,1.585-33.752,35.426-36.2,27.4-1.984,33.152,21.892,33.207,22.134a2.216,2.216,0,0,1-4.321.984c-.2-.847-4.979-20.4-28.568-18.7-29.919,2.165-31.271,30.723-31.315,31.938A2.216,2.216,0,0,1,2035.476,1702.769Z" transform="translate(-2033.259 -1664.156)"/>
      </g>
      <g id="Group_4096" data-name="Group 4096" transform="translate(1781.879 2097.824)">
        <path id="Path_18221" data-name="Path 18221" d="M1808.542,2156.359c10.291.765,32.665,3.592,40.763,1.239s-7.52-28.9-7.52-28.9l-58.248,8.822S1790.583,2155.024,1808.542,2156.359Z" transform="translate(-1783.536 -2128.694)" fill="#ffbebb"/>
      </g>
      <g id="Group_4097" data-name="Group 4097" transform="translate(1767.857 2100.303)">
        <path id="Path_18222" data-name="Path 18222" d="M1826.654,2161.667c-46.6,0-57.385-26.051-57.878-27.314a2.216,2.216,0,0,1,4.125-1.621c.161.4,13.6,31.885,75.19,22.83a2.216,2.216,0,0,1,.646,4.385A152.152,152.152,0,0,1,1826.654,2161.667Z" transform="translate(-1768.623 -2131.33)" fill="#afafaf"/>
      </g>
      <g id="Group_4098" data-name="Group 4098" transform="translate(1778.503 1942.609)">
        <path id="Path_18223" data-name="Path 18223" d="M2070.781,2148.637h-214a33.867,33.867,0,0,1-33.767-33.767l-41.235-117.484c-6.8-17.431,6.168-33.766,24.739-33.766h223.023c18.57,0,25.664,11.887,33.767,33.766l41.236,117.484a33.866,33.866,0,0,1-33.766,33.767Z" transform="translate(-1779.946 -1963.619)" fill="#e2e2e2" fill-rule="evenodd"/>
      </g>
      <g id="Group_4099" data-name="Group 4099" transform="translate(1779.073 1950.591)">
        <path id="Path_18224" data-name="Path 18224" d="M2056.244,2007.481c-8.487-22.922-15.918-35.373-35.371-35.373,0,0-179.84.2-221.267.558a19.169,19.169,0,0,0-18.461,14.126,17.681,17.681,0,0,0,.67,11.1l41.238,117.486a33.865,33.865,0,0,0,33.766,33.765h214a33.817,33.817,0,0,0,28.508-15.731q.114-1.416.117-2.858Z" transform="translate(-1780.552 -1972.108)" fill="#f3f2ff" fill-rule="evenodd"/>
      </g>
      <g id="Group_4100" data-name="Group 4100" transform="translate(1762.727 2013.386)">
        <path id="Path_18225" data-name="Path 18225" d="M1839.42,2085.473c14.251-9.517-2.527-24.167-11.181-32.035-8.447-7.684-17.858-13.524-31.2-14.441-12.207-.843-23.407,3.468-28.307,9.821-10.88,14.1-3.346,27.026,1.775,34.452,0,0-3.767,10.244-.978,19.537,3.417,11.393,8.382,15.6,8.382,15.6,3.017,17.067,11.988,25.577,18.477,28.129,19.082,7.507,30.659-8.349,30.659-8.349a34.778,34.778,0,0,0,10.057,1.592c13.25-.376,19.58-12.638,10.978-21.372,11.54-9.792-2.888-25.918-8.667-32.931Z" transform="translate(-1763.167 -2038.892)" fill="#ffbebb" fill-rule="evenodd"/>
      </g>
      <g id="Group_4101" data-name="Group 4101" transform="translate(1767.856 2042.074)">
        <path id="Path_18226" data-name="Path 18226" d="M1839.744,2089.513a2.23,2.23,0,0,1-.842-.167c-.305-.126-30.741-12.613-43.5-15.105a21.794,21.794,0,0,0-16.989,3.74c-3.045,2.223-5.106,5.047-5.377,7.37a2.217,2.217,0,0,1-4.4-.516c.417-3.562,3.1-7.462,7.167-10.434a26.228,26.228,0,0,1,20.452-4.51c13.186,2.576,43.068,14.835,44.334,15.356a2.216,2.216,0,0,1-.845,4.266Z" transform="translate(-1768.622 -2069.402)" fill="#9b6757"/>
      </g>
      <g id="Group_4102" data-name="Group 4102" transform="translate(1775.259 2075.845)">
        <path id="Path_18227" data-name="Path 18227" d="M1848.882,2124.587a2.213,2.213,0,0,1-.919-.2c-12.862-5.883-33.946-14.636-39.318-14.636-8.616,0-25.608,3.85-27.774,13.123a2.216,2.216,0,1,1-4.316-1.008c2.919-12.5,22.88-16.547,32.09-16.547,8.056,0,37.8,13.5,41.161,15.038a2.216,2.216,0,0,1-.924,4.231Z" transform="translate(-1776.495 -2105.318)" fill="#9b6757"/>
      </g>
      <g id="Group_4103" data-name="Group 4103" transform="translate(1914.523 2027.103)">
        <path id="Path_18228" data-name="Path 18228" d="M1953.726,2067.875c3.018,10.016-.822,20.031-8.579,22.369s-16.491-3.887-19.51-13.9.823-20.03,8.578-22.368,16.491,3.888,19.511,13.9Z" transform="translate(-1924.606 -2053.48)" fill="#fff"/>
      </g>
      <g id="Group_4104" data-name="Group 4104" transform="translate(1806.644 2105.382)">
        <path id="Path_18229" data-name="Path 18229" d="M1829.841,2146.245a2.2,2.2,0,0,1-.821-.16c-6.132-2.451-17.3-4.948-17.411-4.974a2.216,2.216,0,1,1,.963-4.326c.471.1,11.627,2.6,18.093,5.186a2.217,2.217,0,0,1-.824,4.275Z" transform="translate(-1809.874 -2136.732)" fill="#9b6757"/>
      </g>
    </g>
    <g id="Group_4109" data-name="Group 4109">
      <text id="discuss-2" data-name="discuss" transform="translate(443 671.5)" font-size="80" font-family="Lato-Black, Lato" font-weight="800"><tspan x="0" y="64">DISCUSS</tspan></text>
      <text id="With_us.." data-name="With us.." transform="translate(443 770.5)" font-size="50" font-family="Lato-Regular, Lato"><tspan x="0" y="40">WITH US..</tspan></text>
      <g id="Group_4106" data-name="Group 4106" transform="translate(539.825 633.702)">
        <path id="Path_18193-2" data-name="Path 18193" d="M1909.833,1837.078a8.42,8.42,0,1,0,8.42-8.42,8.419,8.419,0,0,0-8.42,8.42Z" transform="translate(-1909.833 -1828.658)" fill="#ddd"/>
      </g>
      <g id="Group_4107" data-name="Group 4107" transform="translate(494.412 633.702)">
        <path id="Path_18194-2" data-name="Path 18194" d="M1861.536,1837.078a8.42,8.42,0,1,0,8.42-8.42,8.42,8.42,0,0,0-8.42,8.42Z" transform="translate(-1861.536 -1828.658)" fill="#ddd"/>
      </g>
      <g id="Group_4108" data-name="Group 4108" transform="translate(449 633.702)">
        <path id="Path_18195-2" data-name="Path 18195" d="M1813.239,1837.078a8.42,8.42,0,1,0,8.419-8.42,8.419,8.419,0,0,0-8.419,8.42Z" transform="translate(-1813.239 -1828.658)" fill="#ddd"/>
      </g>
    </g>
    <g id="Group_4110" data-name="Group 4110" transform="matrix(0.914, -0.407, 0.407, 0.914, 687.67, 979.621)">
      <g id="Group_4064-2" data-name="Group 4064">
        <path id="Path_18196-2" data-name="Path 18196" d="M2343.681,1677.459h-73.131a10.137,10.137,0,0,1-10.126-10.127v-45.357a10.137,10.137,0,0,1,10.126-10.126h73.131a10.137,10.137,0,0,1,10.125,10.126v45.357A10.137,10.137,0,0,1,2343.681,1677.459Zm-73.131-60.968a5.492,5.492,0,0,0-5.485,5.485v45.357a5.492,5.492,0,0,0,5.485,5.486h73.131a5.491,5.491,0,0,0,5.485-5.486v-45.357a5.491,5.491,0,0,0-5.485-5.485Z" transform="translate(-2260.425 -1611.85)" fill="#e9e9e9"/>
      </g>
      <g id="Group_4065-2" data-name="Group 4065" transform="translate(12.862 2.263)">
        <path id="Path_18197-2" data-name="Path 18197" d="M2318,1658.732a2.313,2.313,0,0,1-1.557-.6l-31.507-28.522a2.321,2.321,0,0,1,3.115-3.441l29.95,27.112,40.489-36.652a2.321,2.321,0,1,1,3.115,3.441l-42.047,38.062A2.311,2.311,0,0,1,2318,1658.732Z" transform="translate(-2284.176 -1616.03)" fill="#e9e9e9"/>
      </g>
      <g id="Group_4066-2" data-name="Group 4066" transform="translate(2.324 41.135)">
        <path id="Path_18198-2" data-name="Path 18198" d="M2267.038,1710.036a2.321,2.321,0,0,1-1.558-4.041l19.424-17.583a2.32,2.32,0,1,1,3.115,3.44l-19.423,17.583A2.311,2.311,0,0,1,2267.038,1710.036Z" transform="translate(-2264.716 -1687.811)" fill="#e9e9e9"/>
      </g>
      <g id="Group_4067-2" data-name="Group 4067" transform="translate(55.225 30.483)">
        <path id="Path_18199-2" data-name="Path 18199" d="M2395.917,1701.017a2.312,2.312,0,0,1-1.557-.6l-31.191-28.235a2.321,2.321,0,0,1,3.115-3.441l31.191,28.236a2.321,2.321,0,0,1-1.558,4.041Z" transform="translate(-2362.405 -1668.141)" fill="#e9e9e9"/>
      </g>
    </g>
  </g>
</svg>
