<svg xmlns="http://www.w3.org/2000/svg" width="61" height="61" viewBox="0 0 61 61">
  <g id="Group_325" data-name="Group 325" transform="translate(-1382 -524)">
    <circle id="Ellipse_108" data-name="Ellipse 108" cx="30.5" cy="30.5" r="30.5" transform="translate(1382 524)" fill="#f6f6f6"/>
    <g id="Group_322" data-name="Group 322" transform="translate(1398.934 540.289)">
      <path id="Path_469" data-name="Path 469" d="M-42.473,769.434q-4.27,0-8.541,0a4.97,4.97,0,0,1-5.024-5.018c0-1.1,0-2.2,0-3.3a1,1,0,0,1,.8-.992.965.965,0,0,1,1.111.618,1.7,1.7,0,0,1,.07.544c.013,1.13-.034,2.263.036,3.389a2.942,2.942,0,0,0,2.942,2.784c.051,0,.1,0,.154,0q8.448,0,16.9,0a2.981,2.981,0,0,0,3.047-2.358,4.025,4.025,0,0,0,.079-.856c.009-1.038,0-2.076.007-3.113a.96.96,0,0,1,.993-1.021.96.96,0,0,1,.98.912c0,1.376.044,2.757-.064,4.125a4.881,4.881,0,0,1-4.092,4.219,7.1,7.1,0,0,1-.92.063Q-38.233,769.438-42.473,769.434Z" transform="translate(56.04 -744.267)" fill="#616161"/>
      <path id="Path_470" data-name="Path 470" d="M33.9,583.414v-.426q0-7.089,0-14.178a.986.986,0,0,1,1.931-.327,1.5,1.5,0,0,1,.04.425q0,7.043,0,14.086v.415c.127-.119.208-.191.285-.268q1.777-1.776,3.555-3.551a.978.978,0,0,1,1.665.355,1,1,0,0,1-.305,1.089q-1.815,1.8-3.62,3.616-.872.872-1.744,1.743a1.015,1.015,0,0,1-1.634.007q-2.715-2.712-5.428-5.427a1.052,1.052,0,0,1-.289-1.227.993.993,0,0,1,1.606-.263c.764.747,1.514,1.508,2.27,2.263Z" transform="translate(-21.316 -567.777)" fill="#616161"/>
    </g>
  </g>
</svg>
