<?xml version="1.0" encoding="utf-8"?>
<!-- Generator: Adobe Illustrator 25.0.0, SVG Export Plug-In . SVG Version: 6.00 Build 0)  -->
<svg version="1.1" id="Layer_1" xmlns="http://www.w3.org/2000/svg" xmlns:xlink="http://www.w3.org/1999/xlink" x="0px" y="0px"
	 viewBox="0 0 100 100" style="enable-background:new 0 0 100 100;" xml:space="preserve">
<path d="M74,94.89c-1.24-0.28-2.49-0.52-3.71-0.86c-2.96-0.82-5.57-2.31-7.86-4.35c-0.44-0.4-0.87-0.57-1.47-0.57
	c-13.1,0.02-26.2,0.01-39.3,0.01c-4.8,0-8.23-3.35-8.23-8.14c-0.02-22.47-0.02-44.94,0-67.41c0-4.75,3.45-8.11,8.18-8.11
	c11.09,0,22.18,0.01,33.27,0c3.84,0,7.08,1.38,9.74,4.13c3.4,3.51,6.78,7.05,10.21,10.54c2.74,2.78,4.02,6.11,4.01,9.99
	c-0.01,7.42,0,14.84,0,22.27c0,0.34,0,0.69,0,1.07c3.64,0.52,6.94,1.75,9.8,3.95c6.01,4.62,8.96,10.72,8.41,18.34
	c-0.68,9.41-7.83,17.22-17.09,18.81c-0.54,0.09-1.07,0.22-1.6,0.34C76.91,94.89,75.46,94.89,74,94.89z M73.52,53.43
	c0-0.35,0-0.66,0-0.98c0-7.42-0.04-14.84,0.02-22.26c0.02-2.61-0.84-4.73-2.66-6.57c-3.29-3.33-6.55-6.7-9.77-10.1
	c-1.81-1.91-3.98-2.82-6.6-2.82c-10.86,0.02-21.71,0.01-32.57,0.01c-2.24,0-3.18,0.94-3.18,3.18c0,22.26,0,44.52,0,66.78
	c0,2.29,0.93,3.22,3.23,3.22c11.61,0,23.23,0,34.84,0c0.28,0,0.57,0,0.96,0c-3.14-6.46-3.36-12.9-0.09-19.24
	C60.98,58.27,66.35,54.65,73.52,53.43z M91.86,74.12c0-8.56-7-15.53-15.64-15.55c-8.55-0.02-15.53,6.95-15.53,15.53
	c-0.01,8.58,6.96,15.57,15.51,15.56C84.83,89.64,91.85,82.68,91.86,74.12z"/>
<path d="M34.29,36.03c-2.3,0-4.6,0.01-6.9,0c-1.58-0.01-2.79-1.16-2.78-2.63c0.01-1.47,1.22-2.61,2.8-2.61c4.57,0,9.14-0.01,13.7,0
	c1.58,0,2.79,1.16,2.78,2.63c-0.01,1.47-1.21,2.6-2.8,2.61C38.83,36.04,36.56,36.03,34.29,36.03z"/>
<path d="M34.26,44.77c2.3,0,4.6-0.01,6.9,0c1.56,0.01,2.79,1.2,2.75,2.66C43.87,48.88,42.69,50,41.15,50
	c-4.6,0.01-9.19,0.01-13.79,0c-1.56,0-2.78-1.2-2.75-2.66c0.03-1.45,1.22-2.57,2.75-2.57C29.66,44.76,31.96,44.77,34.26,44.77z"/>
<path d="M34.27,63.98c-2.3,0-4.6,0.01-6.9,0c-1.57-0.01-2.79-1.18-2.77-2.64c0.02-1.44,1.21-2.59,2.73-2.59
	c4.6-0.01,9.19-0.01,13.79,0c1.57,0,2.79,1.18,2.77,2.64c-0.02,1.45-1.21,2.58-2.73,2.59C38.87,63.99,36.57,63.98,34.27,63.98z"/>
<path d="M56.64,30.8c0.49,0,0.99-0.01,1.48,0c1.39,0.04,2.53,1.21,2.55,2.59c0.02,1.4-1.16,2.61-2.59,2.64
	c-0.99,0.02-1.98,0.02-2.97,0c-1.38-0.03-2.53-1.21-2.55-2.59c-0.02-1.39,1.16-2.6,2.59-2.64C55.65,30.79,56.14,30.8,56.64,30.8z"/>
<path d="M56.56,50c-0.52,0-1.05,0.03-1.57-0.01c-1.32-0.08-2.44-1.31-2.42-2.63c0.01-1.33,1.13-2.54,2.46-2.59
	c1.05-0.04,2.09-0.03,3.14,0c1.37,0.04,2.52,1.27,2.51,2.63c-0.01,1.37-1.16,2.55-2.55,2.6C57.6,50.02,57.08,50.01,56.56,50z"/>
<g>
	<path d="M71.01,65.46c0.37-0.31,0.77-0.6,1.2-0.87c0.43-0.27,0.9-0.51,1.4-0.71c0.5-0.2,1.03-0.36,1.61-0.48
		c0.57-0.11,1.19-0.17,1.86-0.17c0.94,0,1.78,0.13,2.53,0.37c0.75,0.25,1.39,0.61,1.92,1.07c0.53,0.46,0.93,1.02,1.22,1.67
		c0.28,0.65,0.43,1.38,0.43,2.18c0,0.76-0.11,1.41-0.31,1.97c-0.21,0.55-0.47,1.03-0.79,1.44c-0.32,0.41-0.67,0.76-1.05,1.06
		c-0.38,0.3-0.75,0.58-1.09,0.83c-0.34,0.25-0.64,0.51-0.9,0.76c-0.25,0.25-0.42,0.53-0.49,0.84l-0.42,2.09h-3.17l-0.33-2.41
		c-0.08-0.49-0.03-0.91,0.15-1.28c0.18-0.36,0.43-0.69,0.74-0.99c0.31-0.29,0.67-0.57,1.05-0.84c0.39-0.26,0.75-0.55,1.09-0.85
		c0.34-0.3,0.63-0.64,0.86-1.02c0.23-0.37,0.35-0.82,0.35-1.34c0-0.6-0.2-1.07-0.59-1.43c-0.39-0.35-0.93-0.53-1.62-0.53
		c-0.53,0-0.97,0.05-1.32,0.17c-0.35,0.11-0.66,0.23-0.91,0.37c-0.25,0.13-0.48,0.26-0.67,0.37s-0.38,0.16-0.57,0.16
		c-0.43,0-0.75-0.18-0.96-0.55L71.01,65.46z M73.76,82.91c0-0.36,0.07-0.69,0.2-1c0.13-0.31,0.32-0.58,0.55-0.81
		c0.23-0.23,0.51-0.41,0.83-0.55c0.32-0.13,0.67-0.2,1.05-0.2c0.37,0,0.71,0.07,1.03,0.2c0.32,0.13,0.6,0.32,0.84,0.55
		c0.24,0.23,0.43,0.5,0.56,0.81c0.13,0.31,0.2,0.64,0.2,1c0,0.36-0.07,0.7-0.2,1.01c-0.13,0.31-0.32,0.58-0.56,0.81
		s-0.52,0.41-0.84,0.54c-0.32,0.13-0.66,0.19-1.03,0.19c-0.38,0-0.73-0.06-1.05-0.19c-0.32-0.13-0.6-0.31-0.83-0.54
		c-0.23-0.23-0.42-0.5-0.55-0.81C73.83,83.61,73.76,83.27,73.76,82.91z"/>
</g>
</svg>
