<?xml version="1.0" encoding="utf-8"?>
<!-- Generator: Adobe Illustrator 25.0.0, SVG Export Plug-In . SVG Version: 6.00 Build 0)  -->
<svg version="1.1" id="Layer_1" xmlns="http://www.w3.org/2000/svg" xmlns:xlink="http://www.w3.org/1999/xlink" x="0px" y="0px"
	 viewBox="0 0 100 100" style="enable-background:new 0 0 100 100;" xml:space="preserve">
<style type="text/css">
	.st0{fill:none;stroke:#000000;stroke-width:1.7;stroke-miterlimit:10;}
</style>
<g>
	<path class="st0" d="M18,87.2c-1-0.8-1.3-1.9-1.3-3.2c-0.1-21.3-0.3-42.6-0.4-63.9c0-0.3,0-0.6,0-0.8c0-0.6,0-1.3,0.3-1.8
		c0.6-1.2,2-1.7,3.5-1.7c2.1,0.1,3.5,1.6,3.5,3.8c0,5.6,0.1,11.2,0.1,16.8c0.1,15.9,0.2,31.8,0.3,47.7c0,2.2-1,3.3-3.3,3.3
		c-0.3,0-0.7,0-1,0.1C19.1,87.4,18.6,87.3,18,87.2z"/>
	<path class="st0" d="M90.8,62.9c0,0.6-0.7,1-1.2,1.5c-4.9,3.5-10.5,4.6-16.4,3.8c-4.6-0.6-8.9-2.1-13.2-3.7
		c-4.3-1.6-8.7-3.2-13.1-4.6c-4.9-1.5-10-2-15.1-0.4c-1.5,0.5-3,1.2-4.4,1.8c-0.2,0.1-0.5,0.2-0.8,0.4c0-2.5,0-4.8-0.1-7.1
		c-0.1-11.7-0.1-23.4-0.3-35.1c0-1.3,0.4-1.9,1.5-2.4c4.2-2.1,8.7-2.7,13.3-2.2c4.8,0.6,9.4,2.2,13.9,3.9c5,1.9,9.9,3.9,15.2,5
		c6.8,1.5,12.6-0.2,19-3.3c0.3-0.1,0.2-0.1,0.5-0.2c0.3-0.1,0.7-0.2,0.9-0.1c0.1,0.1,0.2,0.6,0.2,0.9"/>
</g>
<line class="st0" x1="90.7" y1="21.1" x2="90.8" y2="62.9"/>
</svg>
