<?xml version="1.0" encoding="utf-8"?>
<!-- Generator: Adobe Illustrator 25.0.0, SVG Export Plug-In . SVG Version: 6.00 Build 0)  -->
<svg version="1.1" id="Layer_1" xmlns="http://www.w3.org/2000/svg" xmlns:xlink="http://www.w3.org/1999/xlink" x="0px" y="0px"
	 viewBox="0 0 100 100" style="enable-background:new 0 0 100 100;" xml:space="preserve">
<g>
	<path d="M25.17,80.67c-1.27,0.15-2.42,0.24-3.56,0.44c-4.22,0.73-8.49-2.53-8.55-7.14c0-0.24-0.01-0.49-0.01-0.73
		c0-15.43,0.01-30.85-0.01-46.28c0-2.48,0.7-4.61,2.63-6.22c1.87-1.56,4.04-1.98,6.41-1.53c0.98,0.18,1.97,0.33,3.08,0.51
		c0-1.7-0.04-3.32,0.02-4.95c0.03-0.93,0.11-1.89,0.35-2.78c0.91-3.33,3.97-5.62,7.43-5.62c7.38-0.01,14.76,0.01,22.14-0.01
		c2.17-0.01,4.05,0.68,5.65,2.11c5.74,5.15,11.48,10.3,17.21,15.46c2.71,2.44,5.38,4.91,8.14,7.3c2.24,1.94,3.29,4.3,3.28,7.27
		c-0.03,15.61-0.01,31.22-0.03,46.82c0,0.87-0.06,1.77-0.26,2.61c-0.82,3.46-3.93,5.9-7.48,5.9c-16.22,0.01-32.43,0.01-48.65,0
		c-4.23,0-7.69-3.42-7.79-7.67C25.14,84.37,25.17,82.59,25.17,80.67z M83.5,38.26c-0.51,0-0.87,0-1.23,0
		c-7.04,0-14.09-0.08-21.13,0.03c-3.76,0.06-6.89-2.84-6.84-6.88c0.08-6.04,0.02-12.08,0.02-18.13c0-0.35,0-0.7,0-1.1
		c-0.44,0-0.74,0-1.04,0c-6.5,0-13,0-19.49,0c-2.09,0-2.74,0.64-2.74,2.7c0,23.47,0,46.94,0,70.41c0,2.02,0.67,2.7,2.66,2.7
		c15.7,0,31.4,0,47.09,0c2.07,0,2.69-0.63,2.69-2.73c0-15.3,0-30.61,0-45.91C83.5,39.04,83.5,38.71,83.5,38.26z M25.13,25.73
		c-1.32-0.23-2.54-0.43-3.76-0.66c-1.9-0.36-2.42,0.07-2.42,2.03c0,12.75,0,25.5,0,38.25c0,2.76-0.01,5.53,0,8.29
		c0,1.13,0.58,1.71,1.7,1.61c1.5-0.14,2.98-0.38,4.48-0.57C25.13,58.32,25.13,42.06,25.13,25.73z M60.28,15.77
		c-0.03,0.34-0.06,0.48-0.06,0.62c0,5.01,0.01,10.01-0.01,15.02c0,0.82,0.36,1.02,1.11,1.02c5.58-0.02,11.17-0.01,16.75-0.01
		c0.17,0,0.33-0.02,0.68-0.05C72.54,26.8,66.49,21.35,60.28,15.77z"/>
	<path d="M58.23,79.25c-3.79,0-7.59,0-11.38,0c-1.88,0-3.15-1.17-3.16-2.89c-0.01-1.72,1.27-2.94,3.11-2.94c7.71,0,15.42,0,23.13,0
		c1.53,0,2.73,1.07,2.94,2.57c0.19,1.34-0.71,2.72-2.09,3.14c-0.34,0.1-0.72,0.12-1.07,0.12C65.88,79.25,62.05,79.25,58.23,79.25z"
		/>
	<path d="M49.5,66.68c-1,0-2,0.02-3,0c-1.63-0.05-2.83-1.33-2.81-2.96c0.03-1.57,1.25-2.84,2.82-2.86c2-0.02,4-0.02,6.01,0
		c1.61,0.02,2.88,1.34,2.87,2.92c0,1.55-1.24,2.85-2.8,2.9C51.56,66.71,50.53,66.68,49.5,66.68z"/>
</g>
</svg>
