<?xml version="1.0" encoding="utf-8"?>
<!-- Generator: Adobe Illustrator 25.0.0, SVG Export Plug-In . SVG Version: 6.00 Build 0)  -->
<svg version="1.1" id="Layer_1" xmlns="http://www.w3.org/2000/svg" xmlns:xlink="http://www.w3.org/1999/xlink" x="0px" y="0px"
	 viewBox="0 0 100 100" style="enable-background:new 0 0 100 100;" xml:space="preserve">
<style type="text/css">
	.st0{fill:none;stroke:#000000;stroke-width:1.5;stroke-miterlimit:10;}
</style>
<g>
	<path class="st0" d="M29.22,91.88c-1.2-0.51-1.77-1.47-2.11-2.7C21.41,68.66,15.67,48.14,9.94,27.62c-0.07-0.25-0.2-0.48-0.31-0.71
		c0-0.6,0-1.2,0-1.8c0.55-1.27,1.37-2.26,2.8-2.58c2.03-0.46,3.75,0.64,4.36,2.8c1.51,5.4,3.02,10.8,4.53,16.21
		c4.28,15.32,8.55,30.64,12.83,45.96c0.6,2.15-0.14,3.45-2.3,4.05c-0.33,0.09-0.66,0.22-0.99,0.34
		C30.31,91.88,29.77,91.88,29.22,91.88z"/>
	<path class="st0" d="M30.83,65.07c-0.66-2.36-1.29-4.59-1.92-6.83c-3.15-11.28-6.27-22.57-9.51-33.82
		c-0.37-1.28-0.07-1.9,0.81-2.69c3.52-3.14,7.63-4.92,12.27-5.59c4.83-0.7,9.65-0.34,14.48,0.12c5.3,0.5,10.6,1.15,15.95,0.87
		c6.92-0.37,12.92-2.71,17.5-8.13c0.12-0.15,0.23-0.33,0.39-0.41c0.28-0.13,0.64-0.33,0.87-0.24c0.22,0.08,0.44,0.51,0.42,0.77
		c-0.07,1.14-0.19,2.27-0.35,3.4c-1.11,7.77-2.61,15.46-4.62,23.04c-0.21,0.78-0.04,1.38,0.59,1.96c4.41,3.97,9.24,7.32,14.53,10.01
		c0.91,0.46,1.13,0.86,0.86,1.83c-0.17,0.61-0.41,1.27-0.81,1.74c-3.86,4.65-8.88,7.2-14.84,7.99c-4.56,0.6-9.11,0.27-13.67-0.11
		c-4.6-0.39-9.21-0.86-13.82-0.98c-5.16-0.13-10.2,0.71-14.67,3.55c-1.35,0.85-2.54,1.94-3.8,2.93
		C31.29,64.62,31.11,64.81,30.83,65.07z"/>
</g>
</svg>
