<?xml version="1.0" encoding="utf-8"?>
<!-- Generator: Adobe Illustrator 25.0.0, SVG Export Plug-In . SVG Version: 6.00 Build 0)  -->
<svg version="1.1" id="Layer_1" xmlns="http://www.w3.org/2000/svg" xmlns:xlink="http://www.w3.org/1999/xlink" x="0px" y="0px"
	 viewBox="0 0 100 100" style="enable-background:new 0 0 100 100;" xml:space="preserve">
<style type="text/css">
	.st0{fill:none;stroke:#000000;stroke-width:3.9045;stroke-miterlimit:10;}
</style>
<path d="M9.66,44.11c2.77-5.56,5.55-11.12,8.32-16.69c0.84-1.69,1.7-3.36,2.51-5.06c0.62-1.3,1.6-1.9,3.05-1.9
	c17.59,0.01,35.18,0.02,52.76,0c1.49,0,2.44,0.64,3.09,1.96c3.43,6.94,6.9,13.86,10.32,20.81c0.3,0.61,0.46,1.35,0.47,2.02
	c0.03,9.7,0.02,19.4,0.02,29.1c0,2.15-1,3.16-3.18,3.16c-11.87,0-23.75,0-35.62,0c-12.79,0-25.58-0.01-38.37,0.02
	c-1.64,0-2.78-0.54-3.37-2.1C9.66,64.98,9.66,54.54,9.66,44.11z M84.7,47.66c-0.39,0-0.7,0-1.01,0c-4.98,0-9.96,0.02-14.94-0.02
	c-0.84-0.01-1.22,0.25-1.53,1.03c-1.51,3.85-3.91,7.03-7.37,9.35c-2.85,1.91-6.02,2.84-9.45,2.98c-3.55,0.14-6.92-0.48-10.05-2.23
	c-4.21-2.35-6.98-5.92-8.73-10.35c-0.22-0.57-0.49-0.78-1.13-0.78c-4.82,0.03-9.65,0.02-14.47,0.02c-0.28,0-0.55,0.03-0.85,0.04
	c0,8.14,0,16.2,0,24.28c23.2,0,46.35,0,69.52,0C84.7,63.87,84.7,55.83,84.7,47.66z M83.08,42.19c-0.14-0.32-0.23-0.56-0.34-0.78
	c-2.45-4.92-4.9-9.83-7.33-14.76c-0.27-0.54-0.57-0.74-1.19-0.74c-16.2,0.02-32.41,0.02-48.61,0c-0.58,0-0.88,0.18-1.13,0.7
	c-2.44,4.95-4.91,9.89-7.37,14.83c-0.11,0.22-0.19,0.45-0.32,0.75c0.41,0,0.69,0,0.98,0c5.06,0,10.12,0,15.18,0
	c1.8,0,2.66,0.7,3.15,2.42c0.75,2.63,1.93,5.03,3.85,7.02c2.24,2.32,4.97,3.58,8.19,3.84c3.01,0.25,5.84-0.24,8.42-1.86
	c3.31-2.07,5.14-5.21,6.24-8.85c0.58-1.93,1.36-2.58,3.35-2.58c5.32,0,10.64,0,15.97,0C82.4,42.19,82.68,42.19,83.08,42.19z"/>
</svg>
