<?xml version="1.0" encoding="utf-8"?>
<!-- Generator: Adobe Illustrator 25.0.0, SVG Export Plug-In . SVG Version: 6.00 Build 0)  -->
<svg version="1.1" id="Layer_1" xmlns="http://www.w3.org/2000/svg" xmlns:xlink="http://www.w3.org/1999/xlink" x="0px" y="0px"
	 viewBox="0 0 100 100" style="enable-background:new 0 0 100 100;" xml:space="preserve">
<style type="text/css">
	.st0{fill:none;stroke:#000000;stroke-width:3.7582;stroke-miterlimit:10;}
	.st1{fill:none;stroke:#000000;stroke-width:3.7582;stroke-linecap:round;stroke-linejoin:round;stroke-miterlimit:10;}
</style>
<g>
	<path d="M11.79,41.51c0.14-0.54,0.26-1.07,0.41-1.61c1.36-4.91,5.61-8.22,10.83-8.42c0.67-0.03,1.35-0.1,2,0.01
		c0.63,0.11,1.31,0.3,1.82,0.67c1.18,0.86,2.27,1.85,3.4,2.78c1.49,1.22,3.16,1.24,4.66,0.02c1.14-0.92,2.24-1.89,3.39-2.8
		c0.38-0.3,0.88-0.6,1.34-0.63c2.54-0.17,5.06-0.1,7.47,0.91c1.62,0.68,3.05,1.64,4.28,2.88c1.11,1.11,2.21,2.25,3.35,3.32
		c0.27,0.26,0.72,0.45,1.1,0.46c2,0.04,4-0.02,6,0.04c0.84,0.03,1.69,0.21,2.5,0.44c0.51,0.15,0.79,0.11,1.15-0.3
		c2.86-3.24,5.74-6.46,8.61-9.68c0.34-0.38,0.66-0.77,1.03-1.12c0.81-0.79,2.01-0.84,2.82-0.14c0.87,0.75,1,1.93,0.25,2.86
		c-0.63,0.79-1.33,1.53-2,2.28c-2.57,2.89-5.15,5.77-7.72,8.65c-0.16,0.18-0.3,0.36-0.44,0.53c1.25,2.8,1.04,5.39-0.97,7.71
		c-1.36,1.56-3.14,2.24-5.19,2.24c-3.09,0.01-6.19,0-9.28,0c-2.05,0-3.79-0.73-5.22-2.21c-0.83-0.86-1.69-1.7-2.54-2.55
		c-0.18-0.18-0.38-0.34-0.72-0.65c0,13.28,0,26.36,0,39.57c0.26,0,0.56,0,0.87,0c10.58,0,21.17,0,31.75,0
		c1.48,0,2.39,0.73,2.44,1.95c0.05,1.15-0.73,2.07-1.88,2.19c-0.26,0.03-0.53,0.01-0.8,0.01c-20.66,0-41.33-0.01-61.99,0.02
		c-1.29,0-2.23-0.37-2.72-1.62c0-0.32,0-0.64,0-0.96c0.48-1.19,1.37-1.69,2.64-1.6c0.56,0.04,1.12,0.01,1.68,0.01
		c1.65,0,3.29,0,4.98,0c0-6.83,0-13.59,0-20.38c-0.34,0.09-0.62,0.16-0.9,0.23c-3.59,0.88-7.16-1.21-8.15-4.77
		c-0.08-0.28-0.16-0.56-0.24-0.84C11.79,54.53,11.79,48.02,11.79,41.51z M39.85,86.76c0-0.41,0-0.73,0-1.05c0-5.12,0-10.24,0-15.36
		c0-7.52-0.01-15.04,0-22.56c0-1.97,0.87-3.44,2.7-4.24c1.67-0.73,3.49-0.31,4.91,1.09c0.95,0.94,1.91,1.86,2.82,2.83
		c0.67,0.71,1.45,1.04,2.42,1.03c3.01-0.01,6.03,0,9.04-0.01c0.42,0,0.86-0.06,1.25-0.2c1.18-0.42,1.82-1.62,1.6-2.89
		c-0.2-1.17-1.34-2.1-2.66-2.11c-2.4-0.02-4.8-0.03-7.2,0c-0.89,0.01-1.58-0.29-2.2-0.92c-1.32-1.36-2.67-2.68-4.01-4.02
		c-1.27-1.28-2.77-2.16-4.55-2.51c-1.87-0.37-3.7-0.51-5.11,1.21c-0.35,0.43-0.84,0.73-1.28,1.09c-3.11,2.52-6.94,2.51-10.04-0.01
		c-0.87-0.71-1.72-1.44-2.59-2.14c-0.2-0.16-0.45-0.31-0.69-0.33c-4.53-0.5-8.31,2.87-8.32,7.43c-0.01,4.99-0.01,9.97-0.01,14.96
		c0,0.72-0.02,1.44,0.01,2.16c0.05,1.43,1.18,2.5,2.6,2.5c1.44,0,2.49-1.04,2.53-2.52c0.03-0.85,0.06-1.7,0.06-2.56
		c0.01-3.87,0-7.73,0.01-11.6c0-0.37,0-0.75,0.07-1.12c0.16-0.94,0.93-1.61,1.88-1.65c1.33-0.07,2.19,0.83,2.19,2.36
		c0.01,5.28,0,10.55,0,15.83c0,8.19,0,16.37,0,24.56c0,0.25,0.02,0.51,0.03,0.76c1.77,0,3.44,0,5.18,0c0-0.35,0-0.67,0-0.98
		c0-7.95,0-15.89,0-23.84c0-0.29-0.02-0.59,0.02-0.88c0.12-0.97,0.91-1.72,1.86-1.79c1.01-0.08,1.86,0.47,2.14,1.43
		c0.11,0.38,0.13,0.79,0.13,1.18c0.01,7.97,0.01,15.95,0.01,23.92c0,0.31,0,0.62,0,0.96C36.42,86.76,38.09,86.76,39.85,86.76z"/>
	<path d="M88.12,9.03c0.3,0.08,0.61,0.17,0.91,0.25c2.79,0.73,4.67,3.13,4.68,6.04c0.02,4.8,0.01,9.6,0.01,14.4
		c0,8.96,0,17.92,0,26.88c0,4.21-2.58,6.8-6.76,6.8c-12.03,0-24.05,0-36.08,0c-0.4,0-0.81-0.02-1.19-0.11
		c-0.98-0.25-1.62-1.19-1.51-2.17c0.11-1.02,0.88-1.77,1.89-1.85c0.32-0.02,0.64-0.01,0.96-0.01c11.92,0,23.84,0,35.76,0
		c2.09,0,2.77-0.69,2.77-2.78c0-13.52,0-27.04,0-40.56c0-1.98-0.71-2.69-2.69-2.69c-13.07,0-26.14,0-39.2,0
		c-0.29,0-0.59,0.01-0.88-0.01c-1.04-0.05-1.84-0.68-2.03-1.59c-0.21-1.05,0.26-1.93,1.27-2.4c0.11-0.05,0.22-0.12,0.33-0.19
		C60.28,9.03,74.2,9.03,88.12,9.03z"/>
	<path d="M33.87,9.03c0.66,0.18,1.33,0.33,1.98,0.56c4.66,1.61,7.47,6.37,6.63,11.19c-0.84,4.83-5.15,8.42-10,8.32
		c-5.09-0.1-9.18-3.73-9.85-8.75c-0.71-5.28,2.9-10.22,8.16-11.16c0.18-0.03,0.35-0.11,0.52-0.16C32.17,9.03,33.02,9.03,33.87,9.03z
		 M32.61,13.19c-3.25-0.02-5.92,2.62-5.93,5.87c0,3.22,2.59,5.85,5.82,5.9c3.23,0.05,5.95-2.6,5.97-5.83
		C38.5,15.88,35.86,13.21,32.61,13.19z"/>
	<path d="M65.83,18.46c3.54,0,7.09-0.01,10.63,0.01c1.71,0.01,2.72,1.61,1.95,3.03c-0.46,0.85-1.22,1.12-2.14,1.12
		c-3.41-0.01-6.82,0-10.23,0c-3.57,0-7.14,0-10.71,0c-1.21,0-2.05-0.62-2.26-1.62c-0.29-1.37,0.65-2.52,2.13-2.53
		C58.74,18.45,62.28,18.46,65.83,18.46z"/>
	<path d="M60.47,27.86c1.7,0,3.41-0.01,5.11,0c1.41,0.01,2.34,0.86,2.33,2.08c-0.01,1.19-0.92,2.05-2.28,2.05
		c-3.46,0.02-6.92,0.02-10.39,0C53.88,31.98,53,31.11,53,29.9c0.01-1.21,0.9-2.03,2.27-2.04C57.01,27.84,58.74,27.86,60.47,27.86z"
		/>
</g>
</svg>
