<svg xmlns="http://www.w3.org/2000/svg" width="76.712" height="100.994" viewBox="0 0 76.712 100.994">
  <g id="Group_334" data-name="Group 334" transform="translate(-100 -1827.455)">
    <g id="Group_333" data-name="Group 333" transform="translate(100 1827.455)">
      <g id="Group_332" data-name="Group 332" transform="translate(11.189 0)">
        <path id="Path_477" data-name="Path 477" d="M261.158,1906.265a3.5,3.5,0,0,0,3.485-3.485v-35.35c0-12.468-1.4-20.811-4.552-27.051-4.327-8.576-11.935-12.924-22.615-12.924s-18.288,4.348-22.615,12.924c-3.148,6.24-4.552,14.583-4.552,27.051v35.35a3.5,3.5,0,0,0,3.485,3.485h2.5a3.5,3.5,0,0,0,3.485-3.485v-35.35c0-6.772.367-16.5,3.537-22.785,2.693-5.338,7.06-7.719,14.159-7.719s11.465,2.381,14.159,7.719c3.17,6.283,3.537,16.013,3.537,22.785v35.35a3.5,3.5,0,0,0,3.485,3.485Z" transform="translate(-210.309 -1827.455)" fill="#aaa"/>
      </g>
      <path id="Path_478" data-name="Path 478" d="M176.712,2270.95a4.749,4.749,0,0,1-4.735,4.736H104.735A4.749,4.749,0,0,1,100,2270.95v-52.325a4.749,4.749,0,0,1,4.735-4.735h67.241a4.749,4.749,0,0,1,4.735,4.735Z" transform="translate(-100 -2174.692)" fill="#aaa"/>
      <rect id="Rectangle_251" data-name="Rectangle 251" width="74.818" height="59.902" rx="29.951" transform="translate(0.947 39.197)" fill="#c4c4c4"/>
      <path id="Path_479" data-name="Path 479" d="M161.931,2213.89h-48.8a3.793,3.793,0,0,0-3.788,3.789v48.805Z" transform="translate(-108.391 -2174.692)" fill="#d3d3d3"/>
      <path id="Path_480" data-name="Path 480" d="M399.991,2372.646a9.944,9.944,0,1,0-19.888,0,9.119,9.119,0,0,0,4.2,7.867,2.014,2.014,0,0,1,.49,1.6l-2.146,11.264a.755.755,0,0,0,.77.929h13.26a.755.755,0,0,0,.77-.929l-2.146-11.264a2.015,2.015,0,0,1,.49-1.6A8.9,8.9,0,0,0,399.991,2372.646Z" transform="translate(-351.691 -2308.41)" fill="#7c7b84"/>
      <path id="Path_481" data-name="Path 481" d="M389.441,2390.375c0,4.245,3.744,7.047,3.744,7.047a7.48,7.48,0,0,0,.946.849c.156.093.205.588.107,1.1l-2.056,10.792a.755.755,0,0,0,.77.929h10.97a.756.756,0,0,0,.77-.929l-2.056-10.792c-.1-.511-.049-1.006.108-1.1a7.534,7.534,0,0,0,.945-.849,9.222,9.222,0,0,0,3.745-7.047,9,9,0,0,0-17.994,0Z" transform="translate(-360.082 -2325.192)" fill="#69696d"/>
    </g>
    <path id="Path_482" data-name="Path 482" d="M163.358,2262.637c.854,2.34-1.8,4.416-3.164,5.951-2.051,2.3-3.321,3.609-5.117,5.565-1.273,1.388-3.388,3.785-5.549,3.134-2.445-.738-2.55-3.867-2.562-5.942-.016-2.589-.555-6.755,1.09-8.958,1.556-2.084,4.271-1.706,6.625-1.78,2.418-.076,6.131-.3,7.766.874A2.444,2.444,0,0,1,163.358,2262.637Z" transform="translate(-42.115 -389.155)" fill="#e8e8e8"/>
  </g>
</svg>
