<svg xmlns="http://www.w3.org/2000/svg" width="94.458" height="99.857" viewBox="0 0 94.458 99.857">
  <g id="Group_4045" data-name="Group 4045" transform="translate(-1811.94 -176.881)">
    <g id="Group_335" data-name="Group 335" transform="translate(1859.895 176.881)">
      <path id="Path_483" data-name="Path 483" d="M2369.46,244.332a2.991,2.991,0,0,0,2.982-2.983V211.094c0-5.8.314-14.123,3.028-19.5,2.3-4.568,6.043-6.606,12.118-6.606s9.813,2.038,12.118,6.606c2.713,5.378,3.028,13.706,3.028,19.5v1.876a2.991,2.991,0,0,0,2.982,2.982h2.14a2.991,2.991,0,0,0,2.983-2.982v-1.876c0-10.672-1.2-17.812-3.9-23.152-3.7-7.34-10.215-11.061-19.355-11.061s-15.652,3.721-19.355,11.061c-2.694,5.341-3.9,12.481-3.9,23.152v30.255a2.991,2.991,0,0,0,2.983,2.983Z" transform="translate(-2364.336 -176.881)" fill="#aaa"/>
    </g>
    <g id="Group_337" data-name="Group 337" transform="translate(1811.94 223.849)">
      <g id="Group_336" data-name="Group 336" transform="translate(0 0)">
        <path id="Path_484" data-name="Path 484" d="M1877.6,766.745a4.065,4.065,0,0,1-4.053,4.053h-57.55a4.064,4.064,0,0,1-4.052-4.053V721.962a4.064,4.064,0,0,1,4.052-4.052h57.55a4.065,4.065,0,0,1,4.053,4.052Z" transform="translate(-1811.94 -717.91)" fill="#ffab15"/>
        <path id="Path_485" data-name="Path 485" d="M1824.515,717.91a3.246,3.246,0,0,0-3.242,3.242v44.783a3.246,3.246,0,0,0,3.242,3.243h57.55a3.247,3.247,0,0,0,3.243-3.243V721.152a3.247,3.247,0,0,0-3.243-3.242Z" transform="translate(-1820.463 -717.91)" fill="#ffc50b"/>
        <path id="Path_486" data-name="Path 486" d="M1866.287,717.91h-41.772a3.246,3.246,0,0,0-3.242,3.242v41.771Z" transform="translate(-1820.463 -717.91)" fill="#ffd91f"/>
        <path id="Path_487" data-name="Path 487" d="M2109.061,875.231a8.511,8.511,0,0,0-17.022,0,7.8,7.8,0,0,0,3.595,6.734,1.727,1.727,0,0,1,.419,1.371l-1.837,9.64a.647.647,0,0,0,.659.8h11.348a.646.646,0,0,0,.659-.8l-1.837-9.64a1.728,1.728,0,0,1,.42-1.371A7.615,7.615,0,0,0,2109.061,875.231Z" transform="translate(-2067.723 -853.801)" fill="#ffab15"/>
        <path id="Path_488" data-name="Path 488" d="M2101.382,893.1c0,3.633,3.2,6.031,3.2,6.031a6.417,6.417,0,0,0,.809.727c.134.08.176.5.092.941l-1.759,9.236a.647.647,0,0,0,.659.8h9.389a.647.647,0,0,0,.659-.8l-1.759-9.236c-.083-.437-.042-.861.092-.941a6.414,6.414,0,0,0,.81-.727,7.893,7.893,0,0,0,3.2-6.031,7.7,7.7,0,0,0-15.4,0Z" transform="translate(-2076.255 -870.856)" fill="#b76732"/>
      </g>
      <path id="Path_489" data-name="Path 489" d="M1872.919,766.353c.731,2-1.538,3.779-2.708,5.093-1.755,1.971-2.843,3.089-4.379,4.763-1.09,1.188-2.9,3.239-4.749,2.682-2.093-.632-2.182-3.31-2.192-5.085-.014-2.216-.475-5.781.933-7.667,1.332-1.784,3.656-1.46,5.67-1.524,2.07-.065,5.247-.253,6.647.748A2.092,2.092,0,0,1,1872.919,766.353Z" transform="translate(-1854.739 -760.508)" fill="#ffea94"/>
    </g>
  </g>
</svg>
