<svg xmlns="http://www.w3.org/2000/svg" xmlns:xlink="http://www.w3.org/1999/xlink" width="351.359" height="190.141" viewBox="0 0 351.359 190.141">
  <defs>
    <linearGradient id="linear-gradient" x1="0.5" x2="0.5" y2="1" gradientUnits="objectBoundingBox">
      <stop offset="0" stop-color="#89d859"/>
      <stop offset="1" stop-color="#06c06c"/>
    </linearGradient>
  </defs>
  <g id="Group_4046" data-name="Group 4046" transform="translate(-766.178 -606.625)">
    <g id="Group_338" data-name="Group 338" transform="translate(-923.94 459.119)">
      <g id="Group_335" data-name="Group 335" transform="translate(1885.116 176.881)">
        <path id="Path_483" data-name="Path 483" d="M2372.154,279.806a4.564,4.564,0,0,0,4.551-4.552V229.088c0-8.844.479-21.551,4.62-29.757,3.516-6.971,9.221-10.081,18.49-10.081s14.973,3.11,18.491,10.081c4.141,8.206,4.62,20.914,4.62,29.757v2.863a4.564,4.564,0,0,0,4.551,4.551h3.266a4.564,4.564,0,0,0,4.551-4.551v-2.863c0-16.284-1.834-27.179-5.945-35.329-5.65-11.2-15.588-16.878-29.535-16.878s-23.884,5.678-29.535,16.878c-4.111,8.149-5.945,19.045-5.945,35.329v46.166a4.565,4.565,0,0,0,4.552,4.552Z" transform="translate(-2364.336 -176.881)" fill="#aaa"/>
      </g>
      <g id="Group_337" data-name="Group 337" transform="translate(1811.94 248.551)">
        <g id="Group_336" data-name="Group 336" transform="translate(0 0)">
          <path id="Path_484" data-name="Path 484" d="M1912.125,792.429a6.2,6.2,0,0,1-6.184,6.185h-87.816a6.2,6.2,0,0,1-6.184-6.185V724.093a6.2,6.2,0,0,1,6.184-6.183h87.816a6.2,6.2,0,0,1,6.184,6.183Z" transform="translate(-1811.94 -717.91)" fill="#ffab15"/>
          <path id="Path_485" data-name="Path 485" d="M1826.22,717.91a4.954,4.954,0,0,0-4.948,4.948v68.335a4.954,4.954,0,0,0,4.948,4.948h87.816a4.954,4.954,0,0,0,4.948-4.948V722.857a4.954,4.954,0,0,0-4.948-4.948Z" transform="translate(-1820.037 -717.91)" fill="#ffc50b"/>
          <path id="Path_486" data-name="Path 486" d="M1889.961,717.91h-63.74a4.954,4.954,0,0,0-4.948,4.948V786.6Z" transform="translate(-1820.037 -717.91)" fill="#ffd91f"/>
          <path id="Path_487" data-name="Path 487" d="M2118.013,879.707a12.987,12.987,0,0,0-25.974,0,11.909,11.909,0,0,0,5.485,10.275,2.635,2.635,0,0,1,.64,2.093l-2.8,14.71a.987.987,0,0,0,1.006,1.214h17.316a.986.986,0,0,0,1.006-1.214l-2.8-14.71a2.637,2.637,0,0,1,.641-2.093A11.62,11.62,0,0,0,2118.013,879.707Z" transform="translate(-2054.934 -847.007)" fill="#ffab15"/>
          <path id="Path_488" data-name="Path 488" d="M2101.382,897.146c0,5.544,4.889,9.2,4.889,9.2a9.789,9.789,0,0,0,1.235,1.109c.2.122.269.768.14,1.435l-2.684,14.094a.988.988,0,0,0,1.006,1.214H2120.3a.987.987,0,0,0,1.005-1.214l-2.684-14.094c-.127-.667-.064-1.314.14-1.435a9.789,9.789,0,0,0,1.235-1.109s4.891-3.356,4.891-9.2a11.75,11.75,0,0,0-23.5,0Z" transform="translate(-2063.04 -863.209)" fill="#b76732"/>
        </g>
        <path id="Path_489" data-name="Path 489" d="M1880.341,767.3c1.115,3.056-2.347,5.767-4.132,7.772-2.678,3.007-4.337,4.713-6.682,7.268-1.664,1.813-4.425,4.943-7.247,4.092-3.193-.964-3.33-5.051-3.345-7.76-.021-3.382-.725-8.822,1.424-11.7,2.032-2.722,5.578-2.228,8.652-2.325,3.158-.1,8.007-.387,10.142,1.141A3.193,3.193,0,0,1,1880.341,767.3Z" transform="translate(-1852.599 -758.378)" fill="#ffea94"/>
      </g>
    </g>
    <g id="Group_339" data-name="Group 339" transform="translate(671.422 496.381)">
      <g id="Group_3998" data-name="Group 3998" transform="translate(364.554 269.918)">
        <path id="Path_18165" data-name="Path 18165" d="M306,211.043c-2.347-8.309-13.141-7.5-13.141-7.5l.3,5.778c6.24-1.078,10.121,6.237,10.121,6.237Z" transform="translate(-292.855 -203.519)" stroke="rgba(0,0,0,0)" stroke-miterlimit="10" stroke-width="1" fill="url(#linear-gradient)"/>
      </g>
      <g id="Group_3999" data-name="Group 3999" transform="translate(135.526 287.336)">
        <path id="Path_18166" data-name="Path 18166" d="M230.162,216.809c-2.344-8.309-13.138-7.5-13.138-7.5l.3,5.778c6.24-1.075,10.118,6.237,10.118,6.237Z" transform="translate(-217.024 -209.286)" stroke="rgba(0,0,0,0)" stroke-miterlimit="10" stroke-width="1" fill="url(#linear-gradient)"/>
      </g>
      <g id="Group_4000" data-name="Group 4000" transform="translate(271.28 164.97)">
        <path id="Path_18167" data-name="Path 18167" d="M265.506,183.76c12.522,3.793,20.314-10.649,20.314-10.649l-7.617-4.34c-3.727,8.846-16.231,7.822-16.231,7.822Z" transform="translate(-261.972 -168.771)" stroke="rgba(0,0,0,0)" stroke-miterlimit="10" stroke-width="1" fill="url(#linear-gradient)"/>
      </g>
      <g id="Group_4001" data-name="Group 4001" transform="translate(198.797 195.505)">
        <path id="Path_18168" data-name="Path 18168" d="M244.5,178.881c-5.826.619-6.524,7.937-6.524,7.937l3.9.462c-.006-4.3,5.331-6.059,5.331-6.059Z" transform="translate(-237.973 -178.881)" stroke="rgba(0,0,0,0)" stroke-miterlimit="10" stroke-width="1" fill="url(#linear-gradient)"/>
      </g>
      <g id="Group_4002" data-name="Group 4002" transform="translate(438.055 240.718)">
        <path id="Path_18169" data-name="Path 18169" d="M324.675,202.139c.846-5.8-6.068-8.288-6.068-8.288l-1.416,3.664c4.168,1.06,4.545,6.669,4.545,6.669Z" transform="translate(-317.191 -193.851)" stroke="rgba(0,0,0,0)" stroke-miterlimit="10" stroke-width="1" fill="url(#linear-gradient)"/>
      </g>
      <g id="Group_4003" data-name="Group 4003" transform="translate(231.839 110.881)">
        <path id="Path_18170" data-name="Path 18170" d="M256.4,159.153c.846-5.8-6.071-8.291-6.071-8.291l-1.414,3.664c4.165,1.063,4.546,6.669,4.546,6.669Z" transform="translate(-248.913 -150.862)" stroke="rgba(0,0,0,0)" stroke-miterlimit="10" stroke-width="1" fill="url(#linear-gradient)"/>
      </g>
      <g id="Group_4004" data-name="Group 4004" transform="translate(95.259 208.891)">
        <path id="Path_18171" data-name="Path 18171" d="M203.756,187.134c-1.048,9.091,11,11.3,11,11.3l2.175-5.95c-7.227-.655-8.27-9.166-8.27-9.166Z" transform="translate(-203.692 -183.313)" stroke="rgba(0,0,0,0)" stroke-miterlimit="10" stroke-width="1" fill="url(#linear-gradient)"/>
      </g>
      <g id="Group_4005" data-name="Group 4005" transform="translate(361.108 171.902)">
        <path id="Path_18172" data-name="Path 18172" d="M294.006,178.928c5.853.335,7.723-6.771,7.723-6.771l-3.772-1.09c-.692,4.243-6.243,5.116-6.243,5.116Z" transform="translate(-291.714 -171.066)" stroke="rgba(0,0,0,0)" stroke-miterlimit="10" stroke-width="1" fill="url(#linear-gradient)"/>
      </g>
      <g id="Group_4024" data-name="Group 4024" transform="translate(385.705 190.479)">
        <g id="Group_4010" data-name="Group 4010">
          <g id="Group_4007" data-name="Group 4007" transform="translate(0 12.67)">
            <g id="Group_4006" data-name="Group 4006">
              <path id="Path_18173" data-name="Path 18173" d="M309.52,181.883c0,.263-2.162.474-4.829.474s-4.832-.211-4.832-.474,2.162-.471,4.832-.471S309.52,181.623,309.52,181.883Z" transform="translate(-299.858 -181.412)" stroke="rgba(0,0,0,0)" stroke-miterlimit="10" stroke-width="1" fill="url(#linear-gradient)"/>
            </g>
          </g>
          <g id="Group_4009" data-name="Group 4009" transform="translate(14.322)">
            <g id="Group_4008" data-name="Group 4008">
              <path id="Path_18174" data-name="Path 18174" d="M305.071,177.217c.26,0,.471,2.2.471,4.9s-.211,4.9-.471,4.9-.471-2.2-.471-4.9S304.808,177.217,305.071,177.217Z" transform="translate(-304.6 -177.217)" stroke="rgba(0,0,0,0)" stroke-miterlimit="10" stroke-width="1" fill="url(#linear-gradient)"/>
            </g>
          </g>
        </g>
        <g id="Group_4015" data-name="Group 4015" transform="translate(14.654 12.356)">
          <g id="Group_4012" data-name="Group 4012" transform="translate(5.603)">
            <g id="Group_4011" data-name="Group 4011">
              <path id="Path_18175" data-name="Path 18175" d="M306.565,181.779c0-.26,2.162-.471,4.829-.471s4.832.211,4.832.471-2.162.471-4.832.471S306.565,182.039,306.565,181.779Z" transform="translate(-306.565 -181.308)" stroke="rgba(0,0,0,0)" stroke-miterlimit="10" stroke-width="1" fill="url(#linear-gradient)"/>
            </g>
          </g>
          <g id="Group_4014" data-name="Group 4014" transform="translate(0 3.809)">
            <g id="Group_4013" data-name="Group 4013">
              <path id="Path_18176" data-name="Path 18176" d="M305.181,192.373c-.26,0-.471-2.2-.471-4.9s.211-4.9.471-4.9.471,2.2.471,4.9S305.441,192.373,305.181,192.373Z" transform="translate(-304.71 -182.569)" stroke="rgba(0,0,0,0)" stroke-miterlimit="10" stroke-width="1" fill="url(#linear-gradient)"/>
            </g>
          </g>
        </g>
        <g id="Group_4017" data-name="Group 4017" transform="translate(19.461 16.197)">
          <g id="Group_4016" data-name="Group 4016">
            <path id="Path_18177" data-name="Path 18177" d="M309.776,186.715c-.2.166-1.133-.619-2.081-1.755s-1.555-2.193-1.356-2.359,1.133.619,2.081,1.755S309.976,186.549,309.776,186.715Z" transform="translate(-306.301 -182.58)" stroke="rgba(0,0,0,0)" stroke-miterlimit="10" stroke-width="1" fill="url(#linear-gradient)"/>
          </g>
        </g>
        <g id="Group_4019" data-name="Group 4019" transform="translate(18.885 5.399)">
          <g id="Group_4018" data-name="Group 4018">
            <path id="Path_18178" data-name="Path 18178" d="M309.709,179.036c.184.181-.462,1.136-1.447,2.129s-1.933,1.649-2.12,1.468.465-1.139,1.45-2.132S309.525,178.851,309.709,179.036Z" transform="translate(-306.111 -179.005)" stroke="rgba(0,0,0,0)" stroke-miterlimit="10" stroke-width="1" fill="url(#linear-gradient)"/>
          </g>
        </g>
        <g id="Group_4021" data-name="Group 4021" transform="translate(7.986 6.354)">
          <g id="Group_4020" data-name="Group 4020">
            <path id="Path_18179" data-name="Path 18179" d="M305.927,182.194c-.169.2-1.063-.272-2-1.051s-1.564-1.577-1.4-1.776,1.063.269,2,1.051S306.093,181.991,305.927,182.194Z" transform="translate(-302.502 -179.321)" stroke="rgba(0,0,0,0)" stroke-miterlimit="10" stroke-width="1" fill="url(#linear-gradient)"/>
          </g>
        </g>
        <g id="Group_4023" data-name="Group 4023" transform="translate(7.7 15.765)">
          <g id="Group_4022" data-name="Group 4022">
            <path id="Path_18180" data-name="Path 18180" d="M305.683,182.465c.193.178-.377,1.114-1.271,2.1s-1.773,1.634-1.966,1.459.374-1.115,1.268-2.1S305.49,182.29,305.683,182.465Z" transform="translate(-302.408 -182.437)" stroke="rgba(0,0,0,0)" stroke-miterlimit="10" stroke-width="1" fill="url(#linear-gradient)"/>
          </g>
        </g>
      </g>
      <g id="Group_4043" data-name="Group 4043" transform="translate(122.596 163.557)">
        <g id="Group_4029" data-name="Group 4029">
          <g id="Group_4026" data-name="Group 4026" transform="translate(0 12.67)">
            <g id="Group_4025" data-name="Group 4025">
              <path id="Path_18181" data-name="Path 18181" d="M222.4,172.969c0,.263-2.165.474-4.832.474s-4.829-.211-4.829-.474,2.163-.471,4.829-.471S222.4,172.709,222.4,172.969Z" transform="translate(-212.743 -172.498)" stroke="rgba(0,0,0,0)" stroke-miterlimit="10" stroke-width="1" fill="url(#linear-gradient)"/>
            </g>
          </g>
          <g id="Group_4028" data-name="Group 4028" transform="translate(14.319)">
            <g id="Group_4027" data-name="Group 4027">
              <path id="Path_18182" data-name="Path 18182" d="M217.955,168.3c.263,0,.474,2.2.474,4.9s-.211,4.9-.474,4.9-.471-2.193-.471-4.9S217.7,168.3,217.955,168.3Z" transform="translate(-217.484 -168.303)" stroke="rgba(0,0,0,0)" stroke-miterlimit="10" stroke-width="1" fill="url(#linear-gradient)"/>
            </g>
          </g>
        </g>
        <g id="Group_4034" data-name="Group 4034" transform="translate(14.654 12.356)">
          <g id="Group_4031" data-name="Group 4031" transform="translate(5.603)">
            <g id="Group_4030" data-name="Group 4030">
              <path id="Path_18183" data-name="Path 18183" d="M219.45,172.865c0-.26,2.163-.471,4.829-.471s4.832.211,4.832.471-2.162.471-4.832.471S219.45,173.125,219.45,172.865Z" transform="translate(-219.45 -172.394)" stroke="rgba(0,0,0,0)" stroke-miterlimit="10" stroke-width="1" fill="url(#linear-gradient)"/>
            </g>
          </g>
          <g id="Group_4033" data-name="Group 4033" transform="translate(0 3.809)">
            <g id="Group_4032" data-name="Group 4032">
              <path id="Path_18184" data-name="Path 18184" d="M218.066,183.459c-.26,0-.471-2.193-.471-4.9s.211-4.9.471-4.9.471,2.2.471,4.9S218.326,183.459,218.066,183.459Z" transform="translate(-217.595 -173.655)" stroke="rgba(0,0,0,0)" stroke-miterlimit="10" stroke-width="1" fill="url(#linear-gradient)"/>
            </g>
          </g>
        </g>
        <g id="Group_4036" data-name="Group 4036" transform="translate(19.461 16.197)">
          <g id="Group_4035" data-name="Group 4035">
            <path id="Path_18185" data-name="Path 18185" d="M222.658,177.8c-.2.166-1.13-.619-2.078-1.755s-1.555-2.193-1.356-2.359,1.13.619,2.081,1.755S222.858,177.635,222.658,177.8Z" transform="translate(-219.186 -173.666)" stroke="rgba(0,0,0,0)" stroke-miterlimit="10" stroke-width="1" fill="url(#linear-gradient)"/>
          </g>
        </g>
        <g id="Group_4038" data-name="Group 4038" transform="translate(18.884 5.399)">
          <g id="Group_4037" data-name="Group 4037">
            <path id="Path_18186" data-name="Path 18186" d="M222.594,170.122c.184.181-.465,1.136-1.45,2.129s-1.933,1.649-2.117,1.468.462-1.139,1.447-2.132S222.407,169.937,222.594,170.122Z" transform="translate(-218.996 -170.091)" stroke="rgba(0,0,0,0)" stroke-miterlimit="10" stroke-width="1" fill="url(#linear-gradient)"/>
          </g>
        </g>
        <g id="Group_4040" data-name="Group 4040" transform="translate(7.986 6.354)">
          <g id="Group_4039" data-name="Group 4039">
            <path id="Path_18187" data-name="Path 18187" d="M218.809,173.28c-.166.2-1.06-.272-2-1.051s-1.561-1.574-1.4-1.776,1.063.272,2,1.051S218.975,173.077,218.809,173.28Z" transform="translate(-215.387 -170.407)" stroke="rgba(0,0,0,0)" stroke-miterlimit="10" stroke-width="1" fill="url(#linear-gradient)"/>
          </g>
        </g>
        <g id="Group_4042" data-name="Group 4042" transform="translate(7.698 15.765)">
          <g id="Group_4041" data-name="Group 4041">
            <path id="Path_18188" data-name="Path 18188" d="M218.566,173.551c.193.178-.375,1.114-1.269,2.1s-1.776,1.634-1.969,1.459.378-1.114,1.272-2.1S218.376,173.376,218.566,173.551Z" transform="translate(-215.292 -173.523)" stroke="rgba(0,0,0,0)" stroke-miterlimit="10" stroke-width="1" fill="url(#linear-gradient)"/>
          </g>
        </g>
      </g>
    </g>
  </g>
</svg>
