<?xml version="1.0" encoding="utf-8"?>
<!-- Generator: Adobe Illustrator 25.0.0, SVG Export Plug-In . SVG Version: 6.00 Build 0)  -->
<svg version="1.1" id="Layer_1" xmlns="http://www.w3.org/2000/svg" xmlns:xlink="http://www.w3.org/1999/xlink" x="0px" y="0px"
	 viewBox="0 0 100 100" style="enable-background:new 0 0 100 100;" xml:space="preserve">
<g>
	<path d="M62.74,94.43c-0.35,0-0.69,0-1.04,0c-0.53-0.38-1.12-0.71-1.58-1.16c-3.18-3.14-6.34-6.32-9.5-9.48
		c-0.22-0.22-0.45-0.43-0.71-0.67c-0.26,0.25-0.49,0.46-0.72,0.68c-3.06,3.06-6.12,6.13-9.19,9.18c-0.53,0.52-1.13,0.97-1.7,1.45
		c-0.4,0-0.81,0-1.21,0c-0.71-0.49-1.53-1.01-1.34-1.99c0.12-0.65,0.49-1.36,0.96-1.84c3.52-3.59,7.08-7.12,10.63-10.68
		c0.21-0.21,0.48-0.5,0.49-0.76c0.04-1.63,0.02-3.27,0.02-4.98c-0.44,0-0.79,0-1.13,0c-7.48,0-14.95,0-22.43,0
		c-3.58,0-7.16,0.01-10.74-0.02c-1.79-0.02-3.32-1.21-3.75-2.91c-0.16-0.63-0.19-1.31-0.19-1.97C9.62,53.87,9.62,38.45,9.62,23.04
		c0-0.37,0-0.74,0-1.15c-2.26-0.18-3.46-1.5-4.05-3.5c0-1.73,0-3.46,0-5.2c1.2-2.88,2.08-3.45,5.32-3.45c11.31,0,22.63,0,33.94,0
		c0.34,0,0.68,0,0.99,0c0.5-2.61,1.95-3.99,4.1-3.99c2.14,0,3.58,1.37,4.1,3.99c0.32,0,0.65,0,0.99,0c11.6,0,23.21,0,34.81,0
		c2.57,0,4.33,1.63,4.41,4.1c0.04,1.33,0.05,2.66,0,3.98c-0.08,2.11-1.45,3.63-3.51,4c-0.16,0.03-0.31,0.08-0.5,0.12
		c0,0.42,0,0.79,0,1.17c0,15.38,0,30.76-0.01,46.14c0,0.69-0.04,1.4-0.22,2.05c-0.5,1.84-2.04,2.86-4.22,2.86
		c-10.91,0.01-21.82,0-32.73,0c-0.33,0-0.67,0-1.07,0c0,1.59-0.03,3.06,0.02,4.52c0.02,0.41,0.21,0.9,0.49,1.19
		c1.58,1.64,3.21,3.24,4.82,4.85c2.02,2.02,4.05,4.03,6.06,6.06c1,1.01,1,2.28,0.03,3.11C63.19,94.1,62.96,94.26,62.74,94.43z
		 M13.73,70.09c24.18,0,48.27,0,72.35,0c0-16.1,0-32.14,0-48.18c-24.14,0-48.23,0-72.35,0C13.73,37.99,13.73,54.01,13.73,70.09z
		 M9.74,17.75c26.85,0,53.59,0,80.35,0c0-1.31,0-2.57,0-3.84c-26.81,0-53.57,0-80.35,0C9.74,15.22,9.74,16.45,9.74,17.75z"/>
	<path d="M45.93,44.02c0,3.2,0.01,6.41,0,9.61c-0.01,2.77-1.63,4.43-4.39,4.43c-5.14,0.01-10.28,0.01-15.42,0
		c-2.76-0.01-4.41-1.66-4.41-4.42c-0.01-6.44-0.01-12.87,0-19.31c0-2.78,1.69-4.47,4.49-4.48c5.08-0.01,10.16-0.01,15.24,0
		c2.83,0.01,4.49,1.7,4.49,4.56C45.93,37.62,45.93,40.82,45.93,44.02z M41.76,54.02c0-6.71,0-13.35,0-20.01c-5.33,0-10.6,0-15.89,0
		c0,6.69,0,13.33,0,20.01C31.18,54.02,36.43,54.02,41.76,54.02z"/>
	<path d="M66.07,37.95c3.29,0,6.58-0.01,9.87,0.01c1.57,0.01,2.51,1.26,2.05,2.65c-0.24,0.71-0.75,1.15-1.48,1.31
		c-0.28,0.06-0.57,0.06-0.86,0.06c-6.41,0-12.81,0-19.22,0.01c-1,0-1.85-0.24-2.29-1.2c-0.63-1.37,0.36-2.81,1.98-2.82
		c2.8-0.03,5.6-0.01,8.4-0.01C65.03,37.95,65.55,37.95,66.07,37.95z"/>
	<path d="M65.94,58.07c-3.29,0-6.58,0-9.87,0c-0.9,0-1.57-0.39-1.94-1.19c-0.35-0.74-0.22-1.46,0.3-2.1
		c0.5-0.62,1.19-0.73,1.94-0.73c4.27,0.01,8.54,0,12.81,0.01c2.31,0,4.62-0.01,6.92,0.02c1.06,0.01,1.77,0.68,1.97,1.71
		c0.15,0.81-0.34,1.77-1.17,2.09c-0.42,0.16-0.9,0.19-1.35,0.19C72.35,58.08,69.15,58.07,65.94,58.07
		C65.94,58.07,65.94,58.07,65.94,58.07z"/>
	<path d="M61.99,33.96c-1.91,0-3.81,0.02-5.72-0.01c-1.71-0.02-2.74-1.37-2.17-2.79c0.37-0.92,1.15-1.29,2.06-1.3
		c3.9-0.03,7.79-0.04,11.69,0c1.36,0.02,2.19,0.89,2.18,2.07c-0.02,1.2-0.91,2-2.33,2.01C65.8,33.98,63.89,33.96,61.99,33.96z"/>
	<path d="M59.89,50.07c-1.24,0-2.48,0.03-3.72-0.01c-1.21-0.04-1.95-0.65-2.17-1.72c-0.17-0.8,0.26-1.72,1.05-2.08
		c0.41-0.18,0.88-0.29,1.33-0.29c2.42-0.03,4.85-0.02,7.28-0.01c0.98,0.01,1.82,0.32,2.23,1.31c0.32,0.77,0.23,1.57-0.4,2.06
		c-0.5,0.39-1.22,0.65-1.86,0.7C62.38,50.14,61.13,50.07,59.89,50.07z"/>
</g>
</svg>
