<?xml version="1.0" encoding="utf-8"?>
<!-- Generator: Adobe Illustrator 25.0.0, SVG Export Plug-In . SVG Version: 6.00 Build 0)  -->
<svg version="1.1" id="Layer_1" xmlns="http://www.w3.org/2000/svg" xmlns:xlink="http://www.w3.org/1999/xlink" x="0px" y="0px"
	 viewBox="0 0 100 100" style="enable-background:new 0 0 100 100;" xml:space="preserve">
<style type="text/css">
	.st0{fill:none;stroke:#000000;stroke-width:3.9045;stroke-miterlimit:10;}
</style>
<path d="M6.87,27.68c0.44-1.68,1.12-3.22,2.45-4.41c1.44-1.28,3.1-1.99,5.04-1.99c23.75,0,47.5-0.01,71.26,0
	c4.13,0,7.5,3.36,7.5,7.49c0.01,15.22,0.01,30.44,0,45.66c0,4.13-3.37,7.5-7.5,7.5c-23.75,0.01-47.5,0.01-71.26,0
	c-3.43,0-6.43-2.39-7.3-5.76c-0.06-0.21-0.13-0.42-0.19-0.64C6.87,59.58,6.87,43.63,6.87,27.68z M15.73,26.36
	c0.21,0.24,0.32,0.37,0.43,0.49C26.74,37.46,37.32,48.08,47.91,58.7c1.24,1.24,2.99,1.21,4.27-0.07
	C62.7,48.07,73.22,37.51,83.73,26.95c0.16-0.16,0.29-0.35,0.49-0.59C61.36,26.36,38.63,26.36,15.73,26.36z M15.72,76.82
	c22.92,0,45.67,0,68.55,0C77,69.63,69.82,62.53,62.51,55.3c-0.09,0.12-0.24,0.4-0.45,0.62c-2.11,2.14-4.22,4.27-6.36,6.38
	c-2.17,2.14-4.78,2.81-7.73,2.11c-1.52-0.36-2.76-1.19-3.85-2.29c-2.27-2.28-4.57-4.55-6.75-6.71C30.18,62.53,23,69.63,15.72,76.82z
	 M11.97,72.86c7.1-7.01,14.33-14.15,21.61-21.35c-7.22-7.14-14.43-14.27-21.61-21.38C11.97,44.41,11.97,58.79,11.97,72.86z
	 M88,73.05c0-14.24,0-28.63,0-42.66c-7.06,6.98-14.29,14.12-21.58,21.32C73.63,58.85,80.84,65.97,88,73.05z"/>
</svg>
