<?xml version="1.0" encoding="utf-8"?>
<!-- Generator: Adobe Illustrator 25.0.0, SVG Export Plug-In . SVG Version: 6.00 Build 0)  -->
<svg version="1.1" id="Layer_1" xmlns="http://www.w3.org/2000/svg" xmlns:xlink="http://www.w3.org/1999/xlink" x="0px" y="0px"
	 viewBox="0 0 100 100" style="enable-background:new 0 0 100 100;" xml:space="preserve">
<style type="text/css">
	.st0{fill:none;stroke:#000000;stroke-width:3.9045;stroke-miterlimit:10;}
</style>
<path d="M62.69,91.47c-0.95-0.47-1.52-1.28-2.04-2.17c-5.39-9.31-10.79-18.61-16.22-27.89c-0.83-1.41-0.8-2.62,0.21-3.93
	c1.81-2.34,3.54-4.74,5.22-7.22c-0.16,0.09-0.34,0.17-0.49,0.29c-2.29,1.7-4.59,3.39-6.87,5.1c-1.14,0.86-2.27,0.93-3.51,0.2
	c-9.55-5.57-19.1-11.13-28.66-16.67c-1.14-0.66-1.79-1.56-1.61-2.89c0.17-1.22,0.96-1.89,2.11-2.27
	c18.55-6.05,37.1-12.12,55.64-18.19c6.91-2.26,13.83-4.52,20.74-6.79c2.21-0.72,3.09-0.39,4.26,1.59c0,0.49,0,0.97,0,1.46
	c-0.11,0.24-0.24,0.47-0.32,0.72c-8.3,25.38-16.6,50.75-24.87,76.14c-0.38,1.18-0.95,2.08-2.14,2.52
	C63.66,91.47,63.18,91.47,62.69,91.47z M17.98,37.34c0.16,0.14,0.22,0.2,0.28,0.24c7.23,4.2,14.46,8.4,21.68,12.62
	c0.46,0.27,0.71,0.12,1.06-0.14c5.22-3.89,10.46-7.78,15.69-11.66c1.66-1.24,3.31-2.49,5-3.7c1.75-1.25,3.98-0.35,4.33,1.73
	c0.17,0.99-0.34,1.76-0.89,2.5c-5,6.72-9.98,13.45-14.99,20.15c-0.37,0.5-0.35,0.83-0.05,1.34c4.1,7.01,8.18,14.04,12.26,21.06
	c0.12,0.21,0.27,0.42,0.47,0.73c7.27-22.25,14.5-44.38,21.77-66.63C62.29,22.86,40.18,30.09,17.98,37.34z"/>
<path d="M37.7,65.39c-0.33,0.62-0.53,1.37-1,1.84c-5.85,5.91-11.74,11.79-17.63,17.66c-1.13,1.12-2.76,1.13-3.83,0.08
	c-1.1-1.07-1.09-2.73,0.06-3.89c5.86-5.87,11.72-11.73,17.59-17.59c0.85-0.85,1.86-1.05,2.96-0.64
	C36.87,63.23,37.5,64.18,37.7,65.39z"/>
<path d="M25.05,59.09c-0.33,0.62-0.55,1.35-1.02,1.83c-2.26,2.35-4.57,4.64-6.9,6.92c-1.15,1.13-2.76,1.1-3.83,0.03
	c-1.06-1.06-1.06-2.71,0.05-3.83c2.29-2.32,4.6-4.62,6.91-6.91c0.85-0.84,1.86-1.05,2.97-0.61C24.24,56.93,24.86,57.89,25.05,59.09z
	"/>
<path d="M40.78,75.28c1.54,0.05,2.37,0.58,2.83,1.6c0.47,1.05,0.32,2.08-0.48,2.92c-1.27,1.32-2.58,2.6-3.87,3.9
	c-1.03,1.03-2.05,2.07-3.09,3.08c-1.15,1.12-2.76,1.17-3.83,0.14c-1.12-1.08-1.16-2.71,0-3.89c2.28-2.32,4.58-4.64,6.93-6.9
	C39.73,75.66,40.46,75.44,40.78,75.28z"/>
</svg>
