<svg xmlns="http://www.w3.org/2000/svg" xmlns:xlink="http://www.w3.org/1999/xlink" width="31.046" height="30.312" viewBox="0 0 31.046 30.312">
  <defs>
    <clipPath id="clip-path">
      <path id="Path_77" data-name="Path 77" d="M0,2.624H31.046V-27.688H0Z" transform="translate(0 27.688)" fill="#1a1a1a"/>
    </clipPath>
  </defs>
  <g id="Group_53" data-name="Group 53" clip-path="url(#clip-path)">
    <g id="Group_47" data-name="Group 47" transform="translate(1.793 0)">
      <path id="Path_71" data-name="Path 71" d="M1.814,2.258a2.062,2.062,0,0,1-.955-.235L-5.217-1.144a.418.418,0,0,0-.381,0l-6.076,3.166a2.05,2.05,0,0,1-2.157-.154,2.009,2.009,0,0,1-.815-1.985l1.16-6.705a.4.4,0,0,0-.117-.359l-4.916-4.749a2,2,0,0,1-.518-2.08,2.028,2.028,0,0,1,1.652-1.381l6.793-.979a.408.408,0,0,0,.309-.222l3.038-6.1a2.036,2.036,0,0,1,1.836-1.132,2.036,2.036,0,0,1,1.836,1.132l3.038,6.1a.406.406,0,0,0,.308.222l6.794.979A2.028,2.028,0,0,1,8.22-14.01,2,2,0,0,1,7.7-11.93L2.787-7.181a.407.407,0,0,0-.118.359L3.829-.117a2,2,0,0,1-.815,1.985,2.05,2.05,0,0,1-1.2.39M-5.407-2.813a2.058,2.058,0,0,1,.952.233L1.621.586A.4.4,0,0,0,2.052.554a.392.392,0,0,0,.163-.4L1.055-6.547a2.018,2.018,0,0,1,.589-1.8l4.916-4.749a.392.392,0,0,0,.1-.416.4.4,0,0,0-.331-.276l-6.793-.979A2.044,2.044,0,0,1-2-15.873l-3.038-6.1h0a.4.4,0,0,0-.367-.227.4.4,0,0,0-.367.227l-3.038,6.1a2.043,2.043,0,0,1-1.543,1.11l-6.792.979a.4.4,0,0,0-.331.276.392.392,0,0,0,.1.416l4.916,4.749a2.018,2.018,0,0,1,.589,1.8L-13.03.158a.392.392,0,0,0,.163.4.4.4,0,0,0,.431.031L-6.36-2.58a2.058,2.058,0,0,1,.952-.233" transform="translate(19.137 23.824)" fill="#1a1a1a"/>
    </g>
    <g id="Group_48" data-name="Group 48" transform="translate(22.921 0.976)">
      <path id="Path_72" data-name="Path 72" d="M.071.243A.819.819,0,0,1-.41.088.807.807,0,0,1-.592-1.045L.278-2.231a.823.823,0,0,1,1.144-.18A.805.805,0,0,1,1.6-1.277L.734-.092A.821.821,0,0,1,.071.243" transform="translate(0.747 2.566)" fill="#1a1a1a"/>
    </g>
    <g id="Group_49" data-name="Group 49" transform="translate(5.614 0.971)">
      <path id="Path_73" data-name="Path 73" d="M.146.243A.821.821,0,0,1-.517-.092l-.869-1.186A.805.805,0,0,1-1.2-2.411a.822.822,0,0,1,1.143.178L.807-1.045A.806.806,0,0,1,.627.088.819.819,0,0,1,.146.243" transform="translate(1.543 2.566)" fill="#1a1a1a"/>
    </g>
    <g id="Group_50" data-name="Group 50" transform="translate(0 17.65)">
      <path id="Path_74" data-name="Path 74" d="M.071.18A.817.817,0,0,1-.707-.382.81.81,0,0,1-.182-1.4l1.407-.453a.82.82,0,0,1,1.031.521A.811.811,0,0,1,1.731-.313L.324.139A.809.809,0,0,1,.071.18" transform="translate(0.748 1.897)" fill="#1a1a1a"/>
    </g>
    <g id="Group_51" data-name="Group 51" transform="translate(14.704 27.223)">
      <path id="Path_75" data-name="Path 75" d="M.071.267A.815.815,0,0,1-.748-.544V-2.01a.816.816,0,0,1,.819-.812A.816.816,0,0,1,.89-2.01V-.544A.815.815,0,0,1,.071.267" transform="translate(0.748 2.822)" fill="#1a1a1a"/>
    </g>
    <g id="Group_52" data-name="Group 52" transform="translate(28.001 17.651)">
      <path id="Path_76" data-name="Path 76" d="M.193.18A.846.846,0,0,1-.06.14L-1.467-.313a.811.811,0,0,1-.525-1.024A.82.82,0,0,1-.961-1.858L.446-1.4A.81.81,0,0,1,.971-.382.817.817,0,0,1,.193.18" transform="translate(2.033 1.897)" fill="#1a1a1a"/>
    </g>
  </g>
</svg>
