<?xml version="1.0" encoding="utf-8"?>
<!-- Generator: Adobe Illustrator 25.0.0, SVG Export Plug-In . SVG Version: 6.00 Build 0)  -->
<svg version="1.1" id="Layer_1" xmlns="http://www.w3.org/2000/svg" xmlns:xlink="http://www.w3.org/1999/xlink" x="0px" y="0px"
	 viewBox="0 0 100 100" style="enable-background:new 0 0 100 100;" xml:space="preserve">
<g>
	<path d="M27.03,73.33c-1.22,0-2.36,0.07-3.48-0.01c-7.38-0.55-13.32-6.68-13.39-14.11c-0.1-11.55-0.11-23.1,0-34.65
		c0.07-7.78,6.57-14.14,14.34-14.17c17.04-0.05,34.09-0.05,51.13,0c7.82,0.02,14.31,6.37,14.38,14.21c0.11,11.52,0.11,23.05,0,34.57
		c-0.08,7.98-6.65,14.2-14.78,14.23c-7.25,0.02-14.49,0.01-21.74-0.01c-0.6,0-1.03,0.16-1.46,0.59c-4.8,4.81-9.63,9.6-14.44,14.39
		c-1.72,1.71-3.74,2.37-6.11,1.68c-2.78-0.81-4.43-3.07-4.45-6.07c-0.02-3.21,0-6.43,0-9.64C27.03,74.07,27.03,73.79,27.03,73.33z
		 M50.14,14.21c-8.47,0-16.94-0.02-25.4,0.01c-5.48,0.01-10.05,4.03-10.65,9.46c-0.22,2.02-0.13,4.08-0.13,6.12
		c-0.01,9.64-0.02,19.28,0,28.91c0.01,5.71,4.21,10.32,9.85,10.79c1.66,0.14,3.34,0.07,5.01,0.08c0.84,0.01,1.52,0.31,1.85,1.12
		c0.15,0.38,0.18,0.83,0.18,1.24c0.01,3.98,0,7.97,0.01,11.95c0,1.42,0.68,2.31,1.9,2.56c0.94,0.19,1.62-0.26,2.26-0.89
		c4.96-4.95,9.95-9.88,14.89-14.85c0.79-0.79,1.61-1.15,2.74-1.15c7.46,0.04,14.92,0.02,22.38,0.02c6.53,0,11.21-4.67,11.21-11.18
		c0-11.02,0.01-22.04,0-33.06c0-6.46-4.7-11.14-11.17-11.14C66.75,14.21,58.44,14.21,50.14,14.21z"/>
	<path d="M71.79,41.92c-0.02,12.01-9.76,21.71-21.75,21.68c-12-0.03-21.71-9.79-21.65-21.78c0.05-11.98,9.75-21.66,21.71-21.65
		C62.1,20.19,71.81,29.93,71.79,41.92z M67.97,41.93c0.02-9.88-7.92-17.87-17.82-17.93c-9.84-0.06-17.89,7.93-17.94,17.81
		c-0.05,9.9,7.96,17.95,17.86,17.96C59.95,59.79,67.94,51.82,67.97,41.93z"/>
	<path d="M49.61,31.39c1.74,0.04,3.13,0.31,4.39,1.09c2.04,1.27,2.78,3.5,1.9,5.73c-0.53,1.35-1.42,2.44-2.56,3.29
		c-1.41,1.06-2.32,2.3-2.15,4.16c0.05,0.57-0.31,0.92-0.85,1.11c-1.56,0.53-2.52-0.1-2.57-1.73c-0.06-2,0.62-3.68,2.24-4.93
		c0.63-0.49,1.24-1,1.78-1.58c0.61-0.65,0.88-1.46,0.53-2.35c-0.36-0.91-1.15-1.19-2.03-1.29c-1.39-0.15-2.55,0.17-3.35,1.46
		c-0.55,0.87-1.2,1.02-2.04,0.63c-0.79-0.37-1.16-1.14-0.9-2.06c0.57-2.01,2.15-2.86,4.01-3.31C48.61,31.45,49.26,31.43,49.61,31.39
		z"/>
	<path d="M47.48,50.35c0.01-1.12,0.94-2.04,2.02-2.01c1.06,0.03,1.97,0.94,1.98,2c0.02,1.08-0.93,2.04-2.01,2.05
		C48.39,52.4,47.47,51.47,47.48,50.35z"/>
</g>
</svg>
