<?xml version="1.0" encoding="utf-8"?>
<!-- Generator: Adobe Illustrator 25.0.0, SVG Export Plug-In . SVG Version: 6.00 Build 0)  -->
<svg version="1.1" id="Layer_1" xmlns="http://www.w3.org/2000/svg" xmlns:xlink="http://www.w3.org/1999/xlink" x="0px" y="0px"
	 viewBox="0 0 100 100" style="enable-background:new 0 0 100 100;" xml:space="preserve">
<style type="text/css">
	.st0{fill:none;stroke:#000000;stroke-width:3.7582;stroke-miterlimit:10;}
	.st1{fill:none;stroke:#000000;stroke-width:3.7582;stroke-linecap:round;stroke-linejoin:round;stroke-miterlimit:10;}
</style>
<g>
	<path d="M49.6,7.36c0.13,0.05,0.25,0.12,0.38,0.14c2.41,0.4,3.85,1.85,4.39,4.17c0.2,0.87,0.62,1.18,1.49,1.17
		c2.61-0.01,4.72,1.98,4.91,4.57c0.04,0.58,0.05,1.16,0.01,1.74c-0.05,0.77-0.52,1.19-1.22,1.19c-0.69,0-1.16-0.44-1.23-1.2
		c-0.04-0.47-0.01-0.94-0.04-1.41c-0.09-1.45-1.1-2.39-2.54-2.41c-2.08-0.03-3.26-0.94-3.77-2.92c-0.45-1.76-1.21-2.5-3.01-2.52
		c-4.6-0.06-9.2-0.12-13.8,0.02c-3.58,0.11-6.47,3.25-6.52,6.85c-0.05,3.07-0.02,6.15-0.01,9.23c0.01,1.44,0.87,2.4,2.3,2.41
		c4.85,0.03,9.7,0.07,14.55-0.02c2.56-0.05,4.53-1.33,5.85-3.53c0.41-0.68,0.92-1.12,1.76-0.91c0.83,0.21,1.09,0.82,1.15,1.62
		c0.12,1.51,1.22,2.65,2.69,2.83c0.87,0.1,1.33-0.25,1.36-1.12c0.03-0.72-0.01-1.44,0.02-2.16c0.03-0.85,0.53-1.38,1.24-1.38
		c0.71,0,1.23,0.53,1.23,1.38c0,1.1-0.11,2.21-0.11,3.31c0,0.26,0.21,0.58,0.41,0.76c2.47,2.21,2.83,5.8,0.8,8.3
		c-0.95,1.16-2.18,1.88-3.65,2.14c-0.48,0.08-0.72,0.24-0.8,0.74c-0.55,3.28-2.18,5.93-4.72,8.06c-0.23,0.2-0.41,0.58-0.43,0.89
		c-0.06,0.85-0.02,1.7-0.02,2.64c1.33,0,2.57,0,3.81,0c1.64,0,3.27,0,4.91,0c1.13,0,1.72,0.42,1.73,1.22
		c0.02,0.83-0.6,1.27-1.77,1.27c-4.55,0-9.09,0-13.64,0c-1.86,0-2.68,0.82-2.68,2.69c0,8.37,0,16.74,0,25.1
		c0,1.79,0.72,2.49,2.51,2.49c12.08,0,24.17,0,36.25,0c1.45,0,2.26-0.76,2.26-2.24c0.01-8.53,0.01-17.07,0-25.6
		c0-1.58-0.91-2.43-2.51-2.44c-5.07,0-10.14,0-15.21,0c-0.28,0-0.56,0.03-0.83-0.03c-0.67-0.16-1.07-0.59-1.02-1.3
		c0.05-0.67,0.45-1.05,1.11-1.14c0.22-0.03,0.44-0.01,0.66-0.01c5.1,0,10.2,0,15.3,0c3.01,0,5,1.98,5.01,5
		c0.01,8.45,0.01,16.9-0.01,25.35c0,0.79-0.2,1.58-0.31,2.42c0.38,0,0.82-0.01,1.26,0c1.2,0.04,1.9,0.75,1.93,1.93
		c0.02,0.69,0.02,1.39-0.01,2.08c-0.07,2.03-1.69,3.67-3.71,3.77c-0.25,0.01-0.5,0.01-0.75,0.01c-23.42,0-46.84,0-70.25,0
		c-1.91,0-3.21-0.88-3.66-2.5c-0.1-0.37-0.13-0.76-0.13-1.15c-0.01-6.35-0.02-12.69,0-19.04c0.02-5.38,3.03-9.7,8.05-11.65
		c5.05-1.97,10.1-3.95,15.16-5.9c0.63-0.24,0.76-0.57,0.81-1.21c0.14-1.53-0.27-2.64-1.51-3.7c-2.1-1.8-3.2-4.27-3.68-6.99
		c-0.07-0.39-0.13-0.65-0.6-0.72c-4.52-0.66-7.1-6.06-3.23-10.14c-1.54-1.51-1.37-3.48-1.36-5.41c0.02-2.3,0-4.6,0.01-6.9
		c0.02-4.93,3.17-8.72,8.03-9.67c0.1-0.02,0.19-0.09,0.28-0.14C39.52,7.36,44.56,7.36,49.6,7.36z M42.14,64.68
		c-1.71,0.77-2.94,0.26-4.08-0.92c-2.14-2.21-4.35-4.35-6.5-6.54c-0.37-0.37-0.65-0.45-1.14-0.26c-3.11,1.24-6.26,2.37-9.33,3.7
		c-1.21,0.53-2.37,1.34-3.33,2.26c-3.36,3.23-2.8,7.43-2.72,11.51c2.69,0,5.3,0,7.95,0c0-1.04-0.02-2.01,0.01-2.98
		c0.02-0.74,0.51-1.22,1.18-1.25c0.71-0.03,1.23,0.46,1.3,1.22c0.02,0.25,0.01,0.5,0.01,0.75c0,5.62,0,11.25,0,16.87
		c0,0.3,0,0.59,0,0.92c4.71,0,9.33,0,13.93,0c-0.05-0.56-0.12-1.08-0.15-1.6c-0.02-0.55-0.01-1.11,0-1.66
		c0.03-1.28,0.73-1.97,2.03-2c0.4-0.01,0.81,0,1.08,0c-0.08-1.23-0.23-2.38-0.23-3.53c-0.02-5.15-0.01-10.31-0.01-15.46
		C42.14,65.4,42.14,65.1,42.14,64.68z M33.65,30.92c0,2.58-0.04,5.06,0.01,7.55c0.11,5.62,4.81,10.17,10.57,10.27
		c5.74,0.11,10.56-4.19,10.88-9.81c0.15-2.65,0.06-5.32,0.06-7.97c0-0.19-0.09-0.45-0.23-0.57c-0.92-0.8-1.86-1.56-2.84-2.38
		c-2.18,2.3-5.08,3.03-8.33,2.93c-3.04-0.09-6.09-0.02-9.14-0.02C34.33,30.92,34.03,30.92,33.65,30.92z M88.52,87.24
		c-15.64,0-31.17,0-46.68,0c-0.26,1.9,0.01,2.78,2.33,2.77c14.04-0.05,28.09-0.02,42.13-0.02c0.28,0,0.56,0.01,0.83-0.01
		c0.8-0.06,1.34-0.58,1.39-1.37C88.55,88.18,88.52,87.74,88.52,87.24z M22.95,82.62c-2.66,0-5.27,0-7.95,0c0,2.1-0.01,4.14,0,6.18
		c0,0.89,0.3,1.18,1.2,1.19c2.08,0.01,4.15,0,6.23,0c0.18,0,0.36-0.05,0.52-0.07C22.95,87.46,22.95,85.06,22.95,82.62z M33.58,55.75
		c2.03,2.03,3.95,3.95,5.87,5.86c1.26,1.25,0.96,1.36,2.38-0.07c0.43-0.43,0.46-2.53,0.04-2.96c-1.34-1.36-2.69-2.71-4.06-4.05
		c-0.14-0.14-0.46-0.23-0.63-0.17C36.02,54.77,34.87,55.24,33.58,55.75z M22.94,80.03c0-1.02,0-2,0-2.97c-2.66,0-5.27,0-7.89,0
		c0,1.02,0,1.97,0,2.97C17.7,80.03,20.3,80.03,22.94,80.03z M42.21,55.39c0.09-0.14,0.17-0.23,0.21-0.32
		c0.88-2.19,2.52-3.19,4.85-3.15c0.82,0.02,1.64,0,2.47,0c0-0.61,0-1.12,0-1.74c-3.58,1.48-7.12,1.34-10.88-0.09
		c0.16,0.93,0.06,1.8,0.44,2.3C40.13,53.48,41.21,54.38,42.21,55.39z M57.67,37.13c1.62-0.28,2.73-1.32,3.01-2.73
		c0.25-1.24-0.42-2.83-1.5-3.55c-0.56-0.37-1.5-0.12-1.51,0.44C57.65,33.21,57.67,35.14,57.67,37.13z M31.11,37.09
		c0-2.04,0-4.07,0-6.21c-0.49,0.02-1.01-0.09-1.39,0.09c-1.14,0.53-1.83,2.24-1.56,3.57C28.44,35.87,29.7,36.97,31.11,37.09z"/>
	<path d="M73.76,78c-5.81,3.19-11.71,3.44-17.71,0.54c-1.34-0.65-1.97-1.71-1.96-3.19c0.02-1.8-0.06-3.6,0.03-5.4
		c0.05-0.93-0.25-1.42-1.1-1.72c-0.59-0.21-1.14-0.55-1.71-0.84c-0.81-0.41-1.26-1.06-1.26-1.98c0-0.93,0.47-1.57,1.28-1.97
		c3.83-1.92,7.67-3.84,11.5-5.76c1.01-0.51,2.03-0.53,3.04-0.03c3.87,1.92,7.72,3.86,11.58,5.8c0.88,0.44,1.29,1.16,1.28,2.14
		c-0.01,2.52,0,5.04-0.01,7.56c0,0.45,0.12,0.72,0.52,1c0.48,0.34,0.97,0.81,1.18,1.33c0.38,0.91,0.64,1.89,0.78,2.87
		c0.23,1.58-0.89,2.81-2.49,2.86c-0.64,0.02-1.27,0.01-1.91,0.01C74.6,81.21,73.62,80.16,73.76,78z M53,65.45
		c3.72,1.86,7.3,3.67,10.91,5.42c0.32,0.16,0.87,0.06,1.23-0.11c2.44-1.18,4.85-2.41,7.28-3.63c0.18-0.09,0.35-0.21,0.53-0.32
		c-0.01-0.05-0.02-0.1-0.04-0.15c-0.26,0-0.53,0-0.79,0c-2.41,0-4.82,0-7.23,0c-1.12,0-1.71-0.43-1.73-1.23
		c-0.02-0.82,0.56-1.26,1.68-1.26c2.52,0,5.04,0,7.56,0c0.19,0,0.39-0.04,0.58-0.05c-2.72-1.51-5.45-2.89-8.21-4.22
		c-0.28-0.13-0.76-0.01-1.07,0.15c-3.35,1.65-6.68,3.33-10.02,5C53.47,65.15,53.3,65.27,53,65.45z M72.2,70.07
		c-0.38,0.17-0.63,0.28-0.87,0.4c-1.73,0.86-3.47,1.72-5.19,2.6c-1.17,0.6-2.31,0.61-3.49,0c-1.72-0.89-3.46-1.74-5.19-2.61
		c-0.26-0.13-0.52-0.24-0.87-0.4c0,1.87-0.02,3.62,0.02,5.36c0.01,0.29,0.26,0.71,0.51,0.83c4.83,2.41,9.68,2.42,14.51,0.02
		c0.26-0.13,0.53-0.54,0.54-0.82C72.22,73.71,72.2,71.96,72.2,70.07z M74.69,74.99c0.45-0.37,0.77-0.63,1.07-0.9
		c0.17-0.15,0.44-0.34,0.45-0.51c0.03-1.81,0.02-3.63,0.02-5.44c-0.08-0.05-0.16-0.1-0.23-0.16c-0.44,0.39-1.22,0.75-1.25,1.16
		C74.62,71.05,74.69,72.96,74.69,74.99z M76.24,78.66c0.88,0,1.66,0,2.54,0c-0.19-0.71-0.31-1.37-0.56-1.97
		c-0.1-0.24-0.48-0.53-0.71-0.5c-0.28,0.03-0.65,0.31-0.76,0.57C76.52,77.33,76.42,77.97,76.24,78.66z"/>
</g>
</svg>
