<svg xmlns="http://www.w3.org/2000/svg" width="30.206" height="30.23" viewBox="0 0 30.206 30.23">
  <g id="Group_323" data-name="Group 323" transform="translate(227.562 -155.387)">
    <path id="Path_471" data-name="Path 471" d="M-213.472,155.387h2.007c.369.045.739.083,1.107.137a14.9,14.9,0,0,1,7.316,3.16,14.859,14.859,0,0,1,5.451,9.16c.1.547.159,1.1.237,1.653V171.5c-.019.094-.043.187-.057.282-.086.612-.13,1.233-.261,1.834a14.814,14.814,0,0,1-5.555,8.84,14.809,14.809,0,0,1-11.36,3.007,14,14,0,0,1-6.772-2.751,14.824,14.824,0,0,1-6.071-14.322,14.118,14.118,0,0,1,3.18-7.364,14.858,14.858,0,0,1,9.122-5.406C-214.581,155.524-214.025,155.465-213.472,155.387Zm1.015,27.865a12.782,12.782,0,0,0,12.74-12.748,12.787,12.787,0,0,0-12.763-12.755A12.782,12.782,0,0,0-225.22,170.5,12.787,12.787,0,0,0-212.458,183.252Z" transform="translate(0)" fill="#1ebfb8"/>
    <path id="Path_472" data-name="Path 472" d="M-163.9,235.381a3.075,3.075,0,0,1,.222-.288q3.356-3.36,6.713-6.719a1.22,1.22,0,0,1,1.3-.391,1.168,1.168,0,0,1,.6,1.812,2.532,2.532,0,0,1-.274.308q-3.805,3.808-7.613,7.614a1.219,1.219,0,0,1-1.967.012q-1.795-1.793-3.586-3.589a1.183,1.183,0,0,1,.127-1.862,1.175,1.175,0,0,1,1.533.172c.412.394.808.8,1.212,1.208Z" transform="translate(-50.607 -62.567)" fill="#1ebfb8"/>
  </g>
</svg>
