<?xml version="1.0" encoding="utf-8"?>
<!-- Generator: Adobe Illustrator 25.0.0, SVG Export Plug-In . SVG Version: 6.00 Build 0)  -->
<svg version="1.1" id="Layer_1" xmlns="http://www.w3.org/2000/svg" xmlns:xlink="http://www.w3.org/1999/xlink" x="0px" y="0px"
	 viewBox="0 0 100 100" style="enable-background:new 0 0 100 100;" xml:space="preserve">
<path d="M7.09,28.17c0.16-0.61,0.32-1.22,0.49-1.83c1.54-5.34,6.43-9.04,11.99-9.04c20.24,0,40.48,0,60.72,0
	c6.85,0,12.46,5.59,12.46,12.42c0.01,13.47,0.01,26.93,0,40.4c0,6.83-5.62,12.42-12.46,12.43c-20.21,0.01-40.42,0-60.63,0
	c-6.2,0-11.36-4.38-12.41-10.5c-0.02-0.13-0.1-0.25-0.16-0.37C7.09,57.17,7.09,42.67,7.09,28.17z M49.92,22.31
	c-9.95,0-19.91-0.01-29.86,0c-4.69,0-7.94,3.24-7.95,7.93c-0.01,13.13-0.01,26.27,0,39.4c0,4.63,3.27,7.88,7.9,7.88
	c19.94,0.01,39.87,0.01,59.81,0c4.64,0,7.9-3.26,7.9-7.88c0.01-13.13,0.01-26.27-0.01-39.4c0-0.72-0.07-1.45-0.24-2.15
	c-0.85-3.52-3.83-5.77-7.62-5.77C69.88,22.3,59.9,22.31,49.92,22.31z"/>
<path d="M39.88,49.93c0-4.1,0.01-8.2-0.01-12.29c-0.01-1.07,0.33-1.91,1.27-2.45c0.94-0.54,1.86-0.41,2.76,0.15
	c6.56,4.1,13.13,8.19,19.68,12.31c1.9,1.19,1.91,3.36,0.02,4.55c-6.55,4.11-13.12,8.2-19.68,12.31c-0.9,0.56-1.81,0.7-2.76,0.17
	c-0.94-0.53-1.3-1.37-1.29-2.44C39.89,58.12,39.88,54.02,39.88,49.93z M57.7,49.92c-4.31-2.7-8.49-5.31-12.74-7.96
	c0,5.37,0,10.58,0,15.92C49.22,55.21,53.39,52.61,57.7,49.92z"/>
</svg>
