<?xml version="1.0" encoding="utf-8"?>
<!-- Generator: Adobe Illustrator 25.0.0, SVG Export Plug-In . SVG Version: 6.00 Build 0)  -->
<svg version="1.1" id="Layer_1" xmlns="http://www.w3.org/2000/svg" xmlns:xlink="http://www.w3.org/1999/xlink" x="0px" y="0px"
	 viewBox="0 0 100 100" style="enable-background:new 0 0 100 100;" xml:space="preserve">
<g>
	<path d="M29.39,17.99c1.24,0.02,3.03,0.74,4.49,2.18c0.89,0.88,1.87,1.31,3.07,0.79c1.15-0.5,1.54-1.47,1.56-2.69
		c0.08-4.3,3.46-7.66,7.76-7.7c2.3-0.02,4.62-0.15,6.89,0.14c3.9,0.49,6.53,3.69,6.62,7.64c0.03,1.49,0.68,2.44,1.92,2.76
		c1.05,0.28,1.87-0.13,2.63-0.84c2.43-2.28,5.25-2.9,8.36-1.72c0.98,0.37,1.9,1.04,2.69,1.75c1.38,1.23,2.66,2.59,3.96,3.92
		c3.1,3.19,3.13,7.83,0.06,11.06c-0.84,0.88-1.26,1.83-0.75,3c0.5,1.16,1.46,1.54,2.68,1.56c4.31,0.07,7.66,3.44,7.72,7.74
		c0.03,1.91,0.03,3.82,0,5.74c-0.06,4.35-3.41,7.7-7.77,7.79c-1.52,0.03-2.39,0.63-2.75,1.91c-0.3,1.06,0.12,1.87,0.83,2.62
		c2.37,2.5,2.95,5.84,1.55,8.83c-0.85,1.83-5.98,6.94-7.81,7.78c-2.97,1.37-6.28,0.79-8.76-1.55c-0.73-0.69-1.52-1.12-2.54-0.88
		c-1.29,0.29-1.98,1.25-2.02,2.76c-0.09,3.63-2.37,6.6-5.81,7.52c-0.29,0.08-0.6,0.17-0.89,0.17c-2.68,0-5.39,0.23-8.04-0.08
		c-3.87-0.46-6.48-3.69-6.54-7.6c-0.02-1.19-0.41-2.12-1.53-2.62c-1.16-0.51-2.12-0.15-3.02,0.69c-3.33,3.14-7.92,3.08-11.18-0.12
		c-1.25-1.22-2.48-2.46-3.7-3.7c-3.24-3.29-3.29-7.89-0.13-11.24c0.82-0.86,1.19-1.81,0.69-2.94c-0.49-1.12-1.4-1.54-2.6-1.56
		c-4.45-0.07-7.78-3.46-7.81-7.91c-0.01-1.8-0.01-3.6,0-5.4c0.03-4.51,3.34-7.86,7.85-7.96c1.48-0.03,2.44-0.75,2.72-2.07
		c0.21-0.99-0.21-1.76-0.88-2.47c-2.3-2.46-2.9-5.3-1.69-8.44c0.36-0.93,0.99-1.8,1.66-2.55c1.28-1.42,2.67-2.74,4.05-4.06
		C24.57,18.68,26.49,17.92,29.39,17.99z M62.57,74.44c1.9,0.05,3.77,0.8,5.34,2.32c1.26,1.22,2.63,1.21,3.88-0.02
		c1.17-1.15,2.32-2.31,3.47-3.46c1.43-1.44,1.45-2.69,0.05-4.18c-1.41-1.5-2.15-3.28-2.19-5.33c-0.08-4.34,3.4-7.89,7.77-7.98
		c1.91-0.04,2.84-0.98,2.84-2.89c0-1.69,0.01-3.38,0-5.07c-0.01-1.63-1.01-2.65-2.62-2.69c-3.46-0.09-6.02-1.66-7.36-4.86
		c-1.33-3.18-0.64-6.07,1.7-8.58c1.19-1.28,1.2-2.64-0.03-3.89c-1.15-1.16-2.31-2.31-3.47-3.47c-1.43-1.43-2.68-1.45-4.18-0.04
		c-1.48,1.39-3.23,2.13-5.25,2.19c-4.38,0.12-7.97-3.37-8.06-7.78c-0.04-1.91-0.98-2.84-2.89-2.84c-1.69,0-3.38-0.01-5.07,0
		c-1.63,0.01-2.63,1.01-2.69,2.63c-0.03,0.69-0.08,1.39-0.25,2.05c-1.5,5.87-8.64,7.89-13.07,3.72c-1.45-1.36-2.72-1.35-4.12,0.04
		c-1.1,1.1-2.19,2.19-3.29,3.29c-1.49,1.5-1.52,2.72-0.09,4.24c1.41,1.5,2.15,3.29,2.18,5.33c0.07,4.38-3.41,7.88-7.87,7.96
		c-1.75,0.03-2.73,1.01-2.74,2.73c-0.01,1.77-0.01,3.55,0,5.32c0.01,1.52,1.04,2.52,2.55,2.6c0.72,0.03,1.45,0.07,2.14,0.25
		c5.87,1.51,7.88,8.63,3.71,13.08c-1.36,1.45-1.35,2.72,0.04,4.12c1.15,1.16,2.31,2.32,3.47,3.47c1.28,1.26,2.62,1.26,3.94,0.03
		c2.51-2.34,5.41-3,8.58-1.67c3.17,1.33,4.72,3.87,4.82,7.3c0.05,1.68,1.03,2.68,2.71,2.69c1.63,0.01,3.27,0,4.9,0
		c2.09,0,2.99-0.87,3.04-2.95C54.57,77.88,58.07,74.44,62.57,74.44z"/>
	<path d="M30.52,50.49c-0.01-10.26,8.35-18.65,18.58-18.65c10.32,0.01,18.65,8.32,18.67,18.65c0.02,10.16-8.36,18.6-18.46,18.6
		C38.87,69.09,30.53,60.84,30.52,50.49z M62.44,50.51c0-7.34-5.94-13.34-13.22-13.34c-7.43-0.01-13.38,5.93-13.39,13.34
		c-0.01,7.32,6.01,13.28,13.38,13.26C56.47,63.76,62.45,57.76,62.44,50.51z"/>
</g>
</svg>
