<?xml version="1.0" encoding="utf-8"?>
<!-- Generator: Adobe Illustrator 25.0.0, SVG Export Plug-In . SVG Version: 6.00 Build 0)  -->
<svg version="1.1" id="Layer_1" xmlns="http://www.w3.org/2000/svg" xmlns:xlink="http://www.w3.org/1999/xlink" x="0px" y="0px"
	 viewBox="0 0 100 100" style="enable-background:new 0 0 100 100;" xml:space="preserve">
<style type="text/css">
	.st0{fill:none;stroke:#000000;stroke-width:3.7582;stroke-miterlimit:10;}
	.st1{fill:none;stroke:#000000;stroke-width:3.7582;stroke-linecap:round;stroke-linejoin:round;stroke-miterlimit:10;}
</style>
<g>
	<path d="M7.55,68.48c0.2-0.94,0.34-1.9,0.62-2.81c2.04-6.75,6.48-11.09,13.39-12.48c6.74-1.36,12.41,0.84,16.9,6.05
		c0.09,0.1,0.17,0.22,0.27,0.32c0.04,0.04,0.09,0.07,0.19,0.14c0.79-0.5,1.6-1.02,2.41-1.54c2.3-1.48,4.59-2.98,6.9-4.44
		c0.42-0.27,0.6-0.56,0.59-1.06c-0.02-2.74-0.03-5.47,0-8.21c0.01-0.58-0.13-0.8-0.76-0.86c-7.92-0.77-14.53-7.45-15.31-15.38
		c-0.44-4.42,0.6-8.44,3.17-12.06c0.68-0.95,1.4-1.18,2.06-0.68c0.63,0.48,0.62,1.2-0.03,2.11c-3.75,5.28-3.77,12.18-0.04,17.38
		c0.18,0.24,0.37,0.47,0.61,0.78c1.51-2.75,3.49-4.98,6.07-6.76c-1.4-1.86-1.91-3.91-1.39-6.17c0.39-1.68,1.31-3.03,2.7-4.04
		c2.75-2.01,6.51-1.75,8.99,0.58c2.33,2.19,3.22,6.15,0.62,9.63c2.53,1.74,4.55,3.98,6.07,6.76c1.75-2.13,2.81-4.47,3.19-7.09
		c1.17-8.09-3.87-15.33-11.84-16.96c-3.78-0.78-7.36-0.09-10.67,1.9c-0.24,0.14-0.46,0.31-0.7,0.44c-0.69,0.38-1.37,0.23-1.75-0.36
		c-0.38-0.6-0.25-1.28,0.41-1.73c2.12-1.47,4.46-2.43,7.01-2.82c9.21-1.42,17.69,4.33,19.8,13.41c2.31,9.94-4.87,20.02-15.02,21.06
		c-0.58,0.06-0.73,0.26-0.72,0.81c0.02,2.79,0,5.58,0.03,8.38c0,0.29,0.21,0.7,0.45,0.86c3.09,2.03,6.21,4.03,9.38,6.07
		c0.31-0.36,0.6-0.71,0.92-1.05c4.86-5.17,10.74-6.9,17.63-5.26c0.24,0.06,0.48,0.12,0.71,0.21c0.74,0.28,1.08,0.9,0.87,1.56
		c-0.22,0.68-0.82,0.99-1.58,0.84c-1.16-0.23-2.32-0.59-3.49-0.66c-6.31-0.34-11.19,2.24-14.2,7.76
		c-3.01,5.53-2.43,11.01,1.24,16.14c0.08,0.11,0.18,0.2,0.32,0.35c1.48-2.72,3.46-4.95,6.06-6.73c-1.47-1.96-1.96-4.13-1.31-6.49
		c0.44-1.6,1.39-2.88,2.75-3.83c2.72-1.9,6.42-1.62,8.86,0.66c2.13,1.99,3.36,5.82,0.71,9.55c1.11,1.03,2.3,1.98,3.3,3.09
		c1.01,1.12,1.84,2.41,2.77,3.65c1.68-2.06,2.79-4.47,3.13-7.19c0.71-5.77-1.28-10.46-5.82-14.08c-0.84-0.67-1.01-1.32-0.52-1.97
		c0.46-0.6,1.17-0.65,1.9-0.11c3.87,2.92,6.26,6.77,6.9,11.57c1.26,9.45-4.77,17.72-14.12,19.57c-9.18,1.82-18.57-4.65-20.2-13.87
		c-0.69-3.92-0.18-7.64,1.62-11.19c0.06-0.12,0.11-0.25,0.2-0.44c-1.19-0.77-2.36-1.53-3.54-2.29c-1.9-1.23-3.8-2.47-5.72-3.67
		c-0.21-0.13-0.61-0.23-0.78-0.13c-3.17,2.01-6.32,4.05-9.31,5.98c0.59,2,1.32,3.86,1.68,5.78C43.85,76.7,37,86.11,27.7,87.4
		c-0.33,0.05-0.65,0.11-0.98,0.14c-0.82,0.06-1.41-0.37-1.5-1.08c-0.09-0.71,0.39-1.29,1.21-1.39c2.6-0.31,4.99-1.16,7.13-2.68
		c0.36-0.25,0.7-0.54,1.2-0.92c-0.72-1.1-1.37-2.21-2.13-3.23c-1.21-1.61-2.76-2.86-4.49-3.88c-1.26-0.75-1.33-1.54-0.21-2.52
		c1.53-1.33,2.04-3.37,1.3-5.19c-0.75-1.86-2.55-2.96-4.62-2.83c-1.89,0.12-3.57,1.49-4.03,3.4c-0.43,1.78,0.06,3.33,1.43,4.58
		c1.18,1.07,1.11,1.81-0.26,2.62c-2.86,1.7-5.01,4.05-6.45,7.13c1.61,1.44,3.49,2.39,5.54,3.01c0.24,0.07,0.48,0.12,0.72,0.19
		c0.86,0.25,1.26,0.84,1.07,1.58c-0.18,0.7-0.86,1.06-1.72,0.82c-0.88-0.24-1.77-0.48-2.59-0.85c-6.06-2.69-9.61-7.31-10.63-13.87
		c-0.02-0.16-0.1-0.31-0.15-0.46C7.55,70.8,7.55,69.64,7.55,68.48z M30.56,72.77c1.11,1.03,2.28,1.96,3.27,3.06
		c1.01,1.12,1.84,2.41,2.74,3.6c3.99-4.36,5.13-13.24-0.8-19.48c-5.9-6.21-15.6-6.24-21.55-0.08c-6.01,6.22-4.89,15.19-0.84,19.6
		c0.9-1.2,1.72-2.48,2.73-3.61c1.01-1.12,2.19-2.08,3.31-3.12c-2.23-3.9-1.89-7.31,1.01-9.8c2.52-2.17,6.32-2.23,8.95-0.14
		C32.39,65.22,32.77,68.59,30.56,72.77z M40.37,37.62c5.21,4.62,13.52,4.77,18.88,0.42c0.39-0.32,0.44-0.57,0.19-0.96
		c-0.5-0.79-0.95-1.62-1.5-2.38c-1.29-1.76-2.92-3.15-4.81-4.25c-1.19-0.69-1.27-1.52-0.26-2.42c0.1-0.09,0.21-0.18,0.31-0.28
		c1.85-1.8,1.88-4.73,0.06-6.53c-1.82-1.8-4.78-1.75-6.53,0.12c-1.75,1.87-1.62,4.81,0.29,6.53c1.27,1.14,1.19,1.83-0.28,2.71
		C43.9,32.28,41.78,34.6,40.37,37.62z M84.71,81.46c-1.4-3.01-3.55-5.34-6.4-7.05c-1.38-0.83-1.45-1.55-0.27-2.61
		c1.42-1.29,1.91-2.88,1.4-4.72c-0.51-1.86-2.17-3.16-4.04-3.27c-2.04-0.11-3.79,0.97-4.54,2.8c-0.74,1.78-0.25,3.81,1.19,5.15
		c0.33,0.31,0.71,0.68,0.82,1.08c0.21,0.77-0.36,1.18-0.97,1.54c-2.89,1.7-5.06,4.05-6.46,7.08C70.76,86.36,79.62,86.21,84.71,81.46
		z"/>
</g>
</svg>
