<?xml version="1.0" encoding="utf-8"?>
<!-- Generator: Adobe Illustrator 25.0.0, SVG Export Plug-In . SVG Version: 6.00 Build 0)  -->
<svg version="1.1" id="Layer_1" xmlns="http://www.w3.org/2000/svg" xmlns:xlink="http://www.w3.org/1999/xlink" x="0px" y="0px"
	 viewBox="0 0 100 100" style="enable-background:new 0 0 100 100;" xml:space="preserve">
<style type="text/css">
	.st0{fill:none;stroke:#000000;stroke-width:3.7582;stroke-miterlimit:10;}
	.st1{fill:none;stroke:#000000;stroke-width:3.7582;stroke-linecap:round;stroke-linejoin:round;stroke-miterlimit:10;}
</style>
<g>
	<path d="M33.42,16.02c3.94,0.56,7.02-0.88,9.51-3.92c0.85-1.04,1.93-1.91,3.01-2.73c2.65-2.01,5.41-2.06,8.07-0.05
		c1.4,1.06,2.72,2.27,3.88,3.59c1.94,2.2,4.29,3.19,7.2,3.09c1.69-0.06,3.41-0.08,5.08,0.15c4.05,0.56,5.94,2.73,6.11,6.83
		c0.07,1.76,0.06,3.53,0.07,5.3c0.01,2.07,0.74,3.81,2.23,5.28c1.52,1.5,3.05,3.02,4.36,4.69c2.08,2.66,2.01,5.44-0.01,8.15
		c-0.53,0.71-1.12,1.37-1.73,2.01c-0.96,1.01-1.96,1.98-2.94,2.97c-1.12,1.13-1.77,2.47-1.82,4.08c-0.03,0.78-0.1,1.56-0.11,2.34
		c-0.03,1.19,0.01,2.38-0.04,3.57c-0.18,4.62-2.47,6.96-7.1,7.2c-1.8,0.09-3.6,0.04-5.4,0.07c-1.84,0.03-3.45,0.63-4.76,1.97
		c-0.93,0.95-1.89,1.86-2.84,2.78c-0.41,0.4-0.83,0.8-1.28,1.17c-3.47,2.91-6.52,2.91-9.92-0.07c-1.3-1.14-2.51-2.39-3.71-3.63
		c-1.45-1.51-3.22-2.2-5.29-2.22c-1.93-0.02-3.89,0.07-5.8-0.16c-4.4-0.53-6.3-2.69-6.48-7.13c-0.07-1.66-0.04-3.33-0.04-4.99
		c0-2.03-0.67-3.76-2.13-5.22c-1.47-1.46-2.96-2.91-4.26-4.52c-2.34-2.9-2.32-5.7-0.03-8.63c0.89-1.14,1.88-2.25,2.99-3.18
		c2.57-2.16,3.7-4.82,3.46-8.17c-0.1-1.45-0.04-2.93,0.14-4.37c0.52-4.09,2.7-6.04,6.82-6.23C31.59,15.98,32.5,16.02,33.42,16.02z
		 M26.51,58.53c0.01,0,0.02,0,0.04,0c0,0.98-0.05,1.97,0.01,2.95c0.17,2.77,1.18,3.85,3.92,4.1c1.45,0.13,2.92,0.21,4.37,0.13
		c3.82-0.23,6.86,1.18,9.37,4.02c0.96,1.09,2.05,2.09,3.18,3c1.89,1.5,3.22,1.46,5.15-0.01c0.56-0.43,1.08-0.93,1.6-1.42
		c0.98-0.94,1.94-1.91,2.9-2.86c1.83-1.81,4.05-2.65,6.61-2.68c2.04-0.02,4.08-0.02,6.11-0.2c2.28-0.19,3.28-1.24,3.47-3.52
		c0.15-1.82,0.21-3.66,0.17-5.49c-0.07-3.2,1.12-5.8,3.43-7.97c1.11-1.05,2.21-2.12,3.2-3.28c1.98-2.3,1.97-3.84-0.03-6.1
		c-1.21-1.37-2.52-2.66-3.82-3.96c-1.91-1.91-2.75-4.22-2.76-6.89c-0.01-2-0.03-4.01-0.2-6c-0.17-2.06-1.09-3.04-3.11-3.28
		c-1.71-0.21-3.46-0.26-5.18-0.2c-3.67,0.11-6.69-1.14-9.12-3.91c-0.87-0.99-1.84-1.91-2.84-2.78c-2.24-1.95-3.75-1.97-6.02-0.03
		c-1.29,1.1-2.48,2.32-3.66,3.54c-1.97,2.04-4.33,3.1-7.17,3.11c-1.02,0-2.04,0.01-3.06,0.05c-1.15,0.05-2.31,0.04-3.45,0.22
		c-1.8,0.29-2.66,1.12-2.87,2.93c-0.2,1.68-0.28,3.39-0.22,5.08c0.14,3.78-1.11,6.89-3.98,9.39c-1.17,1.02-2.24,2.19-3.2,3.41
		c-1.34,1.7-1.34,3.01-0.03,4.72c0.8,1.05,1.68,2.08,2.68,2.92c3.4,2.83,4.9,6.41,4.51,10.8C26.5,58.39,26.51,58.46,26.51,58.53z"/>
	<path d="M36.32,88.71c2.56-1.35,4.95-2.61,7.34-3.87c1.92-1.01,3.85-2.01,5.75-3.07c0.58-0.32,1.01-0.31,1.59,0.01
		c3.97,2.14,7.97,4.24,11.96,6.35c0.32,0.17,0.65,0.31,1.1,0.53c0-1.55,0-2.97,0-4.38c0-3.12-0.01-6.25,0-9.37
		c0-1.12,0.64-1.82,1.55-1.7c0.82,0.11,1.29,0.63,1.29,1.45c0.01,5.26,0.03,10.53-0.01,15.79c-0.01,1.52-1.44,2.22-2.88,1.48
		c-2.68-1.38-5.34-2.81-8.01-4.23c-1.62-0.86-3.26-1.68-4.85-2.59c-0.66-0.38-1.17-0.4-1.86-0.02c-4.15,2.24-8.33,4.43-12.5,6.63
		c-2.12,1.12-3.32,0.39-3.32-2.02c0-4.89,0.01-9.78-0.01-14.67c0-0.86,0.2-1.56,1.14-1.79c0.99-0.24,1.72,0.47,1.72,1.7
		c0.01,4.14,0,8.29,0,12.43C36.32,87.74,36.32,88.11,36.32,88.71z"/>
	<path d="M50.03,58.7c-8.97-0.07-16.05-6.85-16.51-15.81c-0.43-8.36,6.24-16.07,14.58-16.93c2.23-0.23,4.4-0.05,6.54,0.61
		c1.04,0.32,1.5,1.04,1.25,1.87c-0.25,0.81-1.04,1.15-2.09,0.84c-8.4-2.51-17.34,3.63-17.41,13.07c-0.04,5.37,3.33,10.34,8.26,12.41
		c5.12,2.15,10.89,1.06,14.8-2.81c2.86-2.83,4.18-6.28,4.05-10.29c-0.01-0.17-0.03-0.34-0.03-0.51c0.01-0.93,0.53-1.55,1.35-1.61
		c0.8-0.06,1.42,0.51,1.5,1.45c0.36,4.45-0.91,8.42-3.75,11.82C59.33,56.69,55.14,58.71,50.03,58.7z"/>
	<path d="M49.74,43.95c3.74-3.77,7.39-7.46,11.05-11.14c1.39-1.4,2.78-2.79,4.18-4.17c0.77-0.75,1.63-0.8,2.23-0.16
		c0.57,0.6,0.51,1.44-0.21,2.16c-5.66,5.67-11.33,11.33-17,16.99c-0.07,0.07-0.16,0.12-0.26,0.19c-0.09-0.04-0.19-0.06-0.25-0.12
		c-2.74-2.73-5.49-5.46-8.21-8.2c-0.88-0.89-0.66-2.22,0.43-2.41c0.5-0.09,1.22,0.17,1.6,0.52c1.9,1.79,3.72,3.67,5.57,5.52
		C49.12,43.36,49.36,43.59,49.74,43.95z"/>
</g>
</svg>
