<?xml version="1.0" encoding="utf-8"?>
<!-- Generator: Adobe Illustrator 25.0.0, SVG Export Plug-In . SVG Version: 6.00 Build 0)  -->
<svg version="1.1" id="Layer_1" xmlns="http://www.w3.org/2000/svg" xmlns:xlink="http://www.w3.org/1999/xlink" x="0px" y="0px"
	 viewBox="0 0 100 100" style="enable-background:new 0 0 100 100;" xml:space="preserve">
<style type="text/css">
	.st0{fill:none;stroke:#000000;stroke-width:3.7582;stroke-miterlimit:10;}
	.st1{fill:none;stroke:#000000;stroke-width:3.7582;stroke-linecap:round;stroke-linejoin:round;stroke-miterlimit:10;}
</style>
<g>
	<path d="M49.44,91.36c-0.09-0.05-0.18-0.12-0.28-0.14c-2.98-0.56-5.11-2.24-6.48-4.93c-3.43-6.75-6.88-13.48-10.27-20.25
		c-0.4-0.79-0.65-1.72-0.7-2.61c-0.14-2.52,1.38-4.66,3.69-5.47c2.29-0.79,4.71-0.04,6.25,1.94c0.08,0.1,0.16,0.21,0.37,0.47
		c0.02-0.42,0.04-0.69,0.04-0.96c0-6.93,0-13.87,0-20.8c0-2.93,1.62-5.13,4.22-5.87c3.39-0.97,7.03,1.72,6.88,5.17
		c-0.15,3.41-0.03,6.82-0.03,10.24c0,0.29,0,0.59,0,0.89c4.15-1.14,6-0.41,7.82,3.1c1.71-0.97,3.5-1.09,5.3-0.28
		c1.78,0.79,2.86,2.21,3.4,4.11c1.34-0.7,2.71-0.94,4.16-0.59c2.44,0.59,4.27,2.77,4.32,5.28c0.05,2.34,0.03,4.68,0.02,7.01
		c0,0.93-0.54,1.47-1.35,1.45c-0.78-0.02-1.27-0.55-1.27-1.45c-0.01-2.18-0.01-4.35-0.01-6.53c0-1.18-0.43-2.16-1.45-2.8
		c-1.91-1.22-4.24,0-4.3,2.26c-0.04,1.4,0,2.79-0.01,4.19c-0.01,1.02-0.47,1.59-1.29,1.6c-0.85,0.02-1.34-0.56-1.34-1.63
		c-0.01-2.42,0.01-4.84-0.01-7.26c-0.01-1.82-1.03-3.12-2.66-3.45c-1.76-0.36-3.25,0.8-3.3,2.59c-0.03,1.45-0.01,2.9-0.01,4.35
		c0,0.7-0.24,1.28-0.98,1.49c-0.93,0.27-1.69-0.38-1.7-1.47c-0.02-2.42,0.02-4.84-0.01-7.26c-0.02-1.81-1.65-3.03-3.37-2.57
		c-1.11,0.29-1.92,1.3-1.95,2.48c-0.03,0.99,0,1.99-0.01,2.98c-0.01,0.98-0.51,1.6-1.31,1.62c-0.82,0.02-1.37-0.6-1.37-1.64
		c-0.01-6.18,0-12.36,0-18.54c0-1.76-0.94-2.83-2.53-2.88c-1.67-0.06-3.05,1.15-3.16,2.78c-0.02,0.29-0.01,0.59-0.01,0.89
		c0,8.63,0,17.25,0,25.88c0,0.19-0.01,0.38,0,0.56c0.04,0.77-0.19,1.42-0.99,1.64c-0.81,0.22-1.31-0.23-1.68-0.91
		c-0.75-1.39-1.53-2.77-2.3-4.16c-0.59-1.06-1.49-1.61-2.7-1.57c-2.12,0.08-3.39,2.31-2.4,4.3c1.35,2.72,2.74,5.41,4.12,8.11
		c2.05,4.04,4.13,8.08,6.16,12.13c1.28,2.57,3.3,3.83,6.19,3.81c3.95-0.03,7.9,0.01,11.85-0.01c6.9-0.04,12.2-5.14,12.54-12.04
		c0-0.08,0-0.16,0.01-0.24c0.05-0.91,0.6-1.49,1.38-1.46c0.75,0.04,1.25,0.62,1.25,1.49c0.01,1.96-0.36,3.86-1.15,5.64
		c-2.3,5.15-6.23,8.21-11.81,9.13c-0.15,0.02-0.29,0.1-0.44,0.15C59.65,91.36,54.54,91.36,49.44,91.36z"/>
	<path d="M66.95,24.63c-0.18,0.14-0.38,0.28-0.56,0.43c-2.95,2.37-5.9,4.75-8.9,7.17c0.92,1.91,1.31,3.91,1.12,6.07
		c4.69,0.96,9.34,1.91,14.04,2.87c0.08-0.24,0.14-0.43,0.2-0.63c1.15-4.04,4.95-6.56,9.18-6.09c3.9,0.43,7.02,3.8,7.32,7.91
		c0.28,3.9-2.46,7.57-6.4,8.57c-4.48,1.13-9.06-1.65-10.13-6.18c-0.14-0.61-0.34-0.94-1.03-1.06c-2.3-0.41-4.58-0.9-6.87-1.37
		c-2.26-0.46-4.52-0.93-6.78-1.4c-0.45,0.85-0.81,1.73-1.37,2.46c-0.29,0.37-0.95,0.67-1.42,0.63c-0.37-0.03-0.85-0.57-0.98-0.99
		c-0.11-0.35,0.12-0.88,0.34-1.25c1.7-2.89,1.78-5.84,0.17-8.73c-1.62-2.91-4.23-4.39-7.56-4.37c-6.61,0.04-10.62,7.25-7.25,12.93
		c0.14,0.23,0.28,0.46,0.38,0.71c0.26,0.64,0.06,1.17-0.48,1.55c-0.52,0.37-1.07,0.33-1.56-0.07c-0.19-0.15-0.33-0.34-0.51-0.53
		c-0.31,0.14-0.59,0.3-0.89,0.41c-0.66,0.26-1.34,0.03-1.67-0.55c-0.35-0.61-0.22-1.47,0.46-1.74c1-0.4,0.87-0.98,0.68-1.82
		c-0.59-2.61-0.24-5.12,1-7.5c0.11-0.21,0.22-0.43,0.33-0.64c0.01-0.02,0-0.05,0.01-0.15c-2.11-2.15-4.25-4.34-6.42-6.5
		c-0.14-0.14-0.59-0.09-0.83,0.02c-5.05,2.29-10.75-0.59-11.86-6c-0.92-4.52,2.2-9.08,6.76-9.85c4.73-0.81,9.14,2.36,9.81,7
		c0.37,2.58-0.37,4.82-2.04,6.86c2.17,2.06,4.33,4.11,6.49,6.16c4.77-4.43,12.06-3.82,16.31,1c1.54-1.24,3.08-2.48,4.62-3.72
		c1.53-1.23,3.05-2.46,4.63-3.72c-1.41-2.64-1.66-5.37-0.51-8.15c0.86-2.06,2.32-3.59,4.32-4.61c3.96-2.01,8.8-0.83,11.44,2.78
		c2.61,3.57,2.26,8.49-0.81,11.68C77,27.07,71.66,28.55,66.95,24.63z M73.18,24.34c3.58-0.01,6.44-2.88,6.43-6.46
		c-0.01-3.57-2.92-6.43-6.49-6.4c-3.53,0.03-6.4,2.91-6.41,6.42C66.7,21.44,69.62,24.35,73.18,24.34z M80.91,48.49
		c3.19,0.02,5.77-2.51,5.78-5.68c0.02-3.17-2.54-5.76-5.69-5.79c-3.17-0.02-5.76,2.54-5.78,5.7C75.21,45.92,77.73,48.48,80.91,48.49
		z M32.69,17.25c0.02-3.19-2.49-5.74-5.68-5.77c-3.17-0.03-5.77,2.52-5.79,5.68c-0.02,3.16,2.53,5.75,5.69,5.79
		C30.06,22.99,32.67,20.41,32.69,17.25z"/>
	<path d="M27.17,45.81c1.51-0.65,2.14-0.6,2.57,0.17c0.43,0.78,0.14,1.33-1.25,2.26c0.86,2.61,0.73,5.16-0.65,7.59
		c-1.13,1.99-2.79,3.38-4.96,4.14c-4.26,1.5-9.01-0.42-11.09-4.47c-2.05-4.01-0.83-8.92,2.83-11.55
		C17.87,41.63,23.34,41.28,27.17,45.81z M19.93,57.82c3.56-0.01,6.46-2.92,6.44-6.48c-0.02-3.51-2.91-6.4-6.43-6.41
		c-3.56-0.01-6.47,2.88-6.47,6.44C13.47,54.93,16.36,57.83,19.93,57.82z"/>
	<path d="M32.42,45.95c-0.77,0.01-1.38-0.59-1.38-1.36c0-0.74,0.56-1.32,1.3-1.35c0.77-0.03,1.41,0.56,1.43,1.31
		C33.8,45.31,33.19,45.94,32.42,45.95z"/>
	<path d="M78.16,72.37c0.01,0.74-0.56,1.34-1.29,1.35c-0.72,0.01-1.32-0.58-1.33-1.31c-0.01-0.74,0.57-1.34,1.29-1.35
		C77.56,71.05,78.15,71.63,78.16,72.37z"/>
</g>
</svg>
