<?xml version="1.0" encoding="utf-8"?>
<!-- Generator: Adobe Illustrator 25.0.0, SVG Export Plug-In . SVG Version: 6.00 Build 0)  -->
<svg version="1.1" id="Layer_1" xmlns="http://www.w3.org/2000/svg" xmlns:xlink="http://www.w3.org/1999/xlink" x="0px" y="0px"
	 viewBox="0 0 100 100" style="enable-background:new 0 0 100 100;" xml:space="preserve">
<path d="M30.58,50.74c2.83-1.87,5.83-1.96,8.89-1.94c7.89,0.04,15.78,0.02,23.67,0.01c4.52-0.01,8.02-2.8,8.73-7.05
	c0.22-1.35,0.13-2.76,0.11-4.14c0-0.22-0.38-0.53-0.65-0.62c-4.51-1.54-7.39-4.58-8.45-9.25c-1.51-6.63,3.13-13.48,9.81-14.55
	c7.1-1.14,13.63,3.73,14.32,10.68c0.59,6.01-2.9,11.32-8.63,13.09c-0.56,0.17-0.74,0.4-0.73,0.97c0.04,2.26,0.08,4.52-0.65,6.73
	c-1.94,5.91-7.29,9.79-13.66,9.8c-8.62,0.02-17.25,0-25.87,0.01c-3.47,0-6.15,2.06-6.74,5.29c-0.22,1.2-0.12,2.46-0.14,3.7
	c-0.02,1.21,0.04,2.42-0.02,3.62c-0.03,0.68,0.19,0.95,0.85,1.15c5.18,1.6,8.62,6.39,8.57,11.87c-0.05,5.26-3.63,9.99-8.71,11.51
	c-6.45,1.93-13.23-1.67-15.24-8.1c-2-6.39,1.57-13.23,8.01-15.27c0.67-0.21,0.9-0.46,0.9-1.19c-0.03-9.65-0.03-19.31,0-28.96
	c0-0.66-0.16-0.94-0.83-1.16c-5.95-1.87-9.59-7.9-8.43-13.85c1.22-6.22,6.66-10.45,12.92-10.04c5.89,0.39,10.53,4.89,11.32,10.97
	c0.71,5.5-2.92,11.14-8.36,12.85c-0.8,0.25-1.01,0.59-1,1.4C30.6,42.33,30.58,46.42,30.58,50.74z M27.74,18.66
	c-3.64,0-6.64,3.01-6.61,6.63c0.03,3.61,3,6.55,6.6,6.56c3.63,0.01,6.62-3,6.6-6.64C34.31,21.6,31.36,18.66,27.74,18.66z
	 M68.24,25.27c0.01,3.6,2.97,6.57,6.57,6.58c3.62,0.01,6.64-3,6.62-6.62c-0.02-3.65-3.01-6.59-6.67-6.57
	C71.17,18.68,68.23,21.65,68.24,25.27z M34.33,79.86c0-3.6-2.95-6.56-6.56-6.59c-3.62-0.03-6.64,2.99-6.63,6.61
	c0.01,3.6,2.97,6.57,6.57,6.58C31.35,86.48,34.33,83.51,34.33,79.86z"/>
</svg>
