<?xml version="1.0" encoding="utf-8"?>
<!-- Generator: Adobe Illustrator 25.0.0, SVG Export Plug-In . SVG Version: 6.00 Build 0)  -->
<svg version="1.1" id="Layer_1" xmlns="http://www.w3.org/2000/svg" xmlns:xlink="http://www.w3.org/1999/xlink" x="0px" y="0px"
	 viewBox="0 0 100 100" style="enable-background:new 0 0 100 100;" xml:space="preserve">
<style type="text/css">
	.st0{fill:none;stroke:#000000;stroke-width:3.7582;stroke-miterlimit:10;}
	.st1{fill:none;stroke:#000000;stroke-width:3.7582;stroke-linecap:round;stroke-linejoin:round;stroke-miterlimit:10;}
</style>
<g>
	<path d="M32.93,89.86c-1.28-0.44-2.3-1.16-2.64-2.56c-0.09-0.39-0.11-0.8-0.11-1.2c-0.01-3.94-0.02-7.89,0-11.83
		c0.03-7.78,5.82-13.54,13.61-13.53c4.7,0.01,9.41-0.04,14.11,0.14c5.86,0.23,11.17,5.26,11.9,11.1c0.15,1.2,0.17,2.42,0.17,3.63
		c0.02,3.29-0.07,6.58,0.04,9.86c0.07,2.11-0.57,3.64-2.63,4.4C55.9,89.86,44.41,89.86,32.93,89.86z M59.24,86.16
		c0-0.34,0-0.63,0-0.93c0-3.49,0-6.98,0-10.47c0-0.35,0.02-0.71,0.09-1.05c0.14-0.66,0.77-1.14,1.43-1.14
		c0.68,0,1.33,0.53,1.44,1.22c0.05,0.3,0.04,0.6,0.04,0.91c0,3.54,0,7.08,0,10.62c0,0.27,0,0.54,0,0.84c1.4,0,2.7,0,4,0
		c0.03-0.11,0.06-0.18,0.06-0.25c0-4.2,0.09-8.4-0.04-12.59c-0.15-4.64-4.19-8.66-8.84-8.8c-4.57-0.14-9.16-0.12-13.73-0.12
		c-5.7,0-9.85,4.17-9.86,9.87c-0.01,3.72,0,7.44,0,11.15c0,0.24,0.02,0.49,0.04,0.73c1.37,0,2.67,0,4.03,0c0-0.33,0-0.6,0-0.87
		c0-3.52,0-7.03,0-10.55c0-0.28,0-0.56,0.03-0.83c0.09-0.75,0.7-1.3,1.43-1.33c0.68-0.02,1.32,0.48,1.47,1.18
		c0.07,0.32,0.09,0.65,0.09,0.98c0.01,3.52,0,7.03,0.01,10.55c0,0.29,0.03,0.58,0.04,0.88C47.08,86.16,53.12,86.16,59.24,86.16z"/>
	<path d="M16.63,60.12c1.32,0,2.62,0,4.01,0c0-0.3,0-0.57,0-0.84c0-3.64,0-7.28,0-10.92c0-1.07,0.51-1.7,1.37-1.77
		c0.98-0.08,1.64,0.58,1.65,1.72c0.02,2.15,0.01,4.3,0.01,6.45c0,1.77,0,3.53,0,5.4c0.86,0,1.66,0,2.46,0
		c1.34,0,2.68-0.03,4.02,0.01c1.1,0.03,1.73,0.56,1.92,1.48c0.17,0.8-0.18,1.61-0.93,1.95c-0.35,0.16-0.78,0.24-1.17,0.24
		c-4.45,0.02-8.9,0.03-13.35,0c-2.34-0.01-3.69-1.42-3.7-3.77c-0.01-3.97-0.02-7.94,0-11.91c0.04-6.49,4.18-11.69,10.47-13.12
		c0.88-0.2,1.8-0.29,2.7-0.29c4.78-0.02,9.56,0,14.34,0.03c0.67,0,1.36,0.13,2.02,0.3c1.01,0.27,1.51,1.18,1.3,2.16
		c-0.19,0.89-1,1.39-2,1.37c-5.43-0.08-10.86-0.25-16.29-0.17c-4.73,0.07-8.67,4.21-8.84,9.21c-0.14,4.04-0.04,8.09-0.04,12.14
		C16.56,59.89,16.6,59.99,16.63,60.12z"/>
	<path d="M76.51,60.16c0-3.9,0-7.66,0-11.43c0-0.33,0.01-0.66,0.08-0.98c0.18-0.8,0.74-1.22,1.52-1.18
		c0.71,0.03,1.27,0.53,1.39,1.27c0.04,0.25,0.03,0.5,0.03,0.76c0,3.54,0,7.08,0,10.62c0,0.27,0,0.55,0,0.87c1.36,0,2.66,0,4.04,0
		c0.01-0.21,0.04-0.43,0.04-0.65c0-3.77,0.02-7.53,0-11.3c-0.03-4.98-3.33-8.86-8.23-9.67c-0.59-0.1-1.21-0.09-1.81-0.1
		c-4.17,0-8.35-0.01-12.52,0.02c-0.83,0-1.66,0.12-2.49,0.2c-1.07,0.1-1.94-0.48-2.1-1.42c-0.19-1.04,0.42-1.95,1.52-2.16
		c0.82-0.15,1.65-0.27,2.48-0.27c4.8-0.02,9.61-0.09,14.41,0.02c6.05,0.15,11.53,5.25,12.22,11.28c0.19,1.63,0.15,3.28,0.17,4.92
		c0.02,3.03,0.01,6.07,0,9.1c-0.01,2.34-1.37,3.75-3.71,3.76c-4.43,0.02-8.85,0.02-13.28,0c-1.59,0-2.47-0.97-2.14-2.29
		c0.17-0.7,0.62-1.2,1.33-1.28c0.9-0.1,1.81-0.1,2.72-0.11C73.6,60.15,75.01,60.16,76.51,60.16z"/>
	<path d="M67.35,32.08c-5.49-0.03-9.94-4.48-9.94-9.95c0-5.49,4.52-9.99,10.01-9.97c5.46,0.02,9.94,4.51,9.94,9.96
		C77.37,27.62,72.85,32.11,67.35,32.08z M61.1,22.12c-0.01,3.44,2.8,6.26,6.25,6.29c3.47,0.03,6.33-2.8,6.34-6.28
		c0.01-3.42-2.79-6.25-6.25-6.31C64.01,15.77,61.1,18.66,61.1,22.12z"/>
	<path d="M50.24,37.89c5.65,0.14,9.99,4.66,9.85,10.26c-0.13,5.4-4.76,9.81-10.15,9.67c-5.55-0.15-9.91-4.7-9.76-10.19
		C40.33,42.13,44.86,37.75,50.24,37.89z M50.14,41.56c-3.45-0.01-6.26,2.78-6.3,6.24c-0.03,3.46,2.81,6.34,6.28,6.35
		c3.44,0.01,6.35-2.91,6.31-6.33C56.4,44.37,53.58,41.57,50.14,41.56z"/>
	<path d="M32.82,32.08c-5.52-0.01-9.99-4.49-9.95-10c0.04-5.49,4.49-9.92,9.96-9.92c5.5,0,9.98,4.51,9.96,10.01
		C42.77,27.64,38.3,32.09,32.82,32.08z M32.83,28.41c3.44,0,6.26-2.79,6.31-6.25c0.05-3.41-2.86-6.34-6.3-6.34
		c-3.43,0-6.27,2.82-6.29,6.26C26.51,25.56,29.34,28.41,32.83,28.41z"/>
</g>
</svg>
