<?xml version="1.0" encoding="utf-8"?>
<!-- Generator: Adobe Illustrator 25.0.0, SVG Export Plug-In . SVG Version: 6.00 Build 0)  -->
<svg version="1.1" id="Layer_1" xmlns="http://www.w3.org/2000/svg" xmlns:xlink="http://www.w3.org/1999/xlink" x="0px" y="0px"
	 viewBox="0 0 100 100" style="enable-background:new 0 0 100 100;" xml:space="preserve">
<style type="text/css">
	.st0{fill:none;stroke:#000000;stroke-width:3.7582;stroke-miterlimit:10;}
	.st1{fill:none;stroke:#000000;stroke-width:3.7582;stroke-linecap:round;stroke-linejoin:round;stroke-miterlimit:10;}
</style>
<g>
	<path d="M33.2,46.71c-3.57,0-7.14,0.01-10.71,0c-5.07-0.01-8.65-3.58-8.66-8.63c-0.01-5.43-0.01-10.86,0-16.29
		c0.01-5.01,3.6-8.59,8.61-8.6c5.43-0.01,10.86-0.01,16.29,0c5.02,0.01,8.61,3.59,8.62,8.59c0.01,7.37,0,14.74,0,22.11
		c0,1.84-0.98,2.82-2.83,2.82C40.75,46.71,36.97,46.71,33.2,46.71z M42.39,41.74c0-0.35,0-0.58,0-0.81c0-6.36,0-12.72,0-19.08
		c0-2.35-1.35-3.7-3.71-3.7c-5.38,0-10.75,0-16.13,0c-2.42,0-3.75,1.33-3.75,3.73c0,5.35,0,10.7,0,16.05c0,2.51,1.31,3.81,3.83,3.81
		c6.28,0,12.56,0,18.85,0C41.75,41.74,42.03,41.74,42.39,41.74z"/>
	<path d="M68.85,46.71c-3.75,0-7.5,0-11.25,0c-1.79,0-2.79-1-2.79-2.78c0-7.39-0.01-14.79,0-22.18c0.01-4.95,3.61-8.55,8.58-8.56
		c5.46-0.01,10.91-0.01,16.37,0c4.97,0.01,8.56,3.59,8.58,8.56c0.01,5.46,0.01,10.91,0,16.37c-0.01,5.01-3.6,8.58-8.62,8.59
		C76.09,46.71,72.47,46.71,68.85,46.71z M59.77,41.69c0.18,0.02,0.27,0.04,0.37,0.04c6.64,0,13.29,0.02,19.93-0.01
		c1.89-0.01,3.28-1.48,3.28-3.41c0.01-5.58,0.01-11.17,0-16.75c-0.01-2-1.43-3.41-3.44-3.42c-5.56-0.01-11.12-0.01-16.67,0
		c-2.05,0-3.46,1.41-3.47,3.46c-0.01,1.73,0,3.46,0,5.2C59.77,31.75,59.77,36.68,59.77,41.69z"/>
	<path d="M68.92,54.16c3.59,0,7.19-0.01,10.78,0c5.05,0.01,8.62,3.59,8.63,8.66c0.01,5.4,0.01,10.81,0,16.21
		c-0.01,5.06-3.58,8.64-8.64,8.65c-5.4,0.01-10.81,0.01-16.21,0c-5.07-0.01-8.66-3.58-8.66-8.63c-0.01-7.34,0-14.69,0-22.03
		c0-1.89,0.97-2.86,2.86-2.86C61.42,54.16,65.17,54.16,68.92,54.16z M59.77,59.12c0,0.36,0,0.62,0,0.87c0,6.31,0,12.61,0,18.92
		c0,2.47,1.31,3.79,3.76,3.79c5.35,0,10.7,0,16.05,0c2.45,0,3.77-1.33,3.77-3.79c0-5.32,0-10.65,0-15.97c0-2.52-1.3-3.83-3.81-3.83
		c-6.31,0-12.61,0-18.92,0C60.38,59.12,60.12,59.12,59.77,59.12z"/>
	<path d="M47.36,68.28c0,3.57,0,7.14,0,10.7c-0.01,5.12-3.57,8.68-8.68,8.69c-5.4,0.01-10.81,0.01-16.21,0
		c-5.05-0.01-8.63-3.6-8.63-8.66c-0.01-5.4-0.01-10.81,0-16.21c0.01-5.06,3.58-8.64,8.64-8.65c7.34-0.01,14.69,0,22.03,0
		c1.88,0,2.85,0.98,2.85,2.88C47.36,60.78,47.36,64.53,47.36,68.28z M42.39,59.12c-0.35,0-0.58,0-0.81,0c-6.36,0-12.72,0-19.08,0
		c-2.36,0-3.7,1.34-3.7,3.7c0,5.38,0,10.75,0,16.13c0,2.42,1.33,3.76,3.72,3.76c5.38,0,10.75,0,16.13,0c2.4,0,3.74-1.34,3.74-3.75
		c0-6.33,0-12.66,0-19C42.39,59.71,42.39,59.46,42.39,59.12z"/>
</g>
</svg>
